SplineFontDB: 3.0
FontName: Samim
FullName: Samim
FamilyName: Samim
Weight: Regular
Copyright: Copyright (c) 2003 by Bitstream, Inc. All Rights Reserved.\nDejaVu changes are in public domain\nCopyright (c) 2015 by Saber Rastikerdar. All Rights Reserved.
Version: 0.9.9
ItalicAngle: 0
UnderlinePosition: -100
UnderlineWidth: 100
Ascent: 1536
Descent: 512
InvalidEm: 0
LayerCount: 2
Layer: 0 1 "Back" 1
Layer: 1 1 "Fore" 0
XUID: [1021 502 1027637223 6329498]
UniqueID: 4046467
UseUniqueID: 1
FSType: 0
OS2Version: 1
OS2_WeightWidthSlopeOnly: 0
OS2_UseTypoMetrics: 1
CreationTime: 1431850356
ModificationTime: 1450816039
PfmFamily: 33
TTFWeight: 400
TTFWidth: 5
LineGap: 0
VLineGap: 0
Panose: 2 11 6 3 3 8 4 2 2 4
OS2TypoAscent: 2250
OS2TypoAOffset: 0
OS2TypoDescent: -750
OS2TypoDOffset: 0
OS2TypoLinegap: 0
OS2WinAscent: 2250
OS2WinAOffset: 0
OS2WinDescent: 750
OS2WinDOffset: 0
HheadAscent: 2250
HheadAOffset: 0
HheadDescent: -750
HheadDOffset: 0
OS2SubXSize: 1331
OS2SubYSize: 1433
OS2SubXOff: 0
OS2SubYOff: 286
OS2SupXSize: 1331
OS2SupYSize: 1433
OS2SupXOff: 0
OS2SupYOff: 983
OS2StrikeYSize: 102
OS2StrikeYPos: 530
OS2Vendor: 'PfEd'
OS2CodePages: 600001ff.dfff0000
Lookup: 1 0 0 "'case' Case-Sensitive Forms in Latin lookup 0" { "'case' Case-Sensitive Forms in Latin lookup 0 subtable"  } ['case' ('DFLT' <'dflt' > 'latn' <'CAT ' 'ESP ' 'GAL ' 'dflt' > ) ]
Lookup: 6 1 0 "'ccmp' Glyph Composition/Decomposition lookup 2" { "'ccmp' Glyph Composition/Decomposition lookup 2 subtable"  } ['ccmp' ('arab' <'KUR ' 'SND ' 'URD ' 'dflt' > 'hebr' <'dflt' > 'nko ' <'dflt' > ) ]
Lookup: 6 0 0 "'ccmp' Glyph Composition/Decomposition lookup 3" { "'ccmp' Glyph Composition/Decomposition lookup 3 subtable"  } ['ccmp' ('cyrl' <'MKD ' 'SRB ' 'dflt' > 'grek' <'dflt' > 'latn' <'ISM ' 'KSM ' 'LSM ' 'MOL ' 'NSM ' 'ROM ' 'SKS ' 'SSM ' 'dflt' > ) ]

StartChar: exclam
Encoding: 33 33 1
Width: 821
GlyphClass: 2
Flags: W
LayerCount: 2
Fore
SplineSet
506.5 172.3 m 2,0,-1
 506.5 29.2998 l 2,1,2
 506.5 0.299805 506.5 0.299805 483.5 0.299805 c 2,3,-1
 341.5 0.299805 l 2,4,5
 315.5 0.299805 315.5 0.299805 315.5 29.2998 c 2,6,-1
 315.5 171.3 l 2,7,8
 315.5 198.3 315.5 198.3 341.5 198.3 c 2,9,-1
 480.5 198.3 l 2,10,11
 506.5 198.3 506.5 198.3 506.5 172.3 c 2,0,-1
319 1400 m 1,12,-1
 502 1400 l 1,13,-1
 482.545 351 l 5,14,-1
 339.429 351 l 5,15,-1
 319 1400 l 1,12,-1
EndSplineSet
EndChar

StartChar: parenleft
Encoding: 40 40 2
Width: 799
GlyphClass: 2
Flags: W
GlyphCompositionVertical: 3  uni239D%0,0,44,2703 uni239C%1,44,44,2731 uni239B%0,44,0,2740
LayerCount: 2
Fore
SplineSet
617.671 1544 m 1,0,1
 489.523 1320.31 489.523 1320.31 426.393 1101.78 c 0,2,3
 361 875.41 361 875.41 361 643 c 128,-1,4
 361 410.581 361 410.581 426.894 182.722 c 0,5,6
 490.501 -37.2327 490.501 -37.2327 617.699 -260 c 1,7,-1
 480.487 -260 l 1,8,9
 333.251 -28.07 333.251 -28.07 260.001 195.118 c 0,10,11
 186 420.599 186 420.599 186 643 c 0,12,13
 186 864.42 186 864.42 259.504 1088.89 c 0,14,15
 332.269 1311.1 332.269 1311.1 480.48 1544 c 1,16,-1
 617.671 1544 l 1,0,1
EndSplineSet
EndChar

StartChar: parenright
Encoding: 41 41 3
Width: 799
GlyphClass: 2
Flags: W
GlyphCompositionVertical: 3  uni23A0%0,0,44,2703 uni239F%1,44,44,2731 uni239E%0,44,0,2740
LayerCount: 2
Fore
SplineSet
181.266 1544 m 1,0,-1
 318.5 1544 l 1,1,2
 465.754 1311.08 465.754 1311.08 539.003 1088.87 c 0,3,4
 613 864.382 613 864.382 613 643 c 0,5,6
 613 420.599 613 420.599 538.999 195.118 c 0,7,8
 465.749 -28.0702 465.749 -28.0702 318.513 -260 c 1,9,-1
 181.301 -260 l 1,10,11
 308.503 -37.2191 308.503 -37.2191 372.106 182.722 c 0,12,13
 438 410.581 438 410.581 438 643 c 128,-1,14
 438 875.442 438 875.442 372.101 1101.8 c 0,15,16
 308.495 1320.28 308.495 1320.28 181.266 1544 c 1,0,-1
EndSplineSet
EndChar

StartChar: asterisk
Encoding: 42 42 4
Width: 1024
GlyphClass: 2
Flags: W
LayerCount: 2
Fore
SplineSet
949.139 1250.88 m 1,0,-1
 583.008 1053.02 l 1,1,-1
 949.11 854.165 l 1,2,-1
 901.534 773.777 l 1,3,-1
 559 980.725 l 1,4,-1
 559 596 l 1,5,-1
 465 596 l 1,6,-1
 465 980.725 l 1,7,-1
 122.466 773.777 l 1,8,-1
 74.89 854.165 l 1,9,-1
 440.992 1053.02 l 1,10,-1
 74.8608 1250.88 l 1,11,-1
 122.504 1332.2 l 1,12,-1
 449.829 1134.44 l 2,13,14
 457.415 1129.86 457.415 1129.86 465 1125.27 c 1,15,-1
 465 1510 l 1,16,-1
 559 1510 l 1,17,-1
 559 1125.27 l 1,18,19
 566.585 1129.86 566.585 1129.86 574.171 1134.44 c 2,20,-1
 901.495 1332.2 l 1,21,-1
 949.139 1250.88 l 1,0,-1
EndSplineSet
EndChar

StartChar: plus
Encoding: 43 43 5
Width: 1716
GlyphClass: 2
Flags: W
LayerCount: 2
Fore
SplineSet
932 1274 m 1,0,-1
 932 717 l 1,1,-1
 1489 717 l 1,2,-1
 1489 567 l 1,3,-1
 932 567 l 1,4,-1
 932 10 l 1,5,-1
 784 10 l 1,6,-1
 784 567 l 1,7,-1
 227 567 l 1,8,-1
 227 717 l 1,9,-1
 784 717 l 1,10,-1
 784 1274 l 1,11,-1
 932 1274 l 1,0,-1
EndSplineSet
EndChar

StartChar: period
Encoding: 46 46 6
Width: 651
GlyphClass: 2
Flags: W
LayerCount: 2
Fore
SplineSet
419.5 172.3 m 6,0,-1
 419.5 29.2998 l 6,1,2
 419.5 0.299805 419.5 0.299805 396.5 0.299805 c 6,3,-1
 254.5 0.299805 l 6,4,5
 228.5 0.299805 228.5 0.299805 228.5 29.2998 c 6,6,-1
 228.5 171.3 l 6,7,8
 228.5 198.3 228.5 198.3 254.5 198.3 c 6,9,-1
 393.5 198.3 l 6,10,11
 419.5 198.3 419.5 198.3 419.5 172.3 c 6,0,-1
EndSplineSet
EndChar

StartChar: slash
Encoding: 47 47 7
Width: 690
GlyphClass: 2
Flags: W
LayerCount: 2
Fore
SplineSet
527.377 1483 m 1,0,-1
 676.444 1483 l 1,1,-1
 162.623 -180 l 1,2,-1
 13.5562 -180 l 1,3,-1
 527.377 1483 l 1,0,-1
EndSplineSet
EndChar

StartChar: colon
Encoding: 58 58 8
Width: 690
GlyphClass: 2
Flags: W
LayerCount: 2
Fore
SplineSet
440.5 780.3 m 2,0,-1
 440.5 637.3 l 2,1,2
 440.5 608.3 440.5 608.3 417.5 608.3 c 2,3,-1
 275.5 608.3 l 2,4,5
 249.5 608.3 249.5 608.3 249.5 637.3 c 2,6,-1
 249.5 779.3 l 2,7,8
 249.5 806.3 249.5 806.3 275.5 806.3 c 2,9,-1
 414.5 806.3 l 2,10,11
 440.5 806.3 440.5 806.3 440.5 780.3 c 2,0,-1
440.5 172.3 m 2,12,-1
 440.5 29.2998 l 2,13,14
 440.5 0.299805 440.5 0.299805 417.5 0.299805 c 2,15,-1
 275.5 0.299805 l 2,16,17
 249.5 0.299805 249.5 0.299805 249.5 29.2998 c 2,18,-1
 249.5 171.3 l 2,19,20
 249.5 198.3 249.5 198.3 275.5 198.3 c 2,21,-1
 414.5 198.3 l 2,22,23
 440.5 198.3 440.5 198.3 440.5 172.3 c 2,12,-1
EndSplineSet
EndChar

StartChar: equal
Encoding: 61 61 9
Width: 1716
GlyphClass: 2
Flags: W
GlyphCompositionHorizontal: 2  equal%0,0,44,1433 equal%1,44,0,1433
LayerCount: 2
Fore
SplineSet
227 920 m 1,0,-1
 1489 920 l 1,1,-1
 1489 772 l 1,2,-1
 227 772 l 1,3,-1
 227 920 l 1,0,-1
227 512 m 1,4,-1
 1489 512 l 1,5,-1
 1489 362 l 1,6,-1
 227 362 l 1,7,-1
 227 512 l 1,4,-1
EndSplineSet
EndChar

StartChar: backslash
Encoding: 92 92 10
Width: 690
GlyphClass: 2
Flags: W
LayerCount: 2
Fore
SplineSet
162.623 1483 m 1,0,-1
 676.444 -180 l 1,1,-1
 527.377 -180 l 1,2,-1
 13.5562 1483 l 1,3,-1
 162.623 1483 l 1,0,-1
EndSplineSet
EndChar

StartChar: grave
Encoding: 96 96 11
Width: 1024
GlyphClass: 2
Flags: W
LayerCount: 2
Fore
SplineSet
362.016 1628 m 1,0,-1
 628.936 1274 l 1,1,-1
 500.549 1274 l 1,2,-1
 191.982 1628 l 1,3,-1
 362.016 1628 l 1,0,-1
EndSplineSet
EndChar

StartChar: braceleft
Encoding: 123 123 12
Width: 1303
GlyphClass: 2
Flags: W
GlyphCompositionVertical: 5  uni23A9%0,0,44,2700 uni23AA%1,44,44,2742 uni23A8%0,44,44,2727 uni23AA%1,44,44,2742 uni23A7%0,44,0,2719
LayerCount: 2
Fore
SplineSet
1037 -200 m 1,0,-1
 1037 -324 l 1,1,-1
 985 -324 l 2,2,3
 739.763 -324 739.763 -324 658.088 -252.477 c 0,4,5
 577 -181.467 577 -181.467 577 35 c 2,6,-1
 577 274 l 2,7,8
 577 428.932 577 428.932 520.319 489.814 c 0,9,10
 463.355 551 463.355 551 317 551 c 2,11,-1
 266 551 l 1,12,-1
 266 674 l 1,13,-1
 317 674 l 2,14,15
 464.352 674 464.352 674 520.821 734.688 c 0,16,17
 577 795.065 577 795.065 577 948 c 2,18,-1
 577 1188 l 2,19,20
 577 1404.45 577 1404.45 658.063 1474.95 c 0,21,22
 739.746 1546 739.746 1546 985 1546 c 2,23,-1
 1037 1546 l 1,24,-1
 1037 1423 l 1,25,-1
 979 1423 l 2,26,27
 833.788 1423 833.788 1423 787.848 1375.99 c 128,-1,28
 742 1329.07 742 1329.07 742 1184 c 2,29,-1
 742 936 l 2,30,31
 742 781.928 742 781.928 698.081 713.396 c 0,32,33
 654.788 645.842 654.788 645.842 548.784 621.751 c 2,34,-1
 507.332 612.33 l 1,35,-1
 548.636 602.283 l 2,36,37
 655.711 576.241 655.711 576.241 698.554 508.647 c 0,38,39
 742 440.099 742 440.099 742 287 c 2,40,-1
 742 39 l 2,41,42
 742 -106.073 742 -106.073 787.848 -152.989 c 128,-1,43
 833.789 -200 833.789 -200 979 -200 c 2,44,-1
 1037 -200 l 1,0,-1
EndSplineSet
EndChar

StartChar: braceright
Encoding: 125 125 13
Width: 1303
GlyphClass: 2
Flags: W
GlyphCompositionVertical: 5  uni23AD%0,0,44,2700 uni23AA%1,44,44,2742 uni23AC%0,44,44,2727 uni23AA%1,44,44,2742 uni23AB%0,44,0,2719
LayerCount: 2
Fore
SplineSet
266 -200 m 1,0,-1
 326 -200 l 2,1,2
 470.177 -200 470.177 -200 515.612 -154.03 c 128,-1,3
 561 -108.107 561 -108.107 561 39 c 2,4,-1
 561 287 l 2,5,6
 561 440.099 561 440.099 604.446 508.647 c 0,7,8
 647.288 576.241 647.288 576.241 754.364 602.283 c 2,9,-1
 795.849 612.375 l 1,10,-1
 754.197 621.756 l 2,11,12
 647.231 645.847 647.231 645.847 604.446 713.353 c 0,13,14
 561 781.904 561 781.904 561 936 c 2,15,-1
 561 1184 l 2,16,17
 561 1330.07 561 1330.07 515.653 1376.49 c 128,-1,18
 470.213 1423 470.213 1423 326 1423 c 2,19,-1
 266 1423 l 1,20,-1
 266 1546 l 1,21,-1
 319 1546 l 2,22,23
 564.232 1546 564.232 1546 644.893 1474.99 c 0,24,25
 725 1404.47 725 1404.47 725 1188 c 2,26,-1
 725 948 l 2,27,28
 725 795.041 725 795.041 781.711 734.654 c 0,29,30
 838.673 674 838.673 674 985 674 c 2,31,-1
 1037 674 l 1,32,-1
 1037 551 l 1,33,-1
 985 551 l 2,34,35
 838.645 551 838.645 551 781.681 489.814 c 0,36,37
 725 428.932 725 428.932 725 274 c 2,38,-1
 725 35 l 2,39,40
 725 -181.501 725 -181.501 644.867 -252.516 c 0,41,42
 564.205 -324 564.205 -324 319 -324 c 2,43,-1
 266 -324 l 1,44,-1
 266 -200 l 1,0,-1
EndSplineSet
EndChar

StartChar: afii57388
Encoding: 1548 1548 15
Width: 664
VWidth: 2054
GlyphClass: 2
Flags: W
LayerCount: 2
Fore
SplineSet
363.627 242.681 m 5,0,-1
 402.518 242.681 l 6,1,2
 471.258 242.681 471.258 242.681 471.258 190.32 c 6,3,-1
 471.258 59.6504 l 6,4,5
 471.258 -0.859375 471.258 -0.859375 418.357 -0.859375 c 6,6,-1
 297.148 -0.859375 l 6,7,8
 236.328 1.96618 236.328 1.96618 236.328 56.8809 c 6,9,-1
 236.328 203.32 l 4,10,11
 255.127 406.729 255.127 406.729 445.768 568.84 c 5,12,-1
 504.168 539.669 l 5,13,14
 365.127 386.729 365.127 386.729 363.627 242.681 c 5,0,-1
EndSplineSet
EndChar

StartChar: uni0615
Encoding: 1557 1557 16
Width: 0
VWidth: 2186
GlyphClass: 4
Flags: W
AnchorPoint: "Anchor-10" 547.84 1279.5 mark 0
AnchorPoint: "Anchor-9" 547.84 1279.5 mark 0
AnchorPoint: "Anchor-1" 547.84 1975 basemark 0
AnchorPoint: "Anchor-1" 547.84 1279.5 mark 0
LayerCount: 2
Fore
SplineSet
466.096 1456.96 m 1,0,-1
 552.12 1456.96 l 2,1,2
 639.138 1456.96 639.138 1456.96 665.862 1472.75 c 0,3,4
 697.288 1492.32 697.288 1492.32 713.059 1508.3 c 128,-1,5
 728.83 1524.27 728.83 1524.27 728.83 1541.65 c 0,6,7
 728.83 1583.09 728.83 1583.09 689.03 1604.94 c 1,8,9
 681.399 1607.6 681.399 1607.6 672.751 1605.46 c 128,-1,10
 664.102 1603.31 664.102 1603.31 640.309 1592.64 c 128,-1,11
 616.515 1581.97 616.515 1581.97 601.865 1576.19 c 0,12,13
 543.049 1552.44 543.049 1552.44 483.147 1478.12 c 2,14,-1
 466.096 1456.96 l 1,0,-1
576.73 1374.89 m 2,15,-1
 282.64 1374.89 l 1,16,-1
 282.64 1456.96 l 1,17,-1
 369.31 1456.96 l 1,18,-1
 369.31 1883.89 l 1,19,-1
 452.45 1883.89 l 1,20,-1
 452.45 1497.67 l 1,21,-1
 477.109 1547.67 l 2,22,23
 513.381 1621.22 513.381 1621.22 619.878 1662.18 c 0,24,25
 682.718 1686.12 682.718 1686.12 752.956 1660.03 c 0,26,27
 814.11 1636.51 814.11 1636.51 814.11 1557.7 c 0,28,29
 814.11 1466.67 814.11 1466.67 750.648 1417.09 c 0,30,31
 696.384 1374.89 696.384 1374.89 576.73 1374.89 c 2,15,-1
EndSplineSet
EndChar

StartChar: uni061B
Encoding: 1563 1563 17
Width: 654
VWidth: 2054
GlyphClass: 2
Flags: W
LayerCount: 2
Fore
SplineSet
344.574 597.451 m 1,0,-1
 383.466 597.451 l 2,1,2
 452.205 597.451 452.205 597.451 452.205 545.091 c 2,3,-1
 452.205 425.421 l 6,4,5
 452.205 353.911 452.205 353.911 399.305 353.911 c 2,6,-1
 278.096 353.911 l 2,7,8
 217.275 353.911 217.275 353.911 217.275 411.651 c 2,9,-1
 217.275 558.091 l 0,10,11
 236.074 761.499 236.074 761.499 426.716 923.61 c 1,12,-1
 485.115 894.439 l 1,13,14
 346.074 741.499 346.074 741.499 344.574 597.451 c 1,0,-1
428.5 172.3 m 2,15,-1
 428.5 29.2998 l 2,16,17
 428.5 0.299805 428.5 0.299805 405.5 0.299805 c 2,18,-1
 263.5 0.299805 l 2,19,20
 237.5 0.299805 237.5 0.299805 237.5 29.2998 c 2,21,-1
 237.5 171.3 l 2,22,23
 237.5 198.3 237.5 198.3 263.5 198.3 c 2,24,-1
 402.5 198.3 l 2,25,26
 428.5 198.3 428.5 198.3 428.5 172.3 c 2,15,-1
EndSplineSet
EndChar

StartChar: uni061F
Encoding: 1567 1567 18
Width: 1087
GlyphClass: 2
Flags: W
LayerCount: 2
Fore
SplineSet
694.5 172.3 m 2,0,-1
 694.5 29.2998 l 2,1,2
 694.5 0.299805 694.5 0.299805 671.5 0.299805 c 2,3,-1
 529.5 0.299805 l 2,4,5
 503.5 0.299805 503.5 0.299805 503.5 29.2998 c 2,6,-1
 503.5 171.3 l 2,7,8
 503.5 198.3 503.5 198.3 529.5 198.3 c 2,9,-1
 668.5 198.3 l 2,10,11
 694.5 198.3 694.5 198.3 694.5 172.3 c 2,0,-1
503 351 m 1,12,-1
 503 474 l 2,13,14
 503 526 503 526 500 556 c 128,-1,15
 497 586 497 586 491 607 c 0,16,17
 483 632 483 632 463.5 658.5 c 0,18,19
 441.196 688.809 441.196 688.809 397 732 c 2,20,-1
 309 818 l 1,21,22
 219 904 219 904 183 972.5 c 128,-1,23
 147 1041 147 1041 147 1117 c 0,24,25
 147 1276 147 1276 258.5 1373 c 128,-1,26
 370 1470 370 1470 554 1470 c 0,27,28
 657 1470 657 1470 753.5 1442 c 128,-1,29
 850 1414 850 1414 944 1357 c 1,30,-1
 873 1215.1 l 1,31,32
 703.809 1305 703.809 1305 589 1306 c 0,33,34
 481 1306 481 1306 415.5 1251 c 128,-1,35
 350 1196 350 1196 350 1107 c 0,36,37
 350 1058 350 1058 375.5 1011 c 128,-1,38
 401 964 401 964 458 911 c 1,39,-1
 548 822 l 1,40,41
 638 736 638 736 666 671 c 128,-1,42
 694 606 694 606 694 505 c 2,43,-1
 694 351 l 1,44,-1
 503 351 l 1,12,-1
EndSplineSet
EndChar

StartChar: uni0621
Encoding: 1569 1569 19
Width: 703
VWidth: 2181
GlyphClass: 2
Flags: W
AnchorPoint: "Anchor-7" 356 -199 basechar 0
AnchorPoint: "Anchor-10" 308.5 992.5 basechar 0
LayerCount: 2
Fore
SplineSet
91.1709 0.134766 m 1,0,-1
 91.1709 123.013 l 1,1,2
 123.768 132.107 123.768 132.107 208.768 158.414 c 0,3,4
 263.819 177.061 263.819 177.061 333.154 216.433 c 1,5,6
 94.7676 256.723 94.7676 256.723 94.7676 460.414 c 0,7,8
 94.7676 624.233 94.7676 624.233 221.178 702.127 c 128,-1,9
 347.591 780.023 347.591 780.023 543.029 736.774 c 1,10,-1
 543.029 607.535 l 1,11,12
 465.891 629.31 465.891 629.31 409.938 627.711 c 0,13,14
 363.193 626.832 363.193 626.832 316.923 603.697 c 0,15,16
 225.735 558.104 225.735 558.104 226.684 452.016 c 0,17,18
 226.684 313.818 226.684 313.818 386.768 294.414 c 0,19,20
 444.223 287.655 444.223 287.655 517.995 294.826 c 0,21,22
 548.766 297.817 548.766 297.817 612.365 330.839 c 1,23,-1
 612.365 203.272 l 1,24,25
 534.168 153.269 534.168 153.269 365.976 87.6338 c 0,26,27
 184.858 17.0654 184.858 17.0654 91.1709 0.134766 c 1,0,-1
EndSplineSet
EndChar

StartChar: uni0627
Encoding: 1575 1575 25
Width: 455
VWidth: 2181
GlyphClass: 2
Flags: W
AnchorPoint: "Anchor-10" 208.5 1570 basechar 0
AnchorPoint: "Anchor-7" 215.5 -224.5 basechar 0
LayerCount: 2
Fore
SplineSet
130.059570312 1402.95996094 m 1,0,-1
 286.940429688 1470.95996094 l 1,1,-1
 286.940429688 1.5 l 1,2,-1
 181.059570312 1.5 l 1,3,-1
 130.059570312 1402.95996094 l 1,0,-1
EndSplineSet
Substitution2: "'fina' Terminal Forms in Arabic lookup 9 subtable" uniFE8E
EndChar

StartChar: uni062D
Encoding: 1581 1581 31
Width: 1221
VWidth: 2181
GlyphClass: 2
Flags: W
AnchorPoint: "Anchor-10" 498.5 1163 basechar 0
AnchorPoint: "Anchor-7" 384.288 -742.291 basechar 0
LayerCount: 2
Fore
SplineSet
935 418 m 0,0,1
 704 390 704 390 553 303 c 0,2,3
 244 125 244 125 244.080078125 -135.1640625 c 0,4,5
 244 -283 244 -283 353.662109375 -370.796875 c 0,6,7
 461 -458 461 -458 729.76171875 -458.520507812 c 0,8,9
 916 -459 916 -459 1081 -412 c 1,10,-1
 1130 -553 l 1,11,12
 938 -612 938 -612 731.819335938 -612.13671875 c 0,13,14
 344 -612 344 -612 194.438476562 -436.048828125 c 0,15,16
 91 -315 91 -315 91.2666015625 -144.452148438 c 0,17,18
 91.0032093923 38.7674973604 91.0032093923 38.7674973604 181.49609375 174.852539062 c 0,19,20
 282.653833674 327.962474845 282.653833674 327.962474845 459 417 c 24,21,22
 663 520 663 520 840.075195312 526.811523438 c 1,23,24
 775 538 775 538 640.181640625 601.715820312 c 0,25,26
 508 664 508 664 474.499023438 663.9765625 c 0,27,28
 346 664 346 664 218 500 c 1,29,-1
 114 580 l 1,30,31
 234 756 234 756 362.06640625 796.524414062 c 0,32,33
 411 812 411 812 459 812 c 0,34,35
 489 812 489 812 514 805 c 0,36,37
 562 792 562 792 695 727 c 0,38,39
 859 647 859 647 935.548828125 620.237304688 c 0,40,41
 1012 594 1012 594 1097 582.604492188 c 1,42,-1
 1075 429 l 1,43,44
 955 420 955 420 935 418 c 0,0,1
EndSplineSet
Substitution2: "'fina' Terminal Forms in Arabic lookup 9 subtable" uniFEA2
Substitution2: "'medi' Medial Forms in Arabic lookup 11 subtable" uniFEA4
Substitution2: "'init' Initial Forms in Arabic lookup 13 subtable" uniFEA3
EndChar

StartChar: uni062F
Encoding: 1583 1583 33
Width: 933
VWidth: 2181
GlyphClass: 2
Flags: W
AnchorPoint: "Anchor-10" 320.935 1103.81 basechar 0
AnchorPoint: "Anchor-7" 370.059 -207.422 basechar 0
LayerCount: 2
Fore
SplineSet
401.420898438 149.041015625 m 0,0,1
 570.403320312 156.358398438 570.403320312 156.358398438 653.299804688 214.935546875 c 0,2,3
 729.487304688 271.831054688 729.487304688 271.831054688 683.544921875 378.638671875 c 0,4,5
 601.411132812 573.782226562 601.411132812 573.782226562 353.8671875 762.512695312 c 1,6,-1
 439.944335938 894.87890625 l 1,7,8
 794.153320312 629.909179688 794.153320312 629.909179688 838.399414062 353.643554688 c 0,9,10
 857.471679688 232.123046875 857.471679688 232.123046875 793.127929688 142.369140625 c 0,11,12
 689.064453125 0 689.064453125 0 404.00390625 -13.6162109375 c 0,13,14
 195.40234375 -24.23828125 195.40234375 -24.23828125 91.83984375 12.8876953125 c 1,15,-1
 92.2119140625 181.10546875 l 1,16,17
 215.43359375 140.822265625 215.43359375 140.822265625 401.420898438 149.041015625 c 0,0,1
EndSplineSet
Substitution2: "'fina' Terminal Forms in Arabic lookup 9 subtable" uniFEAA
EndChar

StartChar: uni0631
Encoding: 1585 1585 35
Width: 847
VWidth: 2186
GlyphClass: 2
Flags: W
AnchorPoint: "Anchor-7" 526 -631.5 basechar 0
AnchorPoint: "Anchor-10" 443.81 942.01 basechar 0
LayerCount: 2
Fore
SplineSet
735.601 48.5 m 0,0,1
 657.441 -501.365 657.441 -501.365 94.8672 -505.23 c 1,2,-1
 26.8672 -381.23 l 1,3,4
 553.434 -344.173 553.434 -344.173 589.677 66.7705 c 0,5,6
 598.834 169.84 598.834 169.84 518.585 464.2 c 1,7,-1
 659.601 561.5 l 1,8,9
 765.731 261.33 765.731 261.33 735.601 48.5 c 0,0,1
EndSplineSet
PairPos2: "'kern' Horizontal Kerning lookup 15-1" uni0632 dx=-100 dy=0 dh=-100 dv=0 dx=0 dy=0 dh=0 dv=0
PairPos2: "'kern' Horizontal Kerning lookup 15-1" uni0631 dx=-100 dy=0 dh=-100 dv=0 dx=0 dy=0 dh=0 dv=0
PairPos2: "'kern' Horizontal Kerning lookup 15-1" uniFB8A dx=-100 dy=0 dh=-100 dv=0 dx=0 dy=0 dh=0 dv=0
PairPos2: "'kern' Horizontal Kerning lookup 15-1" afii57508 dx=-100 dy=0 dh=-100 dv=0 dx=0 dy=0 dh=0 dv=0
PairPos2: "'kern' Horizontal Kerning lookup 15-1" uni0648 dx=-100 dy=0 dh=-100 dv=0 dx=0 dy=0 dh=0 dv=0
PairPos2: "'kern' Horizontal Kerning lookup 15-1" uni06CC dx=-100 dy=0 dh=-100 dv=0 dx=0 dy=0 dh=0 dv=0
PairPos2: "'kern' Horizontal Kerning lookup 15-1" uniFEEB dx=-150 dy=0 dh=-150 dv=0 dx=0 dy=0 dh=0 dv=0
PairPos2: "'kern' Horizontal Kerning lookup 15-1" uniFB7C dx=-100 dy=0 dh=-100 dv=0 dx=0 dy=0 dh=0 dv=0
PairPos2: "'kern' Horizontal Kerning lookup 15-1" uniFB58 dx=50 dy=0 dh=50 dv=0 dx=0 dy=0 dh=0 dv=0
PairPos2: "'kern' Horizontal Kerning lookup 15-1" uniFEF3 dx=70 dy=0 dh=70 dv=0 dx=0 dy=0 dh=0 dv=0
PairPos2: "'kern' Horizontal Kerning lookup 15-1" uniFBFE dx=70 dy=0 dh=70 dv=0 dx=0 dy=0 dh=0 dv=0
PairPos2: "'kern' Horizontal Kerning lookup 15-1" uniFEDF dx=-150 dy=0 dh=-150 dv=0 dx=0 dy=0 dh=0 dv=0
PairPos2: "'kern' Horizontal Kerning lookup 15-1" uniFB90 dx=-150 dy=0 dh=-150 dv=0 dx=0 dy=0 dh=0 dv=0
PairPos2: "'kern' Horizontal Kerning lookup 15-1" uni06A9 dx=-150 dy=0 dh=-150 dv=0 dx=0 dy=0 dh=0 dv=0
PairPos2: "'kern' Horizontal Kerning lookup 15-1" uni0649 dx=-100 dy=0 dh=-100 dv=0 dx=0 dy=0 dh=0 dv=0
PairPos2: "'kern' Horizontal Kerning lookup 15-1" uni0647 dx=-150 dy=0 dh=-150 dv=0 dx=0 dy=0 dh=0 dv=0
PairPos2: "'kern' Horizontal Kerning lookup 15-1" uniFEE7 dx=-150 dy=0 dh=-150 dv=0 dx=0 dy=0 dh=0 dv=0
PairPos2: "'kern' Horizontal Kerning lookup 15-1" uniFEE3 dx=-150 dy=0 dh=-150 dv=0 dx=0 dy=0 dh=0 dv=0
PairPos2: "'kern' Horizontal Kerning lookup 15-1" uni0645 dx=-150 dy=0 dh=-150 dv=0 dx=0 dy=0 dh=0 dv=0
PairPos2: "'kern' Horizontal Kerning lookup 15-1" uni0644 dx=-100 dy=0 dh=-100 dv=0 dx=0 dy=0 dh=0 dv=0
PairPos2: "'kern' Horizontal Kerning lookup 15-1" uniFEDB dx=-150 dy=0 dh=-150 dv=0 dx=0 dy=0 dh=0 dv=0
PairPos2: "'kern' Horizontal Kerning lookup 15-1" uniFED7 dx=-150 dy=0 dh=-150 dv=0 dx=0 dy=0 dh=0 dv=0
PairPos2: "'kern' Horizontal Kerning lookup 15-1" uni0642 dx=-100 dy=0 dh=-100 dv=0 dx=0 dy=0 dh=0 dv=0
PairPos2: "'kern' Horizontal Kerning lookup 15-1" uniFED3 dx=-150 dy=0 dh=-150 dv=0 dx=0 dy=0 dh=0 dv=0
PairPos2: "'kern' Horizontal Kerning lookup 15-1" uni0641 dx=-150 dy=0 dh=-150 dv=0 dx=0 dy=0 dh=0 dv=0
PairPos2: "'kern' Horizontal Kerning lookup 15-1" uniFECF dx=-150 dy=0 dh=-150 dv=0 dx=0 dy=0 dh=0 dv=0
PairPos2: "'kern' Horizontal Kerning lookup 15-1" uniFECB dx=-150 dy=0 dh=-150 dv=0 dx=0 dy=0 dh=0 dv=0
PairPos2: "'kern' Horizontal Kerning lookup 15-1" uniFEC7 dx=-150 dy=0 dh=-150 dv=0 dx=0 dy=0 dh=0 dv=0
PairPos2: "'kern' Horizontal Kerning lookup 15-1" uni0638 dx=-150 dy=0 dh=-150 dv=0 dx=0 dy=0 dh=0 dv=0
PairPos2: "'kern' Horizontal Kerning lookup 15-1" uniFEC3 dx=-150 dy=0 dh=-150 dv=0 dx=0 dy=0 dh=0 dv=0
PairPos2: "'kern' Horizontal Kerning lookup 15-1" uni0637 dx=-150 dy=0 dh=-150 dv=0 dx=0 dy=0 dh=0 dv=0
PairPos2: "'kern' Horizontal Kerning lookup 15-1" uniFEBF dx=-150 dy=0 dh=-150 dv=0 dx=0 dy=0 dh=0 dv=0
PairPos2: "'kern' Horizontal Kerning lookup 15-1" uni0636 dx=-150 dy=0 dh=-150 dv=0 dx=0 dy=0 dh=0 dv=0
PairPos2: "'kern' Horizontal Kerning lookup 15-1" uniFEBB dx=-150 dy=0 dh=-150 dv=0 dx=0 dy=0 dh=0 dv=0
PairPos2: "'kern' Horizontal Kerning lookup 15-1" uni0635 dx=-150 dy=0 dh=-150 dv=0 dx=0 dy=0 dh=0 dv=0
PairPos2: "'kern' Horizontal Kerning lookup 15-1" uniFEB7 dx=-150 dy=0 dh=-150 dv=0 dx=0 dy=0 dh=0 dv=0
PairPos2: "'kern' Horizontal Kerning lookup 15-1" uni0634 dx=-150 dy=0 dh=-150 dv=0 dx=0 dy=0 dh=0 dv=0
PairPos2: "'kern' Horizontal Kerning lookup 15-1" uniFEB3 dx=-150 dy=0 dh=-150 dv=0 dx=0 dy=0 dh=0 dv=0
PairPos2: "'kern' Horizontal Kerning lookup 15-1" uni0633 dx=-150 dy=0 dh=-150 dv=0 dx=0 dy=0 dh=0 dv=0
PairPos2: "'kern' Horizontal Kerning lookup 15-1" uni0630 dx=-150 dy=0 dh=-150 dv=0 dx=0 dy=0 dh=0 dv=0
PairPos2: "'kern' Horizontal Kerning lookup 15-1" uni062F dx=-150 dy=0 dh=-150 dv=0 dx=0 dy=0 dh=0 dv=0
PairPos2: "'kern' Horizontal Kerning lookup 15-1" uniFEA7 dx=-150 dy=0 dh=-150 dv=0 dx=0 dy=0 dh=0 dv=0
PairPos2: "'kern' Horizontal Kerning lookup 15-1" uniFEA3 dx=-150 dy=0 dh=-150 dv=0 dx=0 dy=0 dh=0 dv=0
PairPos2: "'kern' Horizontal Kerning lookup 15-1" uniFE9F dx=-150 dy=0 dh=-150 dv=0 dx=0 dy=0 dh=0 dv=0
PairPos2: "'kern' Horizontal Kerning lookup 15-1" uniFE9B dx=-150 dy=0 dh=-150 dv=0 dx=0 dy=0 dh=0 dv=0
PairPos2: "'kern' Horizontal Kerning lookup 15-1" uni062B dx=-150 dy=0 dh=-150 dv=0 dx=0 dy=0 dh=0 dv=0
PairPos2: "'kern' Horizontal Kerning lookup 15-1" uniFE97 dx=-150 dy=0 dh=-150 dv=0 dx=0 dy=0 dh=0 dv=0
PairPos2: "'kern' Horizontal Kerning lookup 15-1" uni062A dx=-150 dy=0 dh=-150 dv=0 dx=0 dy=0 dh=0 dv=0
PairPos2: "'kern' Horizontal Kerning lookup 15-1" uni0629 dx=-70 dy=0 dh=-70 dv=0 dx=0 dy=0 dh=0 dv=0
PairPos2: "'kern' Horizontal Kerning lookup 15-1" uniFE91 dx=-70 dy=0 dh=-70 dv=0 dx=0 dy=0 dh=0 dv=0
PairPos2: "'kern' Horizontal Kerning lookup 15-1" uni0628 dx=-150 dy=0 dh=-150 dv=0 dx=0 dy=0 dh=0 dv=0
PairPos2: "'kern' Horizontal Kerning lookup 15-1" uni0627 dx=-170 dy=0 dh=-170 dv=0 dx=0 dy=0 dh=0 dv=0
PairPos2: "'kern' Horizontal Kerning lookup 15-1" uni0622 dx=-170 dy=0 dh=-170 dv=0 dx=0 dy=0 dh=0 dv=0
PairPos2: "'kern' Horizontal Kerning lookup 15-1" uniFB94 dx=-150 dy=0 dh=-150 dv=0 dx=0 dy=0 dh=0 dv=0
PairPos2: "'kern' Horizontal Kerning lookup 15-1" afii57509 dx=-150 dy=0 dh=-150 dv=0 dx=0 dy=0 dh=0 dv=0
PairPos2: "'kern' Horizontal Kerning lookup 15-1" uniFB56 dx=-150 dy=0 dh=-150 dv=0 dx=0 dy=0 dh=0 dv=0
PairPos2: "'kern' Horizontal Kerning lookup 15-1" afii57506 dx=-150 dy=0 dh=-150 dv=0 dx=0 dy=0 dh=0 dv=0
Substitution2: "'fina' Terminal Forms in Arabic lookup 9 subtable" uniFEAE
EndChar

StartChar: uni0633
Encoding: 1587 1587 37
Width: 2248
VWidth: 2181
GlyphClass: 2
Flags: W
AnchorPoint: "Anchor-7" 344.5 -664.03 basechar 0
AnchorPoint: "Anchor-10" 536.51 846.5 basechar 0
LayerCount: 2
Fore
SplineSet
1863.95 171.216 m 24,0,1
 1762.39 179.595 1762.39 179.595 1730.43 377.466 c 2,2,-1
 1704.12 540.36 l 1,3,-1
 1584.32 540.36 l 1,4,-1
 1563.27 348.466 l 2,5,6
 1543.06 164.21 1543.06 164.21 1409.49 164.216 c 0,7,8
 1259.45 164.216 1259.45 164.216 1205.4 286.691 c 5,9,10
 1147.7 429.423 1147.7 429.423 1113 510.98 c 1,11,-1
 979.776 384.141 l 1,12,13
 1112.03 215.263 1112.03 215.263 1085.12 0 c 0,14,15
 1043.6 -332.128 1043.6 -332.128 656.923 -331.072 c 0,16,17
 294.15 -330.066 294.15 -330.066 250.783 -2.3623 c 0,18,19
 232.274 137.498 232.274 137.498 320.845 352.996 c 1,20,-1
 176.646 402.498 l 1,21,22
 128.946 301.524 128.946 301.524 107.469 190.831 c 0,23,24
 86.9453 85.0518 86.9453 85.0518 91.3916 9.85449 c 0,25,26
 121.254 -495.181 121.254 -495.181 662.25 -488.25 c 0,27,28
 1219.13 -481.115 1219.13 -481.115 1223.64 74.0156 c 1,29,30
 1263.41 -1.23359 1263.41 -1.23359 1432.11 1.54092 c 128,-1,31
 1600.8 4.31543 1600.8 4.31543 1646.7 144.133 c 1,32,33
 1712.97 -2.2041 1712.97 -2.2041 1874.95 0 c 16,34,35
 2031.27 2.0791 2031.27 2.0791 2105.77 106.953 c 0,36,37
 2186.34 219.065 2186.34 219.065 2170.77 444.953 c 0,38,39
 2161.16 577.539 2161.16 577.539 2121.76 690.776 c 1,40,-1
 1978.77 644.953 l 1,41,42
 2009.38 475.979 2009.38 475.979 2015.77 422.953 c 0,43,44
 2031.36 304.502 2031.36 304.502 1994.95 225 c 0,45,46
 1966.44 162.76 1966.44 162.76 1863.95 171.216 c 24,0,1
EndSplineSet
Substitution2: "'fina' Terminal Forms in Arabic lookup 9 subtable" uniFEB2
Substitution2: "'medi' Medial Forms in Arabic lookup 11 subtable" uniFEB4
Substitution2: "'init' Initial Forms in Arabic lookup 13 subtable" uniFEB3
EndChar

StartChar: uni0635
Encoding: 1589 1589 39
Width: 2409
VWidth: 2181
GlyphClass: 2
Flags: W
AnchorPoint: "Anchor-10" 432.84 846.5 basechar 0
AnchorPoint: "Anchor-7" 397.84 -701.5 basechar 0
LayerCount: 2
Fore
SplineSet
1437.34 180.009 m 5,0,-1
 1616.12 180.009 l 6,1,2
 1915.29 180.009 1915.29 180.009 2025.05 223 c 4,3,4
 2138.53 267.445 2138.53 267.445 2157.22 354.341 c 5,5,6
 2166.25 424.701 2166.25 424.701 2133.84 468.824 c 4,7,8
 2096.96 520.005 2096.96 520.005 2020.48 531.102 c 4,9,10
 1888.68 550.104 1888.68 550.104 1752.53 465.445 c 4,11,12
 1568.98 353.379 1568.98 353.379 1437.34 180.009 c 5,0,-1
1673.9 0 m 6,13,14
 1371.25 -1.65527 l 6,15,16
 1297.47 -2.13343 1297.47 -2.13343 1241.07 73.75 c 5,17,-1
 1223.64 74.0156 l 5,18,19
 1219.14 -481.116 1219.14 -481.116 662.25 -488.25 c 4,20,21
 121.254 -495.181 121.254 -495.181 91.3916 9.85449 c 4,22,23
 86.9453 85.0518 86.9453 85.0518 107.469 190.831 c 4,24,25
 128.946 301.524 128.946 301.524 176.646 402.498 c 5,26,-1
 320.845 352.996 l 5,27,28
 232.274 137.498 232.274 137.498 250.783 -2.3623 c 4,29,30
 294.15 -330.066 294.15 -330.066 656.923 -331.072 c 4,31,32
 1043.61 -332.128 1043.61 -332.128 1085.12 0 c 4,33,34
 1112.03 215.263 1112.03 215.263 979.776 384.141 c 5,35,-1
 1113 510.98 l 5,36,37
 1147.7 429.423 1147.7 429.423 1205.4 286.691 c 13,38,39
 1233.02 230.994 1233.02 230.994 1296.01 228.834 c 5,40,41
 1519.49 551.746 1519.49 551.746 1766.53 658.444 c 4,42,43
 2003.8 760.928 2003.8 760.928 2183.03 653.945 c 4,44,45
 2346.74 556.23 2346.74 556.23 2316 329 c 4,46,47
 2298.71 198.383 2298.71 198.383 2169.53 107.445 c 4,48,49
 2017.96 0 2017.96 0 1673.9 0 c 6,13,14
EndSplineSet
Substitution2: "'fina' Terminal Forms in Arabic lookup 9 subtable" uniFEBA
Substitution2: "'medi' Medial Forms in Arabic lookup 11 subtable" uniFEBC
Substitution2: "'init' Initial Forms in Arabic lookup 13 subtable" uniFEBB
EndChar

StartChar: uni0637
Encoding: 1591 1591 41
Width: 1488
VWidth: 2181
GlyphClass: 2
Flags: W
AnchorPoint: "Anchor-10" 285.72 1604.47 basechar 0
AnchorPoint: "Anchor-7" 707.72 -258 basechar 0
LayerCount: 2
Fore
SplineSet
518.39 180.009 m 5,0,-1
 697.165 180.009 l 6,1,2
 996.337 180.009 996.337 180.009 1106.1 223 c 4,3,4
 1219.57 267.444 1219.57 267.444 1238.27 354.341 c 5,5,6
 1247.29 424.701 1247.29 424.701 1214.89 468.824 c 4,7,8
 1178.01 520.005 1178.01 520.005 1101.53 531.102 c 4,9,10
 969.732 550.104 969.732 550.104 833.573 465.445 c 4,11,12
 650.031 353.379 650.031 353.379 518.39 180.009 c 5,0,-1
754.948 0 m 6,13,-1
 91.75 0 l 5,14,-1
 91.75 168.979 l 5,15,-1
 259.28 168.98 l 5,16,-1
 218.28 1407.89 l 5,17,-1
 377.16 1470.89 l 5,18,-1
 377.06 228.834 l 5,19,20
 600.537 551.746 600.537 551.746 847.573 658.444 c 4,21,22
 1084.85 760.927 1084.85 760.927 1264.08 653.945 c 4,23,24
 1427.79 556.23 1427.79 556.23 1397.05 329 c 4,25,26
 1379.76 198.383 1379.76 198.383 1250.57 107.445 c 4,27,28
 1099.01 0 1099.01 0 754.948 0 c 6,13,-1
EndSplineSet
Substitution2: "'fina' Terminal Forms in Arabic lookup 9 subtable" uniFEC2
Substitution2: "'medi' Medial Forms in Arabic lookup 11 subtable" uniFEC4
Substitution2: "'init' Initial Forms in Arabic lookup 13 subtable" uniFEC3
EndChar

StartChar: uni0639
Encoding: 1593 1593 43
Width: 1171
VWidth: 2181
GlyphClass: 2
Flags: W
AnchorPoint: "Anchor-10" 520.325 1410.51 basechar 0
AnchorPoint: "Anchor-7" 288.235 -729.76 basechar 0
LayerCount: 2
Fore
SplineSet
249.080300918 -135.163900457 m 0,0,1
 249 -283 249 -283 358.662030295 -370.79663302 c 0,2,3
 466 -458 466 -458 734.761503382 -458.520678561 c 0,4,5
 874 -459 874 -459 1032 -413 c 1,6,-1
 1080 -556 l 1,7,8
 898 -612 898 -612 739.819335938 -612.13671875 c 4,9,10
 332 -612 332 -612 186.438 -440.049 c 0,11,12
 89 -325 89 -325 89.2664866841 -144.451843581 c 0,13,14
 89 36 89 36 186.496043369 174.852331203 c 0,15,16
 284 313 284 313 422.417 374.269 c 1,17,18
 321 398 321 398 258.634457559 485.262377532 c 0,19,20
 196 572 196 572 196.150015249 679.71079221 c 0,21,22
 196 787 196 787 247.351595136 869.645554179 c 0,23,24
 299 952 299 952 404.899 989.215 c 0,25,26
 468 1011 468 1011 518.081198711 1011.22712191 c 0,27,28
 687 1011 687 1011 824.289 933.46 c 1,29,-1
 786.349 804.61 l 1,30,31
 661 865 661 865 555.022951049 865.428913821 c 0,32,33
 342 865 342 865 341.896520616 683.497821235 c 0,34,35
 342 549 342 549 494.417 485.269 c 0,36,37
 540 466 540 466 576.251222925 466.026452432 c 0,38,39
 612 466 612 466 684.624424893 475.534629324 c 0,40,41
 757 485 757 485 819.117595078 491.580023264 c 0,42,43
 881 498 881 498 943.04 507.393 c 1,44,-1
 943.04 356.731 l 1,45,46
 703 340 703 340 510.428 238.582 c 0,47,48
 249 100 249 100 249.080300918 -135.163900457 c 0,0,1
EndSplineSet
Substitution2: "'fina' Terminal Forms in Arabic lookup 9 subtable" uniFECA
Substitution2: "'medi' Medial Forms in Arabic lookup 11 subtable" uniFECC
Substitution2: "'init' Initial Forms in Arabic lookup 13 subtable" uniFECB
EndChar

StartChar: afii57440
Encoding: 1600 1600 45
Width: 642
VWidth: 2181
GlyphClass: 2
Flags: W
AnchorPoint: "Anchor-10" 321 1274.5 basechar 0
AnchorPoint: "Anchor-7" 321 -116.5 basechar 0
LayerCount: 2
Fore
SplineSet
-3.40039 0 m 1,0,-1
 -3.40039 168.979 l 1,1,-1
 645.4 168.979 l 1,2,-1
 645.4 0 l 1,3,-1
 -3.40039 0 l 1,0,-1
EndSplineSet
EndChar

StartChar: uni0643
Encoding: 1603 1603 48
Width: 1734
VWidth: 2181
GlyphClass: 2
Flags: W
AnchorPoint: "Anchor-10" 531 1394.5 basechar 0
AnchorPoint: "Anchor-7" 479 -223.5 basechar 0
LayerCount: 2
Fore
SplineSet
1044.77 1181.06 m 1,0,-1
 1044.77 1129.12 l 1,1,2
 975.084 1123.99 975.084 1123.99 936.614 1109.81 c 0,3,4
 839.33 1073.34 839.33 1073.34 839.33 1025.55 c 0,5,6
 839.33 989.411 839.33 989.411 858.004 965.402 c 0,7,8
 875.196 942.479 875.196 942.479 955.292 930.699 c 0,9,10
 1004.69 923.436 1004.69 923.436 1029.62 900.664 c 0,11,12
 1054.05 878.351 1054.05 878.351 1054.05 838.298 c 0,13,14
 1054.05 742.199 1054.05 742.199 964.839 691.751 c 0,15,16
 895.97 652.804 895.97 652.804 801.689 651.929 c 0,17,18
 741.751 651.929 741.751 651.929 689.148 660.715 c 1,19,-1
 689.148 719.167 l 1,20,21
 749.907 711.158 749.907 711.158 792.059 711.158 c 0,22,23
 866.867 711.158 866.867 711.158 915.098 730.146 c 0,24,25
 999.45 762.542 999.45 762.542 999.45 816.898 c 0,26,27
 999.45 877.435 999.45 877.435 901.515 893.393 c 0,28,29
 844.717 902.048 844.717 902.048 813.966 933.498 c 128,-1,30
 783.138 965.029 783.138 965.029 784.373 1021.9 c 0,31,32
 786.251 1097.81 786.251 1097.81 856.895 1133.61 c 0,33,34
 937.2 1174.24 937.2 1174.24 1044.77 1181.06 c 1,0,-1
803.766 169.815 m 0,35,36
 1009.18 163.795 1009.18 163.795 1131.14 176.459 c 0,37,38
 1494.12 214.145 1494.12 214.145 1511.61 381.05 c 2,39,-1
 1517.4 436.293 l 1,40,-1
 1517.43 436.553 l 1,41,-1
 1472.43 1408.96 l 5,42,-1
 1633.3 1470.96 l 5,43,-1
 1633.3 406.814 l 2,44,45
 1633.3 389.2 1633.3 389.2 1630.65 350.508 c 0,46,47
 1616.01 136.756 1616.01 136.756 1326.15 46.2764 c 0,48,49
 1177.82 -0.0244141 1177.82 -0.0244141 911.041 2 c 0,50,51
 570.476 4.81348 570.476 4.81348 451.23 38.2891 c 0,52,53
 131.265 129.436 131.265 129.436 96.9727 452.526 c 0,54,55
 84.7383 568.016 84.7383 568.016 131.248 698.266 c 1,56,-1
 284.864 668.049 l 1,57,58
 252.952 530.511 252.952 530.511 262.056 472.255 c 0,59,60
 295.846 248.081 295.846 248.081 523.828 193.139 c 0,61,62
 595.238 175.93 595.238 175.93 803.766 169.815 c 0,35,36
EndSplineSet
Substitution2: "'fina' Terminal Forms in Arabic lookup 9 subtable" uniFEDA
Substitution2: "'medi' Medial Forms in Arabic lookup 11 subtable" uniFEDC
Substitution2: "'init' Initial Forms in Arabic lookup 13 subtable" uniFEDB
EndChar

StartChar: uni0644
Encoding: 1604 1604 49
Width: 1258
VWidth: 2181
GlyphClass: 2
Flags: W
AnchorPoint: "Anchor-10" 473.01 1019.5 basechar 0
AnchorPoint: "Anchor-7" 370.15 -627.616 basechar 0
LayerCount: 2
Fore
SplineSet
1161.46 179.32 m 1,0,1
 1159.08 15.9977 1159.08 15.9977 1099.62 -125.075 c 0,2,3
 990.088 -384.934 990.088 -384.934 621 -400 c 0,4,5
 337.164 -411.681 337.164 -411.681 199.631 -266 c 0,6,7
 73.7549 -134.405 73.7549 -134.405 77.3721 91.0547 c 0,8,9
 80.668 312.371 80.668 312.371 164.749 479.371 c 1,10,-1
 318.749 441.371 l 1,11,12
 224.413 251.849 224.413 251.849 229.053 94.1836 c 0,13,14
 233.656 -79.0498 233.656 -79.0498 328.631 -162 c 0,15,16
 441.234 -259.892 441.234 -259.892 641.419 -248.949 c 0,17,18
 795.838 -241.184 795.838 -241.184 908 -162 c 0,19,20
 1044.39 -65.7024 1044.39 -65.7024 1042.54 206.819 c 2,21,-1
 1040.91 446.32 l 2,22,-1
 1009.91 1405.03 l 1,23,-1
 1166.79 1470.03 l 5,24,-1
 1166.79 446.32 l 2,25,26
 1166.79 252.693 1166.79 252.693 1161.46 179.32 c 1,0,1
EndSplineSet
Substitution2: "'fina' Terminal Forms in Arabic lookup 9 subtable" uniFEDE
Substitution2: "'medi' Medial Forms in Arabic lookup 11 subtable" uniFEE0
Substitution2: "'init' Initial Forms in Arabic lookup 13 subtable" uniFEDF
EndChar

StartChar: uni0645
Encoding: 1605 1605 50
Width: 1062
VWidth: 2181
GlyphClass: 2
Flags: W
AnchorPoint: "Anchor-10" 544.5 1006.31 basechar 0
AnchorPoint: "Anchor-7" 131.631 -729.952 basechar 0
LayerCount: 2
Fore
SplineSet
500.759 309.006 m 0,0,1
 620.895 303 620.895 303 630 302.999 c 0,2,3
 754.691 303 754.691 303 801.34 316.183 c 0,4,5
 830.327 324.249 830.327 324.249 851.993 371.271 c 0,6,7
 910.532 499.176 910.532 499.176 637.303 617.836 c 0,8,9
 528.894 665.205 528.894 665.205 464.313 586.632 c 2,10,-1
 464.196 586.489 l 1,11,12
 408.043 506.976 408.043 506.976 424.019 324.565 c 2,13,-1
 424.161 322.938 l 1,14,-1
 425.237 321.707 l 2,15,16
 433.635 312.105 433.635 312.105 500.759 309.006 c 0,0,1
376 154 m 0,17,18
 245.538 154 245.538 154 207.078 78.7461 c 0,19,20
 173.583 12.8717 173.583 12.8717 183.078 -121.254 c 2,21,-1
 215.078 -573.254 l 1,22,-1
 66 -658 l 1,23,-1
 66 -75 l 2,24,25
 66 112.26 66 112.26 140.934 206.914 c 0,26,27
 190.739 270.392 190.739 270.392 269.852 284.073 c 2,28,-1
 274.212 284.827 l 1,29,-1
 273.994 289.247 l 2,30,31
 259.302 587.117 259.302 587.117 376.553 697.77 c 0,32,33
 522.286 836.466 522.286 836.466 706.806 748.244 c 24,34,35
 1049.02 585.053 1049.02 585.053 997.386 385 c 0,36,37
 940.262 164.608 940.262 164.608 889.799 168.497 c 1,38,39
 826.794 143.062 826.794 143.062 657.168 147.997 c 0,40,41
 478.117 154 478.117 154 376 154 c 0,17,18
EndSplineSet
Substitution2: "'init' Initial Forms in Arabic lookup 13 subtable" uniFEE3
Substitution2: "'medi' Medial Forms in Arabic lookup 11 subtable" uniFEE4
Substitution2: "'fina' Terminal Forms in Arabic lookup 9 subtable" uniFEE2
EndChar

StartChar: uni0647
Encoding: 1607 1607 52
Width: 925
VWidth: 2181
GlyphClass: 2
Flags: W
AnchorPoint: "Anchor-10" 419.924 1097.58 basechar 0
AnchorPoint: "Anchor-7" 332.864 -181.56 basechar 0
LayerCount: 2
Fore
SplineSet
267.952 365.033 m 0,0,1
 240.905 290.105 240.905 290.105 266.486 242.395 c 0,2,3
 293.418 192.164 293.418 192.164 369.174 161.341 c 0,4,5
 448.84 129.302 448.84 129.302 552.344 152.239 c 0,6,7
 635.869 170.021 635.869 170.021 657.279 243.817 c 0,8,9
 674.104 301.806 674.104 301.806 639.956 397.045 c 2,10,-1
 639.901 397.197 l 1,11,12
 573.231 532.073 573.231 532.073 456.305 627.509 c 1,13,14
 306.497 477.354 306.497 477.354 267.952 365.033 c 0,0,1
163.312 503.273 m 24,15,16
 235.312 620.394 235.312 620.394 340.026 725.67 c 1,17,-1
 302.419 758.007 l 1,18,-1
 404.417 867.113 l 1,19,20
 680.777 667.43 680.777 667.43 771.902 472.861 c 0,21,22
 909.782 180.977 909.782 180.977 692.809 49.458 c 0,23,24
 614.796 2.1709 614.796 2.1709 468.301 3.53027 c 0,25,26
 330.438 4.82715 330.438 4.82715 255.768 40.5059 c 0,27,28
 120.207 105.396 120.207 105.396 97.3262 226.047 c 0,29,30
 72.7031 355.883 72.7031 355.883 163.312 503.273 c 24,15,16
EndSplineSet
Substitution2: "'fina' Terminal Forms in Arabic lookup 9 subtable" uniFEEA
Substitution2: "'medi' Medial Forms in Arabic lookup 11 subtable" uniFEEC
Substitution2: "'init' Initial Forms in Arabic lookup 13 subtable" uniFEEB
EndChar

StartChar: uni0648
Encoding: 1608 1608 53
Width: 883
VWidth: 2181
GlyphClass: 2
Flags: W
AnchorPoint: "Anchor-10" 412.282 1032.17 basechar 0
AnchorPoint: "Anchor-7" 577.191 -589.443 basechar 0
LayerCount: 2
Fore
SplineSet
467.055 516.782 m 0,0,1
 337.804 513.161 337.804 513.161 293.921 341.953 c 0,2,3
 248.977 168.458 248.977 168.458 402.021 141.953 c 0,4,5
 551.078 115.953 551.078 115.953 658.188 197.749 c 1,6,7
 666.213 223.028 666.213 223.028 647.425 323.581 c 0,8,9
 609.684 520.838 609.684 520.838 467.055 516.782 c 0,0,1
782.994 -25.6064 m 0,10,11
 758.044 -171.295 758.044 -171.295 673.993 -279.606 c 4,12,13
 499.939 -503.909 499.939 -503.909 147.979 -507 c 1,14,-1
 79.9785 -381 l 1,15,16
 605.574 -349.607 605.574 -349.607 642.729 47 c 1,17,18
 585.53 -5.52246 585.53 -5.52246 441.987 -8.25098 c 0,19,20
 269.016 -11.2502 269.016 -11.2502 199.05 86 c 0,21,22
 136.572 174.012 136.572 174.012 152.299 289.042 c 0,23,24
 177.094 481.457 177.094 481.457 266.208 573.749 c 0,25,26
 388.294 698.577 388.294 698.577 539.748 665.749 c 0,27,28
 657.061 640.959 657.061 640.959 719.484 525.823 c 0,29,30
 783.183 406.168 783.183 406.168 797.085 255.849 c 0,31,32
 808.513 126.516 808.513 126.516 782.994 -25.6064 c 0,10,11
EndSplineSet
Substitution2: "'fina' Terminal Forms in Arabic lookup 9 subtable" uniFEEE
EndChar

StartChar: uni0649
Encoding: 1609 1609 54
Width: 1422
VWidth: 2181
GlyphClass: 2
Flags: W
AnchorPoint: "Anchor-10" 351.722 936.334 basechar 0
AnchorPoint: "Anchor-7" 295.423 -495.472 basechar 0
LayerCount: 2
Fore
SplineSet
1007.80273438 217.6953125 m 5,0,-1
 1063.14746094 218.79296875 l 5,1,2
 1170 219 1170 219 1227.47265625 195.282226562 c 4,3,4
 1325 156 1325 156 1324.6953125 48.0390625 c 4,5,6
 1325 -96 1325 -96 1187.13476562 -223.90234375 c 4,7,8
 1075 -328 1075 -328 840 -364 c 4,9,10
 768 -375 768 -375 718.610351562 -374.845703125 c 4,11,12
 508 -375 508 -375 364 -313 c 0,13,14
 92 -197 92 -197 91.806640625 114.9609375 c 0,15,16
 92 291 92 291 170.15625 479.8359375 c 0,17,18
 214 585 214 585 278.994140625 677 c 1,19,-1
 412.994140625 613.892578125 l 1,20,21
 326 475 326 475 291.432617188 343.823242188 c 0,22,23
 257 213 257 213 257.127929688 132.111328125 c 0,24,25
 257 52 257 52 292.279296875 -19 c 0,26,27
 395 -224 395 -224 723.172851562 -223.465820312 c 4,28,29
 890 -223 890 -223 1005.18554688 -173.232421875 c 4,30,31
 1192 -92 1192 -92 1199.4296875 0.5849609375 c 4,32,33
 1202 33 1202 33 1182.42773438 53.5498046875 c 4,34,35
 1162 74 1162 74 1119.06542969 74.25390625 c 5,36,-1
 1020.91113281 68.7724609375 l 5,37,38
 784 69 784 69 751.865234375 219.72265625 c 4,39,40
 748 238 748 238 748.376953125 269.578125 c 4,41,42
 748 301 748 301 769.809570312 365.75390625 c 4,43,44
 817 506 817 506 955.169921875 623.360351562 c 4,45,46
 1103 749 1103 749 1238.96875 750.505859375 c 4,47,48
 1284 751 1284 751 1320 742 c 5,49,-1
 1265 556 l 6,50,51
 1263.28125 556.00390625 l 4,52,53
 1080 556 1080 556 944.97265625 394.934570312 c 4,54,55
 894 334 894 334 893.928710938 290.302734375 c 4,56,57
 894 218 894 218 1007.80273438 217.6953125 c 5,0,-1
EndSplineSet
Substitution2: "'fina' Terminal Forms in Arabic lookup 9 subtable" uniFEF0
Substitution2: "'medi' Medial Forms in Arabic lookup 11 subtable" uniFBE9
Substitution2: "'init' Initial Forms in Arabic lookup 13 subtable" uniFBE8
EndChar

StartChar: uni064B
Encoding: 1611 1611 56
Width: 0
VWidth: 2186
GlyphClass: 4
Flags: W
AnchorPoint: "Anchor-10" 547.84 1041.5 mark 0
AnchorPoint: "Anchor-9" 547.84 1041.5 mark 0
AnchorPoint: "Anchor-1" 547.84 1576.5 basemark 0
AnchorPoint: "Anchor-1" 547.84 1041.5 mark 0
LayerCount: 2
Fore
SplineSet
269.4 977.41 m 5,0,-1
 269.4 1104.48 l 5,1,-1
 827.28 1332.79 l 5,2,-1
 827.28 1205.72 l 5,3,-1
 269.4 977.41 l 5,0,-1
269.4 1234.21 m 5,4,-1
 269.4 1361.28 l 5,5,-1
 827.28 1589.59 l 5,6,-1
 827.28 1462.52 l 5,7,-1
 269.4 1234.21 l 5,4,-1
EndSplineSet
EndChar

StartChar: uni064C
Encoding: 1612 1612 57
Width: 0
VWidth: 2186
GlyphClass: 4
Flags: W
AnchorPoint: "Anchor-10" 554.386 1155.44 mark 0
AnchorPoint: "Anchor-9" 554.386 1155.44 mark 0
AnchorPoint: "Anchor-1" 546.386 1810.94 basemark 0
AnchorPoint: "Anchor-1" 554.386 1155.44 mark 0
LayerCount: 2
Fore
SplineSet
567.219 1298.72 m 0,0,1
 608.391 1338.78 608.391 1338.78 631.845 1385.69 c 2,2,-1
 639.364 1400.73 l 1,3,-1
 622.913 1404.22 l 2,4,5
 589.558 1411.29 589.558 1411.29 566.532 1424.31 c 0,6,7
 457.736 1481.73 457.736 1481.73 457.736 1574.47 c 0,8,9
 457.736 1661.08 457.736 1661.08 526.365 1712.8 c 0,10,11
 552.86 1732.67 552.86 1732.67 615.937 1732.67 c 0,12,13
 688.759 1732.67 688.759 1732.67 727.738 1694.66 c 0,14,15
 782.696 1640.71 782.696 1640.71 782.696 1561.63 c 0,16,17
 782.696 1521.9 782.696 1521.9 770.46 1483.15 c 2,18,-1
 765.402 1467.14 l 1,19,-1
 782.175 1466.26 l 2,20,21
 802.247 1465.2 802.247 1465.2 817.806 1465.17 c 0,22,23
 831.205 1464.45 831.205 1464.45 845.826 1464.2 c 1,24,-1
 845.826 1372.44 l 1,25,26
 806.232 1372.69 806.232 1372.69 788.381 1374.48 c 2,27,-1
 723.27 1380.74 l 1,28,-1
 719.537 1371.99 l 2,29,30
 692.652 1308.91 692.652 1308.91 614.12 1227.24 c 1,31,32
 527.043 1139.14 527.043 1139.14 431.896 1139.14 c 0,33,34
 319.02 1139.14 319.02 1139.14 262.205 1295.39 c 0,35,36
 247.89 1334.51 247.89 1334.51 246.994 1442.7 c 1,37,-1
 317.299 1442.7 l 1,38,39
 318.143 1347.11 318.143 1347.11 331.307 1318.59 c 0,40,41
 372.26 1230.84 372.26 1230.84 431.896 1230.84 c 0,42,43
 497.076 1230.84 497.076 1230.84 567.219 1298.72 c 0,0,1
669.292 1482.64 m 1,44,-1
 680.316 1508.36 l 2,45,46
 690.996 1533.28 690.996 1533.28 690.996 1561.63 c 0,47,48
 690.996 1604.15 690.996 1604.15 668.07 1623.02 c 0,49,50
 646.28 1640.97 646.28 1640.97 620.217 1640.97 c 0,51,52
 591.787 1640.97 591.787 1640.97 575.875 1628.63 c 0,53,54
 551.576 1610.34 551.576 1610.34 551.576 1574.47 c 0,55,56
 551.576 1526.08 551.576 1526.08 607.898 1503.55 c 0,57,58
 629.803 1494.79 629.803 1494.79 658.123 1486.08 c 2,59,-1
 669.292 1482.64 l 1,44,-1
EndSplineSet
EndChar

StartChar: uni064D
Encoding: 1613 1613 58
Width: 0
VWidth: 2186
GlyphClass: 4
Flags: W
AnchorPoint: "Anchor-7" 531.84 75.5 mark 0
AnchorPoint: "Anchor-6" 531.84 75.5 mark 0
AnchorPoint: "Anchor-0" 547.84 -439.5 basemark 0
AnchorPoint: "Anchor-0" 531.84 75.5 mark 0
LayerCount: 2
Fore
SplineSet
270.96 -512.18 m 5,0,-1
 270.96 -385.109 l 5,1,-1
 828.84 -156.8 l 5,2,-1
 828.84 -283.87 l 5,3,-1
 270.96 -512.18 l 5,0,-1
270.96 -255.38 m 5,4,-1
 270.96 -128.31 l 5,5,-1
 828.84 100 l 5,6,-1
 828.84 -27.0703 l 5,7,-1
 270.96 -255.38 l 5,4,-1
EndSplineSet
EndChar

StartChar: uni064E
Encoding: 1614 1614 59
Width: 0
VWidth: 2186
GlyphClass: 4
Flags: W
AnchorPoint: "Anchor-10" 517.84 1279.5 mark 0
AnchorPoint: "Anchor-9" 517.84 1279.5 mark 0
AnchorPoint: "Anchor-1" 517.84 1600.5 basemark 0
AnchorPoint: "Anchor-1" 517.84 1279.5 mark 0
LayerCount: 2
Fore
SplineSet
237.4 1237.41 m 1,0,-1
 237.4 1364.48 l 1,1,-1
 795.28 1592.79 l 5,2,-1
 795.28 1465.72 l 1,3,-1
 237.4 1237.41 l 1,0,-1
EndSplineSet
EndChar

StartChar: uni064F
Encoding: 1615 1615 60
Width: 0
VWidth: 2186
GlyphClass: 4
Flags: W
AnchorPoint: "Anchor-10" 531.84 1205.5 mark 0
AnchorPoint: "Anchor-9" 531.84 1205.5 mark 0
AnchorPoint: "Anchor-1" 547.84 1825 basemark 0
AnchorPoint: "Anchor-1" 531.84 1205.5 mark 0
LayerCount: 2
Fore
SplineSet
594.529 1426.81 m 6,0,1
 586.598 1428.57 586.598 1428.57 567.734 1438.5 c 4,2,3
 459.19 1494.78 459.19 1494.78 459.19 1588.53 c 4,4,5
 459.19 1675.14 459.19 1675.14 527.819 1726.86 c 4,6,7
 554.314 1746.73 554.314 1746.73 617.39 1746.73 c 4,8,9
 690.212 1746.73 690.212 1746.73 729.192 1708.72 c 4,10,11
 784.15 1654.77 784.15 1654.77 784.15 1575.69 c 4,12,13
 784.15 1543.43 784.15 1543.43 769.757 1497.16 c 6,14,-1
 764.821 1481.3 l 5,15,-1
 781.407 1480.32 l 6,16,17
 799.81 1479.24 799.81 1479.24 819.259 1478.7 c 4,18,19
 832.229 1478.34 832.229 1478.34 847.28 1478.21 c 5,20,-1
 847.28 1386.53 l 5,21,22
 817.029 1386.85 817.029 1386.85 789.455 1388.57 c 4,23,24
 757.6 1390.7 757.6 1390.7 727.915 1393.88 c 6,25,-1
 720.312 1394.69 l 5,26,-1
 715.905 1388.44 l 6,27,28
 671.45 1325.37 671.45 1325.37 599.88 1281.81 c 4,29,30
 398.294 1157.85 398.294 1157.85 248.4 1152.36 c 5,31,-1
 248.4 1244.01 l 5,32,33
 408.671 1248.65 408.671 1248.65 554.781 1363.22 c 4,34,35
 580.142 1383.07 580.142 1383.07 601.135 1405.16 c 6,36,-1
 616.962 1421.83 l 5,37,-1
 594.529 1426.81 l 6,0,1
670.746 1496.7 m 5,38,-1
 681.77 1522.42 l 6,39,40
 692.45 1547.34 692.45 1547.34 692.45 1575.69 c 4,41,42
 692.45 1618.21 692.45 1618.21 669.524 1637.08 c 4,43,44
 647.734 1655.03 647.734 1655.03 621.67 1655.03 c 4,45,46
 593.241 1655.03 593.241 1655.03 577.329 1642.69 c 4,47,48
 553.03 1624.4 553.03 1624.4 553.03 1588.53 c 4,49,50
 553.03 1540.14 553.03 1540.14 609.352 1517.61 c 4,51,52
 631.256 1508.85 631.256 1508.85 659.577 1500.14 c 6,53,-1
 670.746 1496.7 l 5,38,-1
EndSplineSet
EndChar

StartChar: uni0650
Encoding: 1616 1616 61
Width: 0
VWidth: 2186
GlyphClass: 4
Flags: W
AnchorPoint: "Anchor-7" 467.84 -12.5 mark 0
AnchorPoint: "Anchor-6" 467.84 -12.5 mark 0
AnchorPoint: "Anchor-0" 556.84 -311.5 basemark 0
AnchorPoint: "Anchor-0" 467.84 -12.5 mark 0
LayerCount: 2
Fore
SplineSet
267.96 -356.836 m 1,0,-1
 267.96 -229.766 l 1,1,-1
 825.84 -1.45605 l 1,2,-1
 825.84 -128.526 l 1,3,-1
 267.96 -356.836 l 1,0,-1
EndSplineSet
EndChar

StartChar: uni0651
Encoding: 1617 1617 62
Width: 0
VWidth: 2186
GlyphClass: 4
Flags: W
AnchorPoint: "Anchor-10" 547.84 1316.5 mark 0
AnchorPoint: "Anchor-9" 547.84 1316.5 mark 0
AnchorPoint: "Anchor-1" 535.84 1818.5 basemark 0
AnchorPoint: "Anchor-1" 547.84 1316.5 mark 0
LayerCount: 2
Fore
SplineSet
398.84 1305.99 m 4,0,1
 306.498 1302.93 306.498 1302.93 261.261 1355.91 c 4,2,3
 227 1396.24 227 1396.24 227 1486.07 c 4,4,5
 227 1527.41 227 1527.41 242.222 1626.56 c 5,6,-1
 320.73 1626.56 l 5,7,8
 307.674 1502.98 307.674 1502.98 307.674 1479 c 4,9,10
 307.674 1394.91 307.674 1394.91 398.84 1393.09 c 4,11,12
 497.128 1391.16 497.128 1391.16 506.266 1518.54 c 4,13,14
 508.184 1545.08 508.184 1545.08 508.4 1680.83 c 5,15,-1
 589.06 1680.83 l 5,16,17
 588.775 1624.49 588.775 1624.49 589.34 1597.53 c 4,18,19
 594.84 1448.99 594.84 1448.99 700.84 1452.09 c 4,20,21
 790.089 1453.28 790.089 1453.28 783.674 1604 c 4,22,23
 779.218 1710.94 779.218 1710.94 774.521 1770.1 c 5,24,-1
 857.705 1770.1 l 5,25,26
 868.68 1694.87 868.68 1694.87 868.68 1580.87 c 4,27,28
 868.68 1504.29 868.68 1504.29 843.84 1449.99 c 4,29,30
 804.992 1364.89 804.992 1364.89 713.84 1360.49 c 4,31,32
 611.451 1355.49 611.451 1355.49 554.84 1431.09 c 5,33,34
 519.173 1310.01 519.173 1310.01 398.84 1305.99 c 4,0,1
EndSplineSet
EndChar

StartChar: uni0652
Encoding: 1618 1618 63
Width: 0
VWidth: 2186
GlyphClass: 4
Flags: W
AnchorPoint: "Anchor-10" 565.84 1128.5 mark 0
AnchorPoint: "Anchor-9" 565.84 1128.5 mark 0
AnchorPoint: "Anchor-1" 551.84 1702 basemark 0
AnchorPoint: "Anchor-1" 565.84 1128.5 mark 0
LayerCount: 2
Fore
SplineSet
674.569 1383.62 m 0,0,1
 674.569 1428.15 674.569 1428.15 643.439 1459.28 c 128,-1,2
 612.312 1490.41 612.312 1490.41 567.126 1490.41 c 0,3,4
 521.285 1490.41 521.285 1490.41 490.485 1459.61 c 128,-1,5
 459.685 1428.81 459.685 1428.81 459.685 1383.62 c 0,6,7
 459.685 1337.78 459.685 1337.78 490.485 1306.98 c 128,-1,8
 521.285 1276.18 521.285 1276.18 567.126 1276.18 c 0,9,10
 612.314 1276.18 612.314 1276.18 643.439 1307.31 c 128,-1,11
 674.569 1338.44 674.569 1338.44 674.569 1383.62 c 0,0,1
750.396 1383.73 m 128,-1,13
 750.396 1306.88 750.396 1306.88 697.316 1253.46 c 128,-1,14
 644.259 1200.07 644.259 1200.07 567.436 1200.07 c 128,-1,15
 490.613 1200.07 490.613 1200.07 437.557 1253.46 c 128,-1,16
 384.476 1306.88 384.476 1306.88 384.476 1383.73 c 128,-1,17
 384.476 1460.56 384.476 1460.56 437.537 1513.63 c 128,-1,18
 490.596 1566.69 490.596 1566.69 567.436 1566.69 c 128,-1,19
 644.276 1566.69 644.276 1566.69 697.335 1513.63 c 128,-1,12
 750.396 1460.56 750.396 1460.56 750.396 1383.73 c 128,-1,13
EndSplineSet
EndChar

StartChar: uni0653
Encoding: 1619 1619 64
Width: 0
VWidth: 2186
GlyphClass: 4
Flags: W
AnchorPoint: "Anchor-10" 442.84 1276.52 mark 0
AnchorPoint: "Anchor-9" 442.84 1276.52 mark 0
AnchorPoint: "Anchor-1" 442.84 1600.5 basemark 0
AnchorPoint: "Anchor-1" 442.84 1276.52 mark 0
LayerCount: 2
Fore
SplineSet
149.700130659 1214.09173557 m 5,0,-1
 47.6181159186 1271.05054089 l 5,1,2
 148 1451 148 1451 345 1451 c 6,3,-1
 555 1451 l 6,4,5
 677 1451 677 1451 725 1498 c 5,6,-1
 765 1390 l 5,7,8
 717 1332 717 1332 559 1332 c 6,9,-1
 344 1332 l 6,10,11
 208 1332 208 1332 149.700130659 1214.09173557 c 5,0,-1
EndSplineSet
EndChar

StartChar: uni0657
Encoding: 1623 1623 67
Width: 0
VWidth: 2186
GlyphClass: 4
Flags: W
AnchorPoint: "Anchor-10" 547.84 1279.5 mark 0
AnchorPoint: "Anchor-9" 547.84 1279.5 mark 0
AnchorPoint: "Anchor-1" 547.84 1975 basemark 0
AnchorPoint: "Anchor-1" 547.84 1279.5 mark 0
LayerCount: 2
Fore
SplineSet
501.148 1675.55 m 2,0,1
 509.083 1673.79 509.083 1673.79 527.945 1663.86 c 0,2,3
 636.49 1607.58 636.49 1607.58 636.49 1513.83 c 0,4,5
 636.49 1427.22 636.49 1427.22 567.86 1375.5 c 0,6,7
 541.366 1355.63 541.366 1355.63 478.29 1355.63 c 0,8,9
 405.468 1355.63 405.468 1355.63 366.487 1393.64 c 0,10,11
 311.53 1447.59 311.53 1447.59 311.53 1526.67 c 0,12,13
 311.53 1558.94 311.53 1558.94 325.923 1605.2 c 2,14,-1
 330.858 1621.06 l 1,15,-1
 314.272 1622.04 l 2,16,17
 295.871 1623.12 295.871 1623.12 276.421 1623.66 c 0,18,19
 263.452 1624.02 263.452 1624.02 248.4 1624.15 c 1,20,-1
 248.4 1715.83 l 1,21,22
 278.631 1715.51 278.631 1715.51 306.226 1713.79 c 0,23,24
 338.082 1711.66 338.082 1711.66 367.766 1708.48 c 2,25,-1
 375.369 1707.67 l 1,26,-1
 379.775 1713.92 l 2,27,28
 424.231 1776.99 424.231 1776.99 495.801 1820.55 c 0,29,30
 697.387 1944.51 697.387 1944.51 847.28 1950 c 1,31,-1
 847.28 1858.35 l 1,32,33
 687.009 1853.71 687.009 1853.71 540.898 1739.14 c 0,34,35
 515.54 1719.29 515.54 1719.29 494.545 1697.2 c 2,36,-1
 478.72 1680.54 l 1,37,-1
 501.148 1675.55 l 2,0,1
424.935 1605.66 m 1,38,-1
 413.911 1579.94 l 2,39,40
 403.23 1555.02 403.23 1555.02 403.23 1526.67 c 0,41,42
 403.23 1484.16 403.23 1484.16 426.155 1465.28 c 0,43,44
 447.946 1447.33 447.946 1447.33 474.01 1447.33 c 0,45,46
 502.438 1447.33 502.438 1447.33 518.352 1459.67 c 0,47,48
 542.65 1477.96 542.65 1477.96 542.65 1513.83 c 0,49,50
 542.65 1562.22 542.65 1562.22 486.328 1584.75 c 0,51,52
 464.442 1593.51 464.442 1593.51 436.104 1602.22 c 2,53,-1
 424.935 1605.66 l 1,38,-1
EndSplineSet
EndChar

StartChar: uni065A
Encoding: 1626 1626 68
Width: 1095
VWidth: 2186
GlyphClass: 4
Flags: W
AnchorPoint: "Anchor-10" 547.84 1279.5 mark 0
AnchorPoint: "Anchor-9" 547.84 1279.5 mark 0
AnchorPoint: "Anchor-1" 545.7 1761 basemark 0
AnchorPoint: "Anchor-1" 547.84 1279.5 mark 0
LayerCount: 2
Fore
SplineSet
476.032 1358.84 m 1,0,-1
 282.934 1681.66 l 1,1,-1
 401.783 1681.66 l 1,2,-1
 547.84 1462.57 l 1,3,-1
 693.896 1681.66 l 1,4,-1
 812.746 1681.66 l 1,5,-1
 619.646 1358.84 l 1,6,-1
 476.032 1358.84 l 1,0,-1
EndSplineSet
EndChar

StartChar: afii57392
Encoding: 1632 1632 69
Width: 1177
VWidth: 2181
GlyphClass: 2
Flags: W
LayerCount: 2
Fore
SplineSet
497.74 603.61 m 128,-1,1
 497.74 561.913 497.74 561.913 527.621 532.031 c 128,-1,2
 557.503 502.15 557.503 502.15 599.2 502.15 c 128,-1,3
 640.896 502.15 640.896 502.15 670.777 532.031 c 128,-1,4
 700.66 561.914 700.66 561.914 700.66 603.61 c 128,-1,5
 700.66 645.305 700.66 645.305 670.777 675.188 c 128,-1,6
 640.896 705.07 640.896 705.07 599.2 705.07 c 128,-1,7
 557.504 705.07 557.504 705.07 527.621 675.188 c 128,-1,0
 497.74 645.306 497.74 645.306 497.74 603.61 c 128,-1,1
357.267 600.562 m 128,-1,9
 357.267 702.314 357.267 702.314 429.102 774.568 c 128,-1,10
 500.889 846.775 500.889 846.775 601.947 846.775 c 128,-1,11
 703.01 846.775 703.01 846.775 774.793 774.568 c 128,-1,12
 846.626 702.313 846.626 702.313 846.626 600.562 c 128,-1,13
 846.626 498.803 846.626 498.803 774.793 426.557 c 128,-1,14
 703.001 354.351 703.001 354.351 601.947 354.351 c 128,-1,15
 500.888 354.351 500.888 354.351 429.102 426.557 c 128,-1,8
 357.267 498.808 357.267 498.808 357.267 600.562 c 128,-1,9
EndSplineSet
EndChar

StartChar: afii57393
Encoding: 1633 1633 70
Width: 1177
VWidth: 2181
GlyphClass: 2
Flags: W
LayerCount: 2
Fore
SplineSet
730.99 8.5 m 5,0,-1
 574.386 8.5 l 5,1,2
 573.56 443.91 573.56 443.91 530.803 709.65 c 4,3,4
 484.243 1020.09 484.243 1020.09 355.803 1295.65 c 5,5,-1
 495.143 1363.5 l 5,6,7
 603.328 1184.84 603.328 1184.84 678.803 837.65 c 4,8,9
 728.802 607.65 728.802 607.65 730.99 8.5 c 5,0,-1
EndSplineSet
EndChar

StartChar: afii57394
Encoding: 1634 1634 71
Width: 1177
GlyphClass: 2
Flags: W
LayerCount: 2
Fore
SplineSet
288.771 1363.5 m 1,0,1
 330.504 1261.02 330.504 1261.02 362.652 1198.65 c 4,2,3
 438.431 1052.71 438.431 1052.71 579.175 1037.5 c 0,4,5
 793.38 1014.35 793.38 1014.35 854.652 1156.65 c 0,6,7
 883.48 1223.6 883.48 1223.6 903.133 1363.35 c 1,8,-1
 1051.13 1327.35 l 1,9,10
 1050.39 1272.16 1050.39 1272.16 1033.65 1192.65 c 0,11,12
 968.914 886.372 968.914 886.372 674.652 870.65 c 0,13,14
 544.708 864.079 544.708 864.079 447.652 895.65 c 1,15,16
 483.644 789.581 483.644 789.581 507.175 574.5 c 0,17,18
 515.243 500.755 515.243 500.755 521.27 8.5 c 1,19,-1
 364.664 8.5 l 1,20,21
 363.89 446.489 363.89 446.489 324.837 683.659 c 0,22,23
 271.977 1004.68 271.977 1004.68 150.175 1266.5 c 1,24,-1
 288.771 1363.5 l 1,0,1
EndSplineSet
EndChar

StartChar: afii57395
Encoding: 1635 1635 72
Width: 1177
GlyphClass: 2
Flags: W
LayerCount: 2
Fore
SplineSet
243.771 1363.5 m 1,0,1
 309.924 1208.23 309.924 1208.23 313.772 1201.54 c 0,2,3
 396.044 1048.83 396.044 1048.83 483 1040.75 c 0,4,5
 568.171 1032.65 568.171 1032.65 606.171 1082.65 c 0,6,7
 650.297 1141.43 650.297 1141.43 650.297 1318.75 c 1,8,-1
 766.4 1317.88 l 1,9,10
 768.548 1150.83 768.548 1150.83 781.692 1117 c 0,11,12
 813.686 1040.65 813.686 1040.65 882.691 1040.75 c 1,13,14
 1014.23 1042.68 1014.23 1042.68 990.69 1355.65 c 1,15,-1
 1118.69 1334.65 l 1,16,17
 1148.09 882.65 1148.09 882.65 884.4 889.046 c 4,18,19
 773.315 891.977 773.315 891.977 713.4 983.876 c 1,20,21
 661.296 894.912 661.296 894.912 552 887.75 c 0,22,23
 479.841 883.119 479.841 883.119 400.008 911.271 c 1,24,25
 434.147 805.209 434.147 805.209 470.4 476.876 c 0,26,27
 487.855 314.65 487.855 314.65 478.27 8.50007 c 1,28,-1
 319.664 8.50007 l 1,29,30
 318.89 446.488 318.89 446.488 279.837 683.659 c 0,31,32
 226.978 1004.68 226.978 1004.68 105.175 1266.5 c 1,33,-1
 243.771 1363.5 l 1,0,1
EndSplineSet
EndChar

StartChar: afii57396
Encoding: 1636 1636 73
Width: 1177
VWidth: 2181
GlyphClass: 2
Flags: W
LayerCount: 2
Fore
SplineSet
747.514 1369.21 m 5,0,-1
 747.191 1235.88 l 1,1,2
 622.541 1247.74 622.541 1247.74 539.314 1210.42 c 1,3,4
 429.063 1159.52 429.063 1159.52 437.877 1047.09 c 0,5,6
 447.153 930.327 447.153 930.327 566.078 885.305 c 0,7,8
 604.867 870.62 604.867 870.62 742.77 856.721 c 1,9,-1
 742.77 713.322 l 1,10,11
 588.49 684.021 588.49 684.021 498.288 624.809 c 0,12,13
 378.637 545.295 378.637 545.295 361.969 401.309 c 0,14,15
 357.018 358.521 357.018 358.521 361.91 322.85 c 0,16,17
 391.152 109.715 391.152 109.715 752.526 159.562 c 0,18,19
 835.112 170.937 835.112 170.937 958.91 229.883 c 1,20,-1
 958.91 61.0957 l 1,21,22
 835.432 12.0723 835.432 12.0723 671.832 0.755859 c 0,23,24
 291.366 -24.6302 291.366 -24.6302 223.893 229.285 c 0,25,26
 159.85 471.822 159.85 471.822 294.477 636 c 0,27,28
 380.477 740 380.477 740 525.383 784.268 c 1,29,30
 314.391 833.237 314.391 833.237 290.08 1016.38 c 0,31,32
 260.329 1240.5 260.329 1240.5 462.08 1332.38 c 0,33,34
 562.901 1378.66 562.901 1378.66 747.514 1369.21 c 5,0,-1
EndSplineSet
EndChar

StartChar: afii57397
Encoding: 1637 1637 74
Width: 1177
VWidth: 2181
GlyphClass: 2
Flags: W
LayerCount: 2
Fore
SplineSet
347.237 779.785 m 0,0,1
 268.595 644.54 268.595 644.54 261.968 501.817 c 0,2,3
 253.924 328.592 253.924 328.592 349.612 249.899 c 0,4,5
 438.292 176.952 438.292 176.952 612.858 176.156 c 0,6,7
 807.962 175.266 807.962 175.266 874.874 289.757 c 0,8,9
 931.282 387.875 931.282 387.875 919.441 533.265 c 0,10,11
 906.487 700.952 906.487 700.952 779.574 856.497 c 0,12,13
 678.989 980 678.989 980 565.989 1041 c 1,14,15
 433.989 932 433.989 932 347.237 779.785 c 0,0,1
373.989 1173.58 m 1,16,-1
 478.989 1311.58 l 1,17,18
 586.989 1254.58 586.989 1254.58 739.989 1130.58 c 0,19,20
 900.886 997.6 900.886 997.6 977.707 873.4 c 0,21,22
 1077.83 711.521 1077.83 711.521 1087 517.754 c 0,23,24
 1099.63 263.693 1099.63 263.693 996.072 153.638 c 0,25,26
 866.263 16.918 866.263 16.918 594.251 17.958 c 1,27,28
 318.252 17.958 318.252 17.958 192.535 153.525 c 0,29,30
 62.7842 294.381 62.7842 294.381 90.4756 517.379 c 0,31,32
 112.885 695.854 112.885 695.854 202.562 848.477 c 0,33,34
 304.989 1023.5 304.989 1023.5 436.899 1131.06 c 5,35,-1
 373.989 1173.58 l 1,16,-1
EndSplineSet
EndChar

StartChar: afii57398
Encoding: 1638 1638 75
Width: 1177
VWidth: 2181
GlyphClass: 2
Flags: W
LayerCount: 2
Fore
SplineSet
887.272 1358.75 m 1,0,1
 888.725 1053.76 888.725 1053.76 926.908 689.476 c 0,2,3
 957.165 400.473 957.165 400.473 1057.48 8.5 c 1,4,-1
 884.891 8.5 l 1,5,6
 797.13 347.691 797.13 347.691 764.782 693.033 c 0,7,8
 734.716 1012.95 734.716 1012.95 732.759 1153.61 c 2,9,-1
 732.429 1177.26 l 1,10,-1
 709.721 1170.64 l 2,11,12
 609.383 1141.4 609.383 1141.4 460.1 1141.4 c 0,13,14
 279.35 1141.4 279.35 1141.4 108.95 1190.38 c 1,15,-1
 108.95 1357.99 l 1,16,17
 292.058 1310 292.058 1310 460.1 1310 c 0,18,19
 674.898 1310 674.898 1310 887.272 1358.75 c 1,0,1
EndSplineSet
EndChar

StartChar: afii57399
Encoding: 1639 1639 76
Width: 1177
VWidth: 2181
GlyphClass: 2
Flags: W
LayerCount: 2
Fore
SplineSet
508.918 8.5 m 5,0,1
 493.571 202.579 493.571 202.579 386.335 595.058 c 4,2,3
 278.426 990 278.426 990 107.231 1284.5 c 5,4,-1
 262.747 1363.5 l 5,5,6
 423.469 1037.6 423.469 1037.6 517.692 707.806 c 4,7,8
 568.814 528.879 568.814 528.879 570.791 518.001 c 6,9,-1
 588.5 420.575 l 5,10,-1
 606.209 518 l 6,11,12
 608.183 528.862 608.183 528.862 659.308 707.806 c 4,13,14
 753.547 1037.65 753.547 1037.65 914.253 1363.5 c 5,15,-1
 1069.62 1284.5 l 5,16,17
 900.645 996.25 900.645 996.25 790.49 594.46 c 4,18,19
 702.005 271.711 702.005 271.711 668.877 8.5 c 5,20,-1
 508.918 8.5 l 5,0,1
EndSplineSet
EndChar

StartChar: afii57400
Encoding: 1640 1640 77
Width: 1177
VWidth: 2181
GlyphClass: 2
Flags: W
LayerCount: 2
Fore
SplineSet
508.918 1363.5 m 5,0,-1
 668.877 1363.5 l 5,1,2
 704.769 1078.33 704.769 1078.33 790.487 777.554 c 4,3,4
 916.426 335.65 916.426 335.65 1082.62 71.5 c 5,5,-1
 914.253 8.5 l 5,6,7
 753.544 334.356 753.544 334.356 659.308 664.194 c 4,8,9
 608.185 843.131 608.185 843.131 588.5 951.424 c 5,10,11
 568.815 843.132 568.815 843.132 517.692 664.194 c 4,12,13
 423.456 334.355 423.456 334.355 262.747 8.5 c 5,14,-1
 94.2314 71.5 l 5,15,16
 220.426 283.65 220.426 283.65 386.334 776.938 c 4,17,18
 485.778 1070.86 485.778 1070.86 508.918 1363.5 c 5,0,-1
EndSplineSet
EndChar

StartChar: afii57401
Encoding: 1641 1641 78
Width: 1177
VWidth: 2181
GlyphClass: 2
Flags: W
LayerCount: 2
Fore
SplineSet
566.245 667.279 m 4,0,1
 317.085 682.63 317.085 682.63 211.67 799.709 c 4,2,3
 125 895.322 125 895.322 125 1008.65 c 4,4,5
 125 1160.27 125 1160.27 219.468 1254.81 c 4,6,7
 348.76 1385.2 348.76 1385.2 499.69 1384.2 c 4,8,9
 680.926 1384.2 680.926 1384.2 764.24 1303.87 c 4,10,11
 883.019 1188.33 883.019 1188.33 896.898 1001.97 c 4,12,13
 907.619 857.206 907.619 857.206 926.939 696.196 c 4,14,15
 967.118 376.737 967.118 376.737 1057.49 8.5 c 1,16,-1
 885.445 8.5 l 1,17,18
 796.165 437.565 796.165 437.565 768.368 668.29 c 5,19,20
 670.332 660.812 670.332 660.812 566.245 667.279 c 4,0,1
744.53 825.96 m 5,21,-1
 744.53 923.05 l 6,22,23
 744.53 1044.41 744.53 1044.41 696.992 1116.42 c 5,24,25
 619.963 1224.6 619.963 1224.6 505.04 1224.6 c 4,26,27
 413.247 1224.6 413.247 1224.6 347.025 1160.71 c 4,28,29
 285.638 1101.52 285.638 1101.52 281.6 1014 c 4,30,31
 278.341 937.53 278.341 937.53 352.984 883.653 c 28,32,33
 406.417 845.086 406.417 845.086 466.245 831.279 c 4,34,35
 570.245 807.279 570.245 807.279 744.53 825.96 c 5,21,-1
EndSplineSet
EndChar

StartChar: afii57381
Encoding: 1642 1642 79
Width: 1177
VWidth: 2186
GlyphClass: 2
Flags: W
LayerCount: 2
Fore
SplineSet
459.39 1287.05 m 2,0,-1
 459.39 1158.05 l 2,1,2
 459.39 1121.05 459.39 1121.05 429.39 1121.04 c 2,3,-1
 302.391 1121.05 l 2,4,5
 268.39 1121.05 268.39 1121.05 268.39 1159.05 c 2,6,-1
 268.39 1287.05 l 2,7,8
 268.39 1319.05 268.39 1319.05 306.39 1319.05 c 2,9,-1
 421.39 1319.05 l 2,10,11
 459.39 1319.05 459.39 1319.05 459.39 1287.05 c 2,0,-1
911.192 233.849 m 2,12,-1
 911.192 104.849 l 2,13,14
 911.192 67.8477 911.192 67.8477 881.192 67.8477 c 2,15,-1
 754.192 67.8477 l 2,16,17
 720.192 67.8477 720.192 67.8477 720.192 105.848 c 2,18,-1
 720.192 233.849 l 2,19,20
 720.192 265.848 720.192 265.848 758.192 265.848 c 2,21,-1
 873.192 265.848 l 2,22,23
 911.192 265.848 911.192 265.848 911.192 233.849 c 2,12,-1
871.394 1373.5 m 1,24,-1
 983.001 1316 l 1,25,-1
 301 0 l 1,26,-1
 190 61 l 1,27,-1
 871.394 1373.5 l 1,24,-1
EndSplineSet
EndChar

StartChar: uni066B
Encoding: 1643 1643 80
Width: 711
VWidth: 2186
GlyphClass: 2
Flags: W
LayerCount: 2
Fore
SplineSet
443.218 502.139 m 1,0,-1
 568.799 501.203 l 1,1,2
 342.799 113.203 342.799 113.203 130 -230.265 c 1,3,-1
 1.59766 -228.502 l 1,4,5
 94.7988 -78.7969 94.7988 -78.7969 443.218 502.139 c 1,0,-1
EndSplineSet
EndChar

StartChar: uni066C
Encoding: 1644 1644 81
Width: 696
VWidth: 2186
GlyphClass: 2
Flags: W
LayerCount: 2
Fore
SplineSet
291.2 1580.01 m 1,0,-1
 490.97 1580.01 l 1,1,-1
 490.97 1433.52 l 1,2,-1
 320.557 1102.04 l 1,3,-1
 207.225 1102.04 l 1,4,-1
 291.2 1428.73 l 1,5,-1
 291.2 1580.01 l 1,0,-1
EndSplineSet
EndChar

StartChar: uni066E
Encoding: 1646 1646 82
Width: 1755
VWidth: 2181
GlyphClass: 2
Flags: W
AnchorPoint: "Anchor-10" 763.22 1051.5 basechar 0
AnchorPoint: "Anchor-7" 533.22 -209 basechar 0
LayerCount: 2
Fore
SplineSet
869.463 0.982422 m 1,0,1
 537.802 -1.16387e-05 537.802 -1.16387e-05 379 66.3779 c 4,2,3
 121.263 174.11 121.263 174.11 96.376 450.233 c 4,4,5
 86.2451 558.573 86.2451 558.573 127.76 702.758 c 5,6,-1
 256.475 668.796 l 5,7,8
 234.607 532.235 234.607 532.235 237.538 475.238 c 4,9,10
 250.076 231.4 250.076 231.4 561.779 183.378 c 4,11,12
 638.222 171.572 638.222 171.572 814.097 171.017 c 17,13,14
 1037.62 172.219 1037.62 172.219 1066.36 175 c 0,15,16
 1475.45 214.345 1475.45 214.345 1487.54 313.432 c 0,17,18
 1496.19 379.475 1496.19 379.475 1489.84 445.304 c 0,19,20
 1470.78 630 1470.78 630 1447.1 704.607 c 1,21,-1
 1606.1 785.607 l 1,22,23
 1632.46 677.201 1632.46 677.201 1645.1 545.607 c 0,24,25
 1667.99 307.269 1667.99 307.269 1618 198.304 c 0,26,27
 1528.27 2.56738 1528.27 2.56738 869.463 0.982422 c 1,0,1
EndSplineSet
Substitution2: "'init' Initial Forms in Arabic lookup 13 subtable" uni066E.init
Substitution2: "'medi' Medial Forms in Arabic lookup 11 subtable" uni066E.medi
Substitution2: "'fina' Terminal Forms in Arabic lookup 9 subtable" uni066E.fina
EndChar

StartChar: uni066F
Encoding: 1647 1647 83
Width: 1494
VWidth: 2181
GlyphClass: 2
Flags: W
AnchorPoint: "Anchor-10" 315 1045.5 basechar 0
AnchorPoint: "Anchor-7" 439 -603 basechar 0
LayerCount: 2
Fore
SplineSet
1105.75 686.839 m 4,0,1
 981.096 684.055 981.096 684.055 929.885 534.307 c 4,2,3
 857.654 325.64 857.654 325.64 1082.99 310.703 c 4,4,5
 1157.62 305.703 1157.62 305.703 1268.2 333.406 c 5,6,7
 1269.21 445.719 1269.21 445.719 1252.47 527.211 c 4,8,9
 1219.97 689.396 1219.97 689.396 1105.75 686.839 c 4,0,1
1409.99 173.703 m 5,10,11
 1389.15 -87.333 1389.15 -87.333 1231.69 -241.797 c 4,12,13
 1039.33 -420.116 1039.33 -420.116 686.854 -411.746 c 4,14,15
 392.445 -404.901 392.445 -404.901 244.308 -253.771 c 4,16,17
 90.4092 -98.0342 90.4092 -98.0342 93.8516 168.57 c 4,18,19
 96.6045 374.512 96.6045 374.512 186.879 557.197 c 5,20,-1
 336.438 519.18 l 5,21,22
 250.89 294.965 250.89 294.965 251.783 158.082 c 4,23,24
 254.665 -262.766 254.665 -262.766 731.479 -257.855 c 4,25,26
 1027.25 -255.242 1027.25 -255.242 1163.98 -94.3525 c 4,27,28
 1257.96 16.2344 1257.96 16.2344 1259.98 174.646 c 5,29,30
 1166.56 157.836 1166.56 157.836 1091.99 157.703 c 4,31,32
 920.8 157.479 920.8 157.479 842 245.703 c 4,33,34
 763.904 333.138 763.904 333.138 781.521 474.526 c 4,35,36
 803.258 648.983 803.258 648.983 908.172 750.639 c 4,37,38
 1006.63 846.041 1006.63 846.041 1121.04 839.026 c 4,39,40
 1276.95 829.682 1276.95 829.682 1346.89 687.771 c 4,41,42
 1401.54 576.888 1401.54 576.888 1408.92 429.571 c 4,43,44
 1416.87 262.732 1416.87 262.732 1409.99 173.703 c 5,10,11
EndSplineSet
Substitution2: "'init' Initial Forms in Arabic lookup 13 subtable" uni066F.init
Substitution2: "'medi' Medial Forms in Arabic lookup 11 subtable" uni066F.medi
Substitution2: "'fina' Terminal Forms in Arabic lookup 9 subtable" uni066F.fina
EndChar

StartChar: uni0670
Encoding: 1648 1648 84
Width: 0
VWidth: 2186
GlyphClass: 4
Flags: W
AnchorPoint: "Anchor-10" 547.84 1279.5 mark 0
AnchorPoint: "Anchor-9" 547.84 1279.5 mark 0
AnchorPoint: "Anchor-1" 547.84 1884 basemark 0
AnchorPoint: "Anchor-1" 547.84 1279.5 mark 0
LayerCount: 2
Fore
SplineSet
525.99 1327.81 m 5,0,-1
 501.99 1781.69 l 5,1,-1
 593.69 1835.69 l 5,2,-1
 593.69 1327.81 l 5,3,-1
 525.99 1327.81 l 5,0,-1
EndSplineSet
EndChar

StartChar: uni0674
Encoding: 1652 1652 85
Width: 639
VWidth: 2186
GlyphClass: 2
Flags: W
LayerCount: 2
Fore
SplineSet
143.54 1515.26 m 1,0,-1
 254.306 1540.82 l 1,1,2
 145.68 1590.21 145.68 1590.21 145.68 1692.52 c 0,3,4
 145.68 1778.8 145.68 1778.8 206 1832 c 0,5,6
 256.995 1876.48 256.995 1876.48 343 1877 c 0,7,8
 410.823 1877 410.823 1877 462.08 1846.81 c 1,9,-1
 462.08 1769.8 l 1,10,11
 397.433 1802.12 397.433 1802.12 332 1795 c 0,12,13
 227.549 1783.73 227.549 1783.73 220.26 1701.08 c 0,14,15
 212.646 1612.93 212.646 1612.93 330.161 1577.33 c 0,16,17
 366.368 1566.36 366.368 1566.36 484.55 1593.69 c 1,18,-1
 484.55 1511.4 l 1,19,-1
 143.54 1434.84 l 1,20,-1
 143.54 1515.26 l 1,0,-1
EndSplineSet
EndChar

StartChar: uni06A1
Encoding: 1697 1697 89
Width: 1744
VWidth: 2181
GlyphClass: 2
Flags: W
AnchorPoint: "Anchor-10" 501.55 1225.28 basechar 0
AnchorPoint: "Anchor-7" 608.55 -152.88 basechar 0
LayerCount: 2
Fore
SplineSet
852.779 0 m 28,0,1
 526.271 2.72949 526.271 2.72949 374 66.3779 c 4,2,3
 116.263 174.11 116.263 174.11 91.376 450.233 c 4,4,5
 81.2451 558.573 81.2451 558.573 122.76 702.758 c 5,6,-1
 251.475 668.796 l 5,7,8
 231.975 538.1 231.975 538.1 234.538 475.238 c 4,9,10
 244.569 229.423 244.569 229.423 556.779 183.378 c 4,11,12
 596.729 177.486 596.729 177.486 800.097 171.017 c 20,13,14
 1132.64 160.352 1132.64 160.352 1323.71 218.174 c 4,15,16
 1473.1 263.317 1473.1 263.317 1501.39 401.816 c 6,17,-1
 1504.94 419.196 l 5,18,19
 1451.31 368.759 1451.31 368.759 1308.14 366.139 c 4,20,21
 1146.12 363.271 1146.12 363.271 1079.66 456.648 c 4,22,23
 1019.34 539.532 1019.34 539.532 1034.34 666.291 c 4,24,25
 1053.61 833.429 1053.61 833.429 1141.82 926.033 c 4,26,27
 1254.25 1044.06 1254.25 1044.06 1400.08 1013.38 c 4,28,29
 1504.69 991.379 1504.69 991.379 1567.37 884.09 c 4,30,31
 1628 780.3 1628 780.3 1644.34 638.291 c 4,32,33
 1665.6 463.562 1665.6 463.562 1630.34 318.291 c 4,34,35
 1582.12 120.112 1582.12 120.112 1354.14 46.4951 c 4,36,37
 1201.13 -2.91211 1201.13 -2.91211 852.779 0 c 28,0,1
1335.16 863.902 m 4,38,39
 1216.03 860.494 1216.03 860.494 1175.59 699.372 c 4,40,41
 1135.67 538.499 1135.67 538.499 1275.22 514.918 c 4,42,43
 1416.37 490.449 1416.37 490.449 1511.48 563.961 c 5,44,45
 1518.75 588.236 1518.75 588.236 1501.41 682.082 c 4,46,47
 1466.62 867.719 1466.62 867.719 1335.16 863.902 c 4,38,39
EndSplineSet
Substitution2: "'init' Initial Forms in Arabic lookup 13 subtable" uni06A1.init
Substitution2: "'medi' Medial Forms in Arabic lookup 11 subtable" uni06A1.medi
Substitution2: "'fina' Terminal Forms in Arabic lookup 9 subtable" uni06A1.fina
EndChar

StartChar: uni06A9
Encoding: 1705 1705 90
Width: 1752
VWidth: 2181
GlyphClass: 2
Flags: W
AnchorPoint: "Anchor-10" 369 1202.34 basechar 0
AnchorPoint: "Anchor-7" 485 -235.68 basechar 0
LayerCount: 2
Fore
SplineSet
844.779 0 m 0,0,1
 536.802 0 536.802 0 378 66.3779 c 4,2,3
 120.263 174.11 120.263 174.11 95.376 450.233 c 0,4,5
 85.2451 558.573 85.2451 558.573 126.76 702.758 c 1,6,-1
 255.475 668.796 l 1,7,8
 229.52 526.926 229.52 526.926 232.538 475.238 c 0,9,10
 246.793 231.14 246.793 231.14 560.779 183.378 c 0,11,12
 637.162 171.572 637.162 171.572 804.097 171.017 c 16,13,-1
 1056.75 169.004 l 1,14,-1
 1191.21 169.004 l 2,15,16
 1473.46 169.004 1473.46 169.004 1496.72 317.826 c 0,17,18
 1518.55 457.471 1518.55 457.471 1398.93 548.562 c 2,19,-1
 1038.26 823.224 l 2,20,21
 962.216 881.133 962.216 881.133 956.347 949.462 c 0,22,23
 945.82 1072.26 945.82 1072.26 1063.5 1133.92 c 2,24,-1
 1705.09 1470.09 l 1,25,-1
 1705.09 1304.42 l 1,26,-1
 1092.57 983.91 l 1,27,-1
 1101.17 977.325 l 2,28,29
 1352.57 784.755 1352.57 784.755 1518.13 649.002 c 0,30,31
 1676.77 518.928 1676.77 518.928 1651.74 296 c 0,32,33
 1635.38 150.253 1635.38 150.253 1513.74 70 c 0,34,35
 1407.64 0 1407.64 0 1232.54 0 c 2,36,-1
 1089.04 0 l 1,37,-1
 844.779 0 l 0,0,1
EndSplineSet
Substitution2: "'init' Initial Forms in Arabic lookup 13 subtable" uniFB90
Substitution2: "'medi' Medial Forms in Arabic lookup 11 subtable" uniFB91
Substitution2: "'fina' Terminal Forms in Arabic lookup 9 subtable" uniFB8F
EndChar

StartChar: afii57514
Encoding: 1722 1722 92
Width: 1364
VWidth: 2186
GlyphClass: 2
Flags: W
AnchorPoint: "Anchor-10" 592.734 1052.15 basechar 0
AnchorPoint: "Anchor-7" 538.58 -489.02 basechar 0
LayerCount: 2
Fore
SplineSet
1283.76 324.861 m 4,0,1
 1281.77 -275 1281.77 -275 673.768 -282 c 4,2,3
 121.899 -288.02 121.899 -288.02 91.5703 226.401 c 4,4,5
 86.9131 305.151 86.9131 305.151 108.456 416.187 c 4,6,7
 130.529 529.946 130.529 529.946 179.117 634.222 c 5,8,-1
 314.059 582.128 l 5,9,10
 225.724 364.791 225.724 364.791 242.448 212.939 c 4,11,12
 280.767 -135 280.767 -135 675.062 -132.758 c 4,13,14
 1108.27 -129.552 1108.27 -129.552 1126.75 269.472 c 4,15,16
 1135.08 449.361 1135.08 449.361 1015.8 616.89 c 5,17,-1
 1151.95 746.978 l 5,18,19
 1284.39 525.695 1284.39 525.695 1283.76 324.861 c 4,0,1
EndSplineSet
Substitution2: "'init' Initial Forms in Arabic lookup 13 subtable" uni06BA.init
Substitution2: "'medi' Medial Forms in Arabic lookup 11 subtable" uni06BA.medi
Substitution2: "'fina' Terminal Forms in Arabic lookup 9 subtable" uniFB9F
EndChar

StartChar: uni06F4
Encoding: 1780 1780 99
Width: 1177
VWidth: 2181
GlyphClass: 2
Flags: W
LayerCount: 2
Fore
SplineSet
373.954 1113.08 m 2,0,-1
 390.401 1062.09 l 1,1,-1
 408.076 1112.66 l 2,2,3
 478.879 1315.24 478.879 1315.24 618.676 1355.98 c 0,4,5
 765.032 1398.51 765.032 1398.51 957.84 1358.41 c 1,6,-1
 957.84 1228.77 l 1,7,8
 918.031 1240 918.031 1240 834.188 1250.63 c 0,9,10
 670.066 1271.43 670.066 1271.43 585.823 1185.46 c 0,11,12
 476.05 1074.15 476.05 1074.15 544.819 961.178 c 0,13,14
 595.149 880.1 595.149 880.1 791.244 879.86 c 0,15,16
 845.03 879.811 845.03 879.811 1015.41 904.857 c 1,17,-1
 1017.51 769.148 l 1,18,19
 823.321 743.59 823.321 743.59 761.84 743.59 c 0,20,21
 592.257 743.59 592.257 743.59 489.921 812.229 c 2,22,-1
 442.074 844.321 l 1,23,24
 473.798 722.426 473.798 722.426 481.856 670.213 c 0,25,26
 524.499 426.78 524.499 426.78 521.441 8.5 c 1,27,-1
 364.664 8.5 l 1,28,29
 363.907 436.888 363.907 436.888 324.84 683.643 c 0,30,31
 278.203 974.213 278.203 974.213 146.203 1270.21 c 1,32,-1
 287.91 1363.5 l 1,33,34
 353.392 1176.83 353.392 1176.83 373.954 1113.08 c 2,0,-1
EndSplineSet
EndChar

StartChar: uni06F5
Encoding: 1781 1781 100
Width: 1177
GlyphClass: 2
Flags: W
LayerCount: 2
Fore
SplineSet
610.572 343.864 m 4,0,1
 683.843 189.727 683.843 189.727 810.947 184.39 c 4,2,3
 993.153 176.794 993.153 176.794 941.85 470.974 c 5,4,5
 866.235 791.521 866.235 791.521 570.489 1049.01 c 5,6,7
 343.53 783 343.53 783 265.53 521 c 4,8,9
 166.084 194.914 166.084 194.914 386.131 185 c 4,10,11
 504.576 179.664 504.576 179.664 583.572 343.724 c 4,12,13
 597.192 372.011 597.192 372.011 610.572 343.864 c 4,0,1
371.77 8.36426 m 4,14,15
 96.5391 8.36621 96.5391 8.36621 74.7979 279 c 4,16,17
 45.6309 648 45.6309 648 457.071 1147 c 5,18,19
 411 1187 l 5,20,21
 509.53 1323.65 l 5,22,23
 525.654 1314.71 525.654 1314.71 587.918 1257.96 c 4,24,25
 1151.42 744.331 1151.42 744.331 1099.8 283 c 4,26,27
 1068.17 0 1068.17 0 824.497 8.86426 c 5,28,29
 651.793 13.3544 651.793 13.3544 600.953 154.498 c 6,30,-1
 596.253 167.547 l 5,31,-1
 591.546 154.501 l 6,32,33
 538.82 8.36627 538.82 8.36627 371.77 8.36426 c 4,14,15
EndSplineSet
EndChar

StartChar: uni06F6
Encoding: 1782 1782 101
Width: 1177
VWidth: 2181
GlyphClass: 2
Flags: W
LayerCount: 2
Fore
SplineSet
245.846 8.5 m 5,0,1
 321.051 275.974 321.051 275.974 426.229 456.617 c 4,2,3
 529.133 633 529.133 633 613.843 696 c 5,4,5
 365.061 726.544 365.061 726.544 336.846 965.973 c 4,6,7
 315.452 1150.22 315.452 1150.22 426.846 1271.97 c 4,8,9
 522.458 1376.27 522.458 1376.27 689.08 1375.27 c 4,10,11
 805.562 1375.27 805.562 1375.27 893.64 1347.17 c 5,12,-1
 893.64 1197.52 l 5,13,14
 672.045 1259.76 672.045 1259.76 570.17 1184.6 c 4,15,16
 489.18 1125.58 489.18 1125.58 489.18 997.37 c 4,17,18
 489.18 905.438 489.18 905.438 552.845 853.473 c 4,19,20
 627.02 792.149 627.02 792.149 784.845 817.473 c 4,21,22
 866.869 830.634 866.869 830.634 1006.84 888.473 c 5,23,-1
 1006.84 735.262 l 5,24,25
 760.176 655.434 760.176 655.434 600.728 437.694 c 4,26,27
 459.657 245.049 459.657 245.049 400.99 8.5 c 5,28,-1
 245.846 8.5 l 5,0,1
EndSplineSet
EndChar

StartChar: uniFB8F
Encoding: 64399 64399 116
Width: 2024
VWidth: 2181
GlyphClass: 2
Flags: W
AnchorPoint: "Anchor-10" 450 1174.5 basechar 0
AnchorPoint: "Anchor-7" 529 -212 basechar 0
LayerCount: 2
Fore
SplineSet
810.399 0.5 m 5,0,1
 538.802 -1.16387e-05 538.802 -1.16387e-05 380 66.3779 c 4,2,3
 121.224 174.11 121.224 174.11 96.376 450.233 c 4,4,5
 86.4902 558.573 86.4902 558.573 128.76 702.758 c 5,6,-1
 257.475 668.796 l 5,7,8
 235.607 532.234 235.607 532.234 238.538 475.238 c 4,9,10
 251.076 231.4 251.076 231.4 562.779 183.378 c 4,11,12
 639.274 171.572 639.274 171.572 802.399 169.48 c 21,13,-1
 1252.67 169.63 l 6,14,15
 1468.34 169.701 1468.34 169.701 1496.67 307.474 c 4,16,17
 1512.82 385.98 1512.82 385.98 1435.67 471.63 c 6,18,-1
 1174.72 761.35 l 6,19,20
 1084.07 861.988 1084.07 861.988 1081.23 931.924 c 4,21,22
 1076.81 1040.72 1076.81 1040.72 1196.23 1105.38 c 6,23,-1
 1871.05 1470.76 l 5,24,-1
 1871.05 1303.94 l 5,25,-1
 1211.71 946.527 l 5,26,-1
 1827.34 263.141 l 6,27,28
 1911.9 169.276 1911.9 169.276 2024.52 169.791 c 6,29,-1
 2043.95 169.88 l 5,30,-1
 2043.95 1 l 5,31,-1
 1994.21 1 l 6,32,33
 1822.8 1 1822.8 1 1625.67 262.474 c 5,34,35
 1601.61 0.5 1601.61 0.5 1172.67 0.5 c 6,36,-1
 810.399 0.5 l 5,0,1
EndSplineSet
EndChar

StartChar: uniFB9F
Encoding: 64415 64415 124
Width: 1371
VWidth: 2186
GlyphClass: 2
Flags: W
AnchorPoint: "Anchor-10" 361.092 711.45 basechar 0
AnchorPoint: "Anchor-7" 266.712 -701.104 basechar 0
LayerCount: 2
Fore
SplineSet
1216.64 74.0156 m 1,0,1
 1221 -171 1221 -171 1104.5 -309 c 0,2,3
 961 -480 961 -480 655.25 -488.25 c 0,4,5
 411 -495 411 -495 256 -371.6 c 0,6,7
 99 -247 99 -247 84.3916 9.85449 c 0,8,9
 80 85 80 85 100.469 190.831 c 0,10,11
 122 302 122 302 169.646 402.498 c 1,12,-1
 313.845 352.996 l 1,13,14
 194 61 194 61 271 -123.023 c 1,15,16
 370 -330 370 -330 649.923 -331.072 c 0,17,18
 1037 -332 1037 -332 1078.12 0 c 0,19,20
 1105 215 1105 215 972.776 384.141 c 1,21,-1
 1106 510.98 l 1,22,23
 1160 362 1160 362 1212 266 c 0,24,25
 1263.79635148 169.379882812 1263.79635148 169.379882812 1349.28027344 169.379882812 c 6,26,-1
 1391.53027344 169.379882812 l 5,27,-1
 1391.53027344 0.5 l 5,28,-1
 1350.43 0.5 l 2,29,30
 1264 0 1264 0 1216.64 74.0156 c 1,0,1
EndSplineSet
EndChar

StartChar: uniFBE8
Encoding: 64488 64488 127
Width: 579
VWidth: 2186
GlyphClass: 2
Flags: W
AnchorPoint: "Anchor-10" 273.93 1016.5 basechar 0
AnchorPoint: "Anchor-7" 305.93 -112.5 basechar 0
LayerCount: 2
Fore
SplineSet
410.649414062 75.1005859375 m 4,0,1
 323 0 323 0 77.6494140625 0 c 6,2,-1
 -10.400390625 0 l 5,3,-1
 -10.400390625 168.98046875 l 5,4,-1
 91.0498046875 168.98046875 l 6,5,6
 151 169 151 169 194.68359375 174.780273438 c 4,7,8
 306 189 306 189 335.120117188 258.280273438 c 4,9,10
 363 324 363 324 349.987304688 483.435546875 c 4,11,12
 341 591 341 591 318.22265625 681.193359375 c 5,13,-1
 464.71875 712.201171875 l 5,14,15
 500 623 500 623 507.01171875 486.353515625 c 4,16,17
 523 170 523 170 410.649414062 75.1005859375 c 4,0,1
EndSplineSet
EndChar

StartChar: uniFBE9
Encoding: 64489 64489 128
Width: 696
VWidth: 2181
GlyphClass: 2
Flags: W
AnchorPoint: "Anchor-10" 296.93 964.5 basechar 0
AnchorPoint: "Anchor-7" 265.93 -252.5 basechar 0
LayerCount: 2
Fore
SplineSet
390.940429688 94.9970703125 m 6,0,1
 305.865621256 0 305.865621256 0 158.900390625 0 c 6,2,-1
 -20.4004 0 l 5,3,-1
 -20.4004 168.98 l 5,4,-1
 112.049804688 168.98046875 l 6,5,6
 227 169 227 169 273.704101562 214.946289062 c 4,7,8
 328.888623656 269.889111467 328.888623656 269.889111467 330.461914062 342.783203125 c 6,9,-1
 334.98828125 552.5 l 5,10,-1
 473.87109375 576.5 l 5,11,-1
 482.397460938 342.783203125 l 6,12,13
 485 266 485 266 543.385742188 214.733398438 c 4,14,15
 596.020882757 168.981848277 596.020882757 168.981848277 686.810546875 168.98046875 c 6,16,-1
 717.66 168.98 l 5,17,-1
 717.66 0 l 5,18,-1
 663.959960938 0 l 6,19,20
 504.203651946 -9.94759830064e-14 504.203651946 -9.94759830064e-14 417.188476562 94.697265625 c 6,21,-1
 403.759765625 109.311523438 l 5,22,-1
 390.940429688 94.9970703125 l 6,0,1
EndSplineSet
EndChar

StartChar: uniFE73
Encoding: 65139 65139 136
Width: 573
VWidth: 2186
GlyphClass: 2
Flags: W
AnchorPoint: "Anchor-10" 210.79 1279.5 basechar 0
AnchorPoint: "Anchor-7" 210.79 -111.5 basechar 0
LayerCount: 2
Fore
SplineSet
296.23 350.74 m 2,0,1
 296.23 286.506 296.23 286.506 352.468 230.268 c 0,2,3
 403.354 179.38 403.354 179.38 514.67 179.38 c 2,4,-1
 581.92 179.38 l 1,5,-1
 581.92 8.5 l 1,6,-1
 455.82 8.5 l 2,7,8
 309.266 8.5 309.266 8.5 214.633 103.133 c 0,9,10
 125.35 192.415 125.35 192.415 125.35 337.9 c 2,11,-1
 125.35 370.91 l 1,12,-1
 296.23 370.91 l 1,13,-1
 296.23 350.74 l 2,0,1
EndSplineSet
EndChar

StartChar: uniFE8E
Encoding: 65166 65166 162
Width: 520
VWidth: 2181
GlyphClass: 2
Flags: W
AnchorPoint: "Anchor-10" 212.95 1580 basechar 0
AnchorPoint: "Anchor-7" 246.95 -206.5 basechar 0
LayerCount: 2
Fore
SplineSet
167.509765625 403.940429688 m 6,0,-1
 130.509765625 1401.03027344 l 5,1,-1
 287.389648438 1470.03027344 l 5,2,-1
 286.989257812 416.780273438 l 6,3,4
 287 313 287 313 316.380859375 267.046875 c 4,5,6
 381.012872339 168.98046875 381.012872339 168.98046875 510.830078125 168.98046875 c 6,7,-1
 530.080078125 168.98046875 l 5,8,-1
 530.080078125 0 l 5,9,-1
 490.98046875 0 l 6,10,11
 313 0 313 0 229.794921875 124 c 4,12,13
 175 206 175 206 167.509765625 403.940429688 c 6,0,-1
EndSplineSet
EndChar

StartChar: uniFEA2
Encoding: 65186 65186 182
Width: 1299
VWidth: 2181
GlyphClass: 2
Flags: W
AnchorPoint: "Anchor-10" 578.5 1118 basechar 0
AnchorPoint: "Anchor-7" 409.84 -765.64 basechar 0
LayerCount: 2
Fore
SplineSet
880 410.997070312 m 1,0,1
 681 376 681 376 533 291 c 0,2,3
 245 124 245 124 245.080078125 -135.1640625 c 0,4,5
 245 -283 245 -283 354.662109375 -370.796875 c 0,6,7
 462 -458 462 -458 730.76171875 -458.520507812 c 0,8,9
 924 -459 924 -459 1085 -413 c 1,10,-1
 1131 -553 l 1,11,12
 936 -613 936 -613 724 -613 c 0,13,14
 341 -613 341 -613 193.438476562 -439.048828125 c 0,15,16
 91 -319 91 -319 91.2666015625 -144.452148438 c 0,17,18
 91 36 91 36 182.49609375 174.852539062 c 0,19,20
 287.694888199 335.013025323 287.694888199 335.013025323 500 433 c 4,21,22
 684 518 684 518 841.075195312 526.811523438 c 1,23,24
 776 538 776 538 641.181640625 601.715820312 c 0,25,26
 509 664 509 664 475.499023438 663.9765625 c 0,27,28
 347 664 347 664 219 500 c 1,29,-1
 115 580 l 1,30,31
 235 756 235 756 363.06640625 796.524414062 c 0,32,33
 412 812 412 812 460 812 c 0,34,35
 490 812 490 812 515 805 c 0,36,37
 563 792 563 792 696 727 c 0,38,39
 860 647 860 647 936.548828125 620.237304688 c 0,40,41
 1013 594 1013 594 1098 582.604492188 c 1,42,-1
 1076 429 l 1,43,44
 1037 426 1037 426 1008 423.845703125 c 1,45,46
 1039.95248601 168.379882812 1039.95248601 168.379882812 1283.12988281 168.379882812 c 2,47,-1
 1317.94042969 168.379882812 l 1,48,-1
 1317.94042969 -0.5 l 1,49,-1
 1289.50976562 -0.5 l 2,50,51
 1199.2879096 0.0337954457521 1199.2879096 0.0337954457521 1129.04101562 20.50390625 c 0,52,53
 1069 38 1069 38 1007.62695312 98.4775390625 c 0,54,55
 895 210 895 210 880 410.997070312 c 1,0,1
EndSplineSet
EndChar

StartChar: uniFEA3
Encoding: 65187 65187 183
Width: 1269
VWidth: 2181
GlyphClass: 2
Flags: W
AnchorPoint: "Anchor-10" 368 1052.73 basechar 0
AnchorPoint: "Anchor-7" 563 -208.5 basechar 0
LayerCount: 2
Fore
SplineSet
616.854 89.4824 m 0,0,1
 431.97 0 431.97 0 43.2549 0 c 2,2,-1
 -20.4004 0 l 1,3,-1
 -20.4004 168.98 l 1,4,-1
 14.5996 168.98 l 2,5,6
 362.657 168.975 362.657 168.975 499.854 218.482 c 0,7,8
 738.57 304.621 738.57 304.621 928.854 398.482 c 5,9,10
 848.931 402.745 848.931 402.745 696.357 470.833 c 4,11,12
 504.509 556.448 504.509 556.448 407.114 570.396 c 4,13,14
 292.373 587.396 292.373 587.396 166.114 421.396 c 5,15,-1
 62.1143 501.396 l 5,16,17
 152.512 629.431 152.512 629.431 210.114 672 c 4,18,19
 333.129 761.26 333.129 761.26 497.854 716.548 c 4,20,21
 551.754 701.918 551.754 701.918 863.854 566.548 c 4,22,23
 1067.95 478.025 1067.95 478.025 1234.11 489 c 5,24,-1
 1212.11 356.396 l 1,25,26
 1133.71 339.634 1133.71 339.634 616.854 89.4824 c 0,0,1
EndSplineSet
EndChar

StartChar: uniFEA4
Encoding: 65188 65188 184
Width: 1337
VWidth: 2181
GlyphClass: 2
Flags: W
AnchorPoint: "Anchor-10" 376 1072.69 basechar 0
AnchorPoint: "Anchor-7" 544 -216.5 basechar 0
LayerCount: 2
Fore
SplineSet
834.27 192.781 m 1,0,1
 738 147 738 147 616.854 89.4824 c 0,2,3
 432 0 432 0 43.2549 0 c 2,4,-1
 -20.4004 0 l 1,5,-1
 -20.4004 168.98 l 1,6,-1
 14.5996 168.98 l 2,7,8
 363 169 363 169 499.854 218.482 c 0,9,10
 739 305 739 305 928.854 398.482 c 1,11,12
 849 403 849 403 696.357 470.833 c 0,13,14
 505 556 505 556 407.114 570.396 c 0,15,16
 292 587 292 587 166.114 421.396 c 1,17,-1
 62.1143 501.396 l 1,18,19
 153 629 153 629 210.114 672 c 0,20,21
 331 762 331 762 497.854 716.548 c 0,22,23
 552 702 552 702 863.854 566.548 c 0,24,25
 1068 478 1068 478 1234.11 489 c 1,26,-1
 1212.11 356.396 l 1,27,28
 1167 346 1167 346 966.27 254.021 c 1,29,30
 977.01528997 169.880272269 977.01528997 169.880272269 1243.32 169.88 c 2,31,-1
 1357.94042969 169.879882812 l 1,32,-1
 1357.94042969 0 l 1,33,-1
 1221.92 0 l 2,34,35
 895 0 895 0 834.27 192.781 c 1,0,1
EndSplineSet
EndChar

StartChar: uniFEAA
Encoding: 65194 65194 190
Width: 1091
VWidth: 2181
GlyphClass: 2
Flags: W
AnchorPoint: "Anchor-10" 534.99 1129.65 basechar 0
AnchorPoint: "Anchor-7" 445.5 -236 basechar 0
LayerCount: 2
Fore
SplineSet
686.412 336.5 m 2,0,-1
 441.912 833 l 1,1,-1
 591.787 896.698 l 1,2,3
 856 373 l 2,4,5
 956 175 956 175 1073.4 169.805 c 6,6,-1
 1111.65 169.38 l 1,7,-1
 1111.65 0.5 l 1,8,-1
 1070.44 0.5 l 2,9,10
 911 0 911 0 820.875 121.808 c 1,11,12
 710 -29 710 -29 338.412 -20 c 0,13,14
 204 -17 204 -17 90.1748 22.1123 c 1,15,-1
 90.1748 201.915 l 1,16,17
 204 153 204 153 348.412 151 c 0,18,19
 594 147 594 147 680.912 229.778 c 0,20,21
 705 253 705 253 694.372 312.46 c 0,22,23
 692 325 692 325 686.412 336.5 c 2,0,-1
EndSplineSet
EndChar

StartChar: uniFEAE
Encoding: 65198 65198 194
Width: 925
VWidth: 2186
GlyphClass: 2
Flags: W
AnchorPoint: "Anchor-10" 489 818 basechar 0
AnchorPoint: "Anchor-7" 461.925 -621.55 basechar 0
LayerCount: 2
Fore
SplineSet
519.601 462.5 m 1,0,-1
 656.6 561.2 l 1,1,2
 720 258 720 258 724.601 243.5 c 0,3,4
 750.006658714 168.98046875 750.006658714 168.98046875 915.83984375 168.98046875 c 2,5,-1
 935.599609375 168.98046875 l 5,6,-1
 935.599609375 0.0009765625 l 5,7,8
 920.79957442 -1.34063932791e-05 920.79957442 -1.34063932791e-05 920.767578125 0.0087890625 c 2,9,10
 775 0 775 0 733.601 51.5 c 1,11,12
 662 -502 662 -502 94.2334 -503.804 c 1,13,-1
 26.2334 -380.804 l 1,14,15
 541 -350 541 -350 590.101 66.4297 c 0,16,17
 602 168 602 168 519.601 462.5 c 1,0,-1
EndSplineSet
PairPos2: "'kern' Horizontal Kerning lookup 15-1" uni0632 dx=-100 dy=0 dh=-100 dv=0 dx=0 dy=0 dh=0 dv=0
PairPos2: "'kern' Horizontal Kerning lookup 15-1" uni0631 dx=-100 dy=0 dh=-100 dv=0 dx=0 dy=0 dh=0 dv=0
PairPos2: "'kern' Horizontal Kerning lookup 15-1" uniFB8A dx=-100 dy=0 dh=-100 dv=0 dx=0 dy=0 dh=0 dv=0
PairPos2: "'kern' Horizontal Kerning lookup 15-1" afii57508 dx=-100 dy=0 dh=-100 dv=0 dx=0 dy=0 dh=0 dv=0
PairPos2: "'kern' Horizontal Kerning lookup 15-1" uni0648 dx=-100 dy=0 dh=-100 dv=0 dx=0 dy=0 dh=0 dv=0
PairPos2: "'kern' Horizontal Kerning lookup 15-1" uni06CC dx=-100 dy=0 dh=-100 dv=0 dx=0 dy=0 dh=0 dv=0
PairPos2: "'kern' Horizontal Kerning lookup 15-1" uniFEEB dx=-150 dy=0 dh=-150 dv=0 dx=0 dy=0 dh=0 dv=0
PairPos2: "'kern' Horizontal Kerning lookup 15-1" uniFB58 dx=70 dy=0 dh=70 dv=0 dx=0 dy=0 dh=0 dv=0
PairPos2: "'kern' Horizontal Kerning lookup 15-1" uniFEF3 dx=70 dy=0 dh=70 dv=0 dx=0 dy=0 dh=0 dv=0
PairPos2: "'kern' Horizontal Kerning lookup 15-1" uniFBFE dx=70 dy=0 dh=70 dv=0 dx=0 dy=0 dh=0 dv=0
PairPos2: "'kern' Horizontal Kerning lookup 15-1" uniFEDF dx=-150 dy=0 dh=-150 dv=0 dx=0 dy=0 dh=0 dv=0
PairPos2: "'kern' Horizontal Kerning lookup 15-1" uniFB90 dx=-150 dy=0 dh=-150 dv=0 dx=0 dy=0 dh=0 dv=0
PairPos2: "'kern' Horizontal Kerning lookup 15-1" uni06A9 dx=-150 dy=0 dh=-150 dv=0 dx=0 dy=0 dh=0 dv=0
PairPos2: "'kern' Horizontal Kerning lookup 15-1" uni0649 dx=-100 dy=0 dh=-100 dv=0 dx=0 dy=0 dh=0 dv=0
PairPos2: "'kern' Horizontal Kerning lookup 15-1" uni0647 dx=-150 dy=0 dh=-150 dv=0 dx=0 dy=0 dh=0 dv=0
PairPos2: "'kern' Horizontal Kerning lookup 15-1" uniFEE7 dx=-150 dy=0 dh=-150 dv=0 dx=0 dy=0 dh=0 dv=0
PairPos2: "'kern' Horizontal Kerning lookup 15-1" uniFEE3 dx=-150 dy=0 dh=-150 dv=0 dx=0 dy=0 dh=0 dv=0
PairPos2: "'kern' Horizontal Kerning lookup 15-1" uni0645 dx=-150 dy=0 dh=-150 dv=0 dx=0 dy=0 dh=0 dv=0
PairPos2: "'kern' Horizontal Kerning lookup 15-1" uniFEDB dx=-150 dy=0 dh=-150 dv=0 dx=0 dy=0 dh=0 dv=0
PairPos2: "'kern' Horizontal Kerning lookup 15-1" uniFED7 dx=-150 dy=0 dh=-150 dv=0 dx=0 dy=0 dh=0 dv=0
PairPos2: "'kern' Horizontal Kerning lookup 15-1" uniFED3 dx=-150 dy=0 dh=-150 dv=0 dx=0 dy=0 dh=0 dv=0
PairPos2: "'kern' Horizontal Kerning lookup 15-1" uni0641 dx=-150 dy=0 dh=-150 dv=0 dx=0 dy=0 dh=0 dv=0
PairPos2: "'kern' Horizontal Kerning lookup 15-1" uniFECF dx=-150 dy=0 dh=-150 dv=0 dx=0 dy=0 dh=0 dv=0
PairPos2: "'kern' Horizontal Kerning lookup 15-1" uniFECB dx=-150 dy=0 dh=-150 dv=0 dx=0 dy=0 dh=0 dv=0
PairPos2: "'kern' Horizontal Kerning lookup 15-1" uniFEC7 dx=-150 dy=0 dh=-150 dv=0 dx=0 dy=0 dh=0 dv=0
PairPos2: "'kern' Horizontal Kerning lookup 15-1" uni0638 dx=-150 dy=0 dh=-150 dv=0 dx=0 dy=0 dh=0 dv=0
PairPos2: "'kern' Horizontal Kerning lookup 15-1" uniFEC3 dx=-150 dy=0 dh=-150 dv=0 dx=0 dy=0 dh=0 dv=0
PairPos2: "'kern' Horizontal Kerning lookup 15-1" uni0637 dx=-150 dy=0 dh=-150 dv=0 dx=0 dy=0 dh=0 dv=0
PairPos2: "'kern' Horizontal Kerning lookup 15-1" uniFEBF dx=-150 dy=0 dh=-150 dv=0 dx=0 dy=0 dh=0 dv=0
PairPos2: "'kern' Horizontal Kerning lookup 15-1" uni0636 dx=-150 dy=0 dh=-150 dv=0 dx=0 dy=0 dh=0 dv=0
PairPos2: "'kern' Horizontal Kerning lookup 15-1" uniFEBB dx=-150 dy=0 dh=-150 dv=0 dx=0 dy=0 dh=0 dv=0
PairPos2: "'kern' Horizontal Kerning lookup 15-1" uni0635 dx=-150 dy=0 dh=-150 dv=0 dx=0 dy=0 dh=0 dv=0
PairPos2: "'kern' Horizontal Kerning lookup 15-1" uniFEB7 dx=-150 dy=0 dh=-150 dv=0 dx=0 dy=0 dh=0 dv=0
PairPos2: "'kern' Horizontal Kerning lookup 15-1" uni0634 dx=-150 dy=0 dh=-150 dv=0 dx=0 dy=0 dh=0 dv=0
PairPos2: "'kern' Horizontal Kerning lookup 15-1" uniFEB3 dx=-150 dy=0 dh=-150 dv=0 dx=0 dy=0 dh=0 dv=0
PairPos2: "'kern' Horizontal Kerning lookup 15-1" uni0633 dx=-150 dy=0 dh=-150 dv=0 dx=0 dy=0 dh=0 dv=0
PairPos2: "'kern' Horizontal Kerning lookup 15-1" uni0630 dx=-150 dy=0 dh=-150 dv=0 dx=0 dy=0 dh=0 dv=0
PairPos2: "'kern' Horizontal Kerning lookup 15-1" uni062F dx=-150 dy=0 dh=-150 dv=0 dx=0 dy=0 dh=0 dv=0
PairPos2: "'kern' Horizontal Kerning lookup 15-1" uniFEA7 dx=-150 dy=0 dh=-150 dv=0 dx=0 dy=0 dh=0 dv=0
PairPos2: "'kern' Horizontal Kerning lookup 15-1" uniFEA3 dx=-150 dy=0 dh=-150 dv=0 dx=0 dy=0 dh=0 dv=0
PairPos2: "'kern' Horizontal Kerning lookup 15-1" uniFE9F dx=-150 dy=0 dh=-150 dv=0 dx=0 dy=0 dh=0 dv=0
PairPos2: "'kern' Horizontal Kerning lookup 15-1" uniFE9B dx=-150 dy=0 dh=-150 dv=0 dx=0 dy=0 dh=0 dv=0
PairPos2: "'kern' Horizontal Kerning lookup 15-1" uni062B dx=-150 dy=0 dh=-150 dv=0 dx=0 dy=0 dh=0 dv=0
PairPos2: "'kern' Horizontal Kerning lookup 15-1" uniFE97 dx=-150 dy=0 dh=-150 dv=0 dx=0 dy=0 dh=0 dv=0
PairPos2: "'kern' Horizontal Kerning lookup 15-1" uni062A dx=-150 dy=0 dh=-150 dv=0 dx=0 dy=0 dh=0 dv=0
PairPos2: "'kern' Horizontal Kerning lookup 15-1" uni0629 dx=-150 dy=0 dh=-150 dv=0 dx=0 dy=0 dh=0 dv=0
PairPos2: "'kern' Horizontal Kerning lookup 15-1" uni0628 dx=-150 dy=0 dh=-150 dv=0 dx=0 dy=0 dh=0 dv=0
PairPos2: "'kern' Horizontal Kerning lookup 15-1" uni0627 dx=-170 dy=0 dh=-170 dv=0 dx=0 dy=0 dh=0 dv=0
PairPos2: "'kern' Horizontal Kerning lookup 15-1" uni0622 dx=-170 dy=0 dh=-170 dv=0 dx=0 dy=0 dh=0 dv=0
PairPos2: "'kern' Horizontal Kerning lookup 15-1" uniFB94 dx=-150 dy=0 dh=-150 dv=0 dx=0 dy=0 dh=0 dv=0
PairPos2: "'kern' Horizontal Kerning lookup 15-1" afii57509 dx=-150 dy=0 dh=-150 dv=0 dx=0 dy=0 dh=0 dv=0
PairPos2: "'kern' Horizontal Kerning lookup 15-1" uniFB56 dx=-150 dy=0 dh=-150 dv=0 dx=0 dy=0 dh=0 dv=0
PairPos2: "'kern' Horizontal Kerning lookup 15-1" afii57506 dx=-150 dy=0 dh=-150 dv=0 dx=0 dy=0 dh=0 dv=0
EndChar

StartChar: uniFEB2
Encoding: 65202 65202 198
Width: 2414
VWidth: 2186
GlyphClass: 2
Flags: W
AnchorPoint: "Anchor-10" 601 881.5 basechar 0
AnchorPoint: "Anchor-7" 436 -701.5 basechar 0
LayerCount: 2
Fore
SplineSet
1205.4 286.691 m 1,0,1
 1270.15 165.913 1270.15 165.913 1416.15 167.913 c 0,2,3
 1563.71 169.713 1563.71 169.713 1585.59 349.008 c 2,4,5
 1607.88 531.65 l 1,6,-1
 1729.32 531.65 l 1,7,8
 1743.98 363.008 l 2,9,10
 1761.97 156.063 1761.97 156.063 1920.93 160.507 c 0,11,12
 2027.93 163.497 2027.93 163.497 2042.41 374.115 c 2,13,-1
 2058.24 604.36 l 1,14,-1
 2180.63 604.36 l 5,15,-1
 2198.9 387.513 l 6,16,17
 2211.55 237.337 2211.55 237.337 2261.69 199.845 c 0,18,19
 2302.43 169.38 2302.43 169.38 2407.46 169.38 c 2,20,-1
 2434.33 169.38 l 1,21,-1
 2434.33 0.5 l 1,22,-1
 2378.92 0.5 l 2,23,24
 2194.15 0.500007 2194.15 0.500007 2128.56 116.384 c 2,25,-1
 2124.37 123.787 l 1,26,-1
 2119.94 116.52 l 2,27,28
 2047.87 -1.70621 2047.87 -1.70621 1891.46 0 c 0,29,30
 1731.99 1.38184 1731.99 1.38184 1668.19 136.944 c 1,31,32
 1607.12 -0.980423 1607.12 -0.980423 1443.81 0 c 0,33,34
 1248.18 1.17969 1248.18 1.17969 1223.64 74.0156 c 1,35,36
 1219.13 -481.115 1219.13 -481.115 662.25 -488.25 c 0,37,38
 121.254 -495.181 121.254 -495.181 91.3916 9.85449 c 0,39,40
 86.9453 85.0518 86.9453 85.0518 107.469 190.831 c 0,41,42
 128.946 301.524 128.946 301.524 176.646 402.498 c 1,43,-1
 320.845 352.996 l 1,44,45
 232.274 137.498 232.274 137.498 250.783 -2.3623 c 0,46,47
 294.15 -330.066 294.15 -330.066 656.923 -331.072 c 0,48,49
 1043.6 -332.128 1043.6 -332.128 1085.12 0 c 0,50,51
 1112.03 215.263 1112.03 215.263 979.776 384.141 c 1,52,-1
 1113 510.98 l 1,53,54
 1147.7 429.423 1147.7 429.423 1205.4 286.691 c 1,0,1
EndSplineSet
EndChar

StartChar: uniFEB3
Encoding: 65203 65203 199
Width: 1522
VWidth: 2181
GlyphClass: 2
Flags: W
AnchorPoint: "Anchor-10" 642.5 953.5 basechar 0
AnchorPoint: "Anchor-7" 662.5 -190 basechar 0
LayerCount: 2
Fore
SplineSet
256.955 41.0439 m 0,0,1
 195.247 0 195.247 0 64.7002 0 c 2,2,-1
 -20.4004 0 l 1,3,-1
 -20.4004 168.98 l 1,4,-1
 5.84961 168.98 l 2,5,6
 267.499 168.98 267.499 168.98 282.557 368.246 c 2,7,-1
 294.257 523.07 l 1,8,-1
 404.134 523.07 l 1,9,-1
 419.195 368.333 l 2,10,11
 439.304 161.731 439.304 161.731 621.69 159.633 c 0,12,13
 794.06 157.632 794.06 157.632 810.28 295.133 c 2,14,-1
 837.168 523.07 l 1,15,-1
 944.126 523.07 l 1,16,-1
 966.199 317.195 l 2,17,18
 985.27 139.322 985.27 139.322 1146.89 158.633 c 0,19,20
 1212.4 166.596 1212.4 166.596 1242.26 223.453 c 0,21,22
 1283.06 301.146 1283.06 301.146 1268.26 423.453 c 0,23,24
 1261.79 476.877 1261.79 476.877 1231.26 645.453 c 1,25,-1
 1374.25 691.276 l 1,26,27
 1413.65 578.039 1413.65 578.039 1423.26 445.453 c 0,28,29
 1438.83 219.565 1438.83 219.565 1358.26 107.453 c 0,30,31
 1282.97 1.39551 1282.97 1.39551 1120.74 0.5 c 0,32,33
 1052.38 0.0175781 1052.38 0.0175781 1017.19 15.5283 c 0,34,35
 920.973 57.4863 920.973 57.4863 891.276 145.038 c 1,36,37
 845.051 -1.52539 845.051 -1.52539 590.457 0.00585938 c 0,38,39
 408.504 1.62297 408.504 1.62297 344.723 126.195 c 1,40,41
 311.923 77.6045 311.923 77.6045 256.955 41.0439 c 0,0,1
EndSplineSet
EndChar

StartChar: uniFEB4
Encoding: 65204 65204 200
Width: 1688
VWidth: 2176
GlyphClass: 2
Flags: W
AnchorPoint: "Anchor-10" 662.5 948.5 basechar 0
AnchorPoint: "Anchor-7" 755.5 -210 basechar 0
LayerCount: 2
Fore
SplineSet
1148.27 2.12402 m 0,0,1
 973 0 973 0 925.694 143.844 c 1,2,3
 839 1 839 1 626.672 3.20996 c 0,4,5
 458 5 458 5 363.396 131.952 c 1,6,7
 352 102 352 102 281.335 55.1631 c 0,8,9
 198 0 198 0 63.207 0 c 2,10,-1
 -20.2744 0 l 1,11,-1
 -20.2744 168.979 l 1,12,-1
 55.6953 168.979 l 1,13,14
 269.757426003 170.997712406 269.757426003 170.997712406 290.401 324.212 c 2,15,-1
 317.503 525.36 l 1,16,-1
 423.973 525.36 l 1,17,-1
 447.027 361.384 l 2,18,19
 474 171 474 171 648.206 165.678 c 0,20,21
 824.5828478 160.013397458 824.5828478 160.013397458 847.842 328.45 c 2,22,-1
 875.033 525.36 l 1,23,-1
 978.082 525.36 l 1,24,-1
 1005.74 313.805 l 2,25,26
 1025 166 1025 166 1158.3 165.607 c 0,27,28
 1287.44829468 164.997885665 1287.44829468 164.997885665 1302.96 328.293 c 2,29,-1
 1328.2 594 l 1,30,-1
 1433.73 594 l 1,31,-1
 1460.26 360.123 l 2,32,33
 1473.34789648 244.745767953 1473.34789648 244.745767953 1525 207 c 4,34,35
 1576 170 1576 170 1683.45019531 169.879882812 c 2,36,-1
 1708.63964844 169.879882812 l 1,37,-1
 1708.63964844 0 l 1,38,-1
 1657.66 0 l 2,39,40
 1447 0 1447 0 1383.83 134.26 c 1,41,42
 1337 4 1337 4 1148.27 2.12402 c 0,0,1
EndSplineSet
EndChar

StartChar: uniFEBA
Encoding: 65210 65210 206
Width: 2516
VWidth: 2181
GlyphClass: 2
Flags: W
AnchorPoint: "Anchor-10" 628 981.5 basechar 0
AnchorPoint: "Anchor-7" 415 -673.5 basechar 0
LayerCount: 2
Fore
SplineSet
1428.88 179.508 m 1,0,-1
 1607.66 179.508 l 2,1,2
 1906.83 179.508 1906.83 179.508 2016.59 222.5 c 0,3,4
 2130.07 266.943 2130.07 266.943 2148.76 353.84 c 1,5,6
 2157.79 424.201 2157.79 424.201 2125.38 468.324 c 0,7,8
 2088.5 519.504 2088.5 519.504 2012.02 530.602 c 0,9,10
 1880.22 549.604 1880.22 549.604 1744.07 464.945 c 0,11,12
 1560.52 352.879 1560.52 352.879 1428.88 179.508 c 1,0,-1
1390.25 -1.65527 m 2,13,14
 1297.56 -2.04395 1297.56 -2.04395 1241.07 73.75 c 1,15,-1
 1223.64 74.0156 l 1,16,17
 1219.14 -481.116 1219.14 -481.116 662.25 -488.25 c 0,18,19
 121.254 -495.181 121.254 -495.181 91.3916 9.85449 c 0,20,21
 86.9453 85.0518 86.9453 85.0518 107.469 190.831 c 0,22,23
 128.946 301.524 128.946 301.524 176.646 402.498 c 1,24,-1
 320.845 352.996 l 1,25,26
 232.274 137.498 232.274 137.498 250.783 -2.3623 c 0,27,28
 294.15 -330.066 294.15 -330.066 656.923 -331.072 c 0,29,30
 1043.61 -332.128 1043.61 -332.128 1085.12 0 c 0,31,32
 1112.03 215.263 1112.03 215.263 979.776 384.141 c 1,33,-1
 1113 510.98 l 1,34,35
 1147.7 429.423 1147.7 429.423 1205.4 286.691 c 9,36,37
 1228.91 233.149 1228.91 233.149 1287.55 228.334 c 1,38,39
 1511.03 551.244 1511.03 551.244 1758.07 657.943 c 0,40,41
 1995.34 760.426 1995.34 760.426 2174.57 653.445 c 0,42,43
 2338.28 555.73 2338.28 555.73 2307.54 328.5 c 0,44,45
 2303.41 297.283 2303.41 297.283 2292.89 268.334 c 1,46,47
 2372.06 168.881 2372.06 168.881 2495.25 168.881 c 2,48,-1
 2538.54 168.881 l 1,49,-1
 2538.54 0 l 1,50,-1
 2473.85 0 l 2,51,52
 2248.62 0 2248.62 0 2188.62 127.834 c 1,53,54
 2175.55 117.141 2175.55 117.141 2161.07 106.945 c 0,55,56
 2007.2 0.93457 2007.2 0.93457 1665.44 -0.5 c 2,57,-1
 1390.25 -1.65527 l 2,13,14
EndSplineSet
EndChar

StartChar: uniFEBB
Encoding: 65211 65211 207
Width: 1658
VWidth: 2181
GlyphClass: 2
Flags: W
AnchorPoint: "Anchor-10" 548.3 1069.8 basechar 0
AnchorPoint: "Anchor-7" 667.3 -253 basechar 0
LayerCount: 2
Fore
SplineSet
685.39 180.009 m 1,0,-1
 864.165 180.009 l 2,1,2
 1163.34 180.009 1163.34 180.009 1273.1 223 c 0,3,4
 1386.57 267.444 1386.57 267.444 1405.27 354.341 c 1,5,6
 1414.29 424.701 1414.29 424.701 1381.89 468.824 c 0,7,8
 1345.01 520.005 1345.01 520.005 1268.53 531.102 c 0,9,10
 1136.73 550.104 1136.73 550.104 1000.57 465.445 c 0,11,12
 817.031 353.379 817.031 353.379 685.39 180.009 c 1,0,-1
921.948 0 m 2,13,-1
 662.956 0.670898 l 2,14,15
 441.3 1.24512 441.3 1.24512 346 156.189 c 1,16,17
 230.564 0 230.564 0 60.9902 0 c 2,18,-1
 -20.4004 0 l 1,19,-1
 -20.4004 168.98 l 1,20,-1
 2.13965 168.98 l 2,21,22
 116.95 168.98 116.95 168.98 172 212.189 c 0,23,24
 266.547 286.422 266.547 286.422 270.212 385.366 c 2,25,-1
 275.608 531.04 l 1,26,-1
 422.008 531.04 l 1,27,-1
 428.526 364.189 l 2,28,29
 433.038 248.681 433.038 248.681 544.06 228.834 c 1,30,31
 767.537 551.746 767.537 551.746 1014.57 658.444 c 0,32,33
 1251.85 760.927 1251.85 760.927 1431.08 653.945 c 0,34,35
 1594.79 556.23 1594.79 556.23 1564.05 329 c 0,36,37
 1546.76 198.383 1546.76 198.383 1417.57 107.445 c 0,38,39
 1266.01 -0.891602 1266.01 -0.891602 921.948 0 c 2,13,-1
EndSplineSet
EndChar

StartChar: uniFEBC
Encoding: 65212 65212 208
Width: 1781
VWidth: 2181
GlyphClass: 2
Flags: W
AnchorPoint: "Anchor-10" 580.5 1134.5 basechar 0
AnchorPoint: "Anchor-7" 666.5 -260 basechar 0
LayerCount: 2
Fore
SplineSet
692.142 180.008 m 1,0,-1
 870.917 180.008 l 2,1,2
 1170.09 180.008 1170.09 180.008 1279.85 223 c 0,3,4
 1393.33 267.443 1393.33 267.443 1412.02 354.34 c 1,5,6
 1421.05 424.701 1421.05 424.701 1388.64 468.824 c 0,7,8
 1351.76 520.004 1351.76 520.004 1275.28 531.102 c 0,9,10
 1143.48 550.104 1143.48 550.104 1007.33 465.445 c 0,11,12
 823.782 353.379 823.782 353.379 692.142 180.008 c 1,0,-1
1451.88 128.333 m 1,13,14
 1438.81 117.64 1438.81 117.64 1424.33 107.445 c 0,15,16
 1270.46 -0.86282 1270.46 -0.86282 928.7 0 c 2,17,-1
 662.956 0.670898 l 2,18,19
 441.3 1.23049 441.3 1.23049 346 156.189 c 1,20,21
 230.564 0 230.564 0 60.9902 0 c 2,22,-1
 -20.4004 0 l 1,23,-1
 -20.4004 168.98 l 1,24,-1
 2.13965 168.98 l 2,25,26
 116.95 168.98 116.95 168.98 172 212.189 c 0,27,28
 266.547 286.422 266.547 286.422 270.212 385.366 c 2,29,-1
 275.608 531.04 l 1,30,-1
 422.008 531.04 l 1,31,-1
 428.526 364.189 l 2,32,33
 434.143 220.41 434.143 220.41 550.812 228.834 c 1,34,35
 774.288 551.744 774.288 551.744 1021.33 658.443 c 0,36,37
 1258.6 760.926 1258.6 760.926 1437.83 653.945 c 0,38,39
 1601.54 556.23 1601.54 556.23 1570.8 329 c 0,40,41
 1566.67 297.783 1566.67 297.783 1556.15 268.833 c 1,42,43
 1635.32 169.38 1635.32 169.38 1758.51 169.38 c 2,44,-1
 1801.8 169.38 l 1,45,-1
 1801.8 0.5 l 1,46,-1
 1737.11 0.5 l 2,47,48
 1511.87 0.5 1511.87 0.5 1451.88 128.333 c 1,13,14
EndSplineSet
EndChar

StartChar: uniFEC2
Encoding: 65218 65218 214
Width: 1594
VWidth: 2181
GlyphClass: 2
Flags: W
AnchorPoint: "Anchor-7" 660.13 -225 basechar 0
AnchorPoint: "Anchor-10" 304.67 1590.79 basechar 0
LayerCount: 2
Fore
SplineSet
505.142 180.008 m 1,0,-1
 683.917 180.008 l 2,1,2
 983.089 180.008 983.089 180.008 1092.85 223 c 0,3,4
 1206.33 267.443 1206.33 267.443 1225.02 354.34 c 1,5,6
 1234.05 424.701 1234.05 424.701 1201.64 468.824 c 0,7,8
 1164.76 520.004 1164.76 520.004 1088.28 531.102 c 0,9,10
 956.484 550.104 956.484 550.104 820.325 465.445 c 0,11,12
 636.782 353.379 636.782 353.379 505.142 180.008 c 1,0,-1
363.812 228.834 m 1,13,14
 587.288 551.744 587.288 551.744 834.325 658.443 c 0,15,16
 1071.6 760.926 1071.6 760.926 1250.83 653.945 c 0,17,18
 1414.54 556.23 1414.54 556.23 1383.8 329 c 0,19,20
 1379.67 297.783 1379.67 297.783 1369.15 268.833 c 1,21,22
 1448.32 169.38 1448.32 169.38 1571.51 169.38 c 2,23,-1
 1614.8 169.38 l 1,24,-1
 1614.8 0.5 l 1,25,-1
 1550.11 0.5 l 2,26,27
 1324.88 0.5 1324.88 0.5 1264.88 128.333 c 1,28,29
 1251.81 117.64 1251.81 117.64 1237.33 107.445 c 0,30,31
 1083.47 0 1083.47 0 741.7 0 c 2,32,-1
 91.5996 0 l 1,33,-1
 91.5996 168.98 l 1,34,-1
 246.13 168.98 l 1,35,-1
 201.13 1398.89 l 1,36,-1
 363.01 1470.89 l 1,37,-1
 363.812 228.834 l 1,13,14
EndSplineSet
EndChar

StartChar: uniFEC3
Encoding: 65219 65219 215
Width: 1460
VWidth: 2181
GlyphClass: 2
Flags: W
AnchorPoint: "Anchor-10" 290.57 1595.47 basechar 0
AnchorPoint: "Anchor-7" 540.57 -238 basechar 0
LayerCount: 2
Fore
SplineSet
490.34 180.009 m 1,0,-1
 669.115 180.009 l 2,1,2
 968.287 180.009 968.287 180.009 1078.05 223 c 0,3,4
 1191.52 267.445 1191.52 267.445 1210.22 354.341 c 1,5,6
 1219.24 424.701 1219.24 424.701 1186.84 468.824 c 0,7,8
 1149.96 520.005 1149.96 520.005 1073.48 531.102 c 0,9,10
 941.683 550.104 941.683 550.104 805.523 465.445 c 0,11,12
 621.981 353.379 621.981 353.379 490.34 180.009 c 1,0,-1
726.898 0 m 2,13,-1
 -20.25 0 l 1,14,-1
 -20.25 168.979 l 1,15,-1
 233.28 168.98 l 1,16,-1
 190.28 1407.89 l 5,17,-1
 349.16 1470.89 l 1,18,-1
 349.01 228.834 l 1,19,20
 572.487 551.746 572.487 551.746 819.523 658.444 c 0,21,22
 1056.8 760.927 1056.8 760.927 1236.03 653.945 c 0,23,24
 1399.73 556.23 1399.73 556.23 1369 329 c 0,25,26
 1351.71 198.383 1351.71 198.383 1222.52 107.445 c 0,27,28
 1070.96 0 1070.96 0 726.898 0 c 2,13,-1
EndSplineSet
EndChar

StartChar: uniFEC4
Encoding: 65220 65220 216
Width: 1590
VWidth: 2181
GlyphClass: 2
Flags: W
AnchorPoint: "Anchor-10" 270.27 1584.79 basechar 0
AnchorPoint: "Anchor-7" 588.73 -210 basechar 0
LayerCount: 2
Fore
SplineSet
501.141601562 180.0078125 m 1,0,-1
 679.916992188 180.0078125 l 2,1,2
 979.088867188 180.0078125 979.088867188 180.0078125 1088.8515625 223 c 0,3,4
 1202.33007812 267.443359375 1202.33007812 267.443359375 1221.01953125 354.33984375 c 1,5,6
 1230.04980469 424.701171875 1230.04980469 424.701171875 1197.63964844 468.82421875 c 0,7,8
 1160.75976562 520.00390625 1160.75976562 520.00390625 1084.28222656 531.1015625 c 0,9,10
 952.484375 550.103515625 952.484375 550.103515625 816.325195312 465.4453125 c 0,11,12
 632.782226562 353.37890625 632.782226562 353.37890625 501.141601562 180.0078125 c 1,0,-1
359.811523438 228.833984375 m 1,13,14
 583 552 583 552 830.325195312 658.443359375 c 0,15,16
 1068 761 1068 761 1246.83007812 653.9453125 c 0,17,18
 1408 558 1408 558 1379.79980469 329 c 0,19,20
 1376 298 1376 298 1365.15039062 268.833007812 c 1,21,22
 1443.69996285 169.379882812 1443.69996285 169.379882812 1567.50976562 169.379882812 c 2,23,-1
 1610.79980469 169.379882812 l 1,24,-1
 1610.79980469 0.5 l 1,25,-1
 1546.11035156 0.5 l 2,26,27
 1321 0 1321 0 1260.87988281 128.333007812 c 1,28,29
 1248 118 1248 118 1233.33007812 107.4453125 c 0,30,31
 1079 0 1079 0 737.700195312 0 c 2,32,-1
 -21 0 l 1,33,-1
 -21 168.98046875 l 1,34,-1
 242.129882812 168.98046875 l 1,35,-1
 197.129882812 1398.88964844 l 1,36,-1
 361.009765625 1470.88964844 l 1,37,-1
 359.811523438 228.833984375 l 1,13,14
EndSplineSet
EndChar

StartChar: uniFECA
Encoding: 65226 65226 222
Width: 1191
VWidth: 2181
GlyphClass: 2
Flags: W
AnchorPoint: "Anchor-10" 487 1133.05 basechar 0
AnchorPoint: "Anchor-7" 351.69 -765.64 basechar 0
LayerCount: 2
Fore
SplineSet
573 295 m 1,0,1
 550 282 l 0,2,3
 249 118 249 118 249.080300918 -135.163900457 c 0,4,5
 249 -283 249 -283 358.662030295 -370.79663302 c 0,6,7
 466 -458 466 -458 734.761503382 -458.520678561 c 0,8,9
 886 -459 886 -459 1029 -418 c 1,10,-1
 1080 -556 l 1,11,12
 898 -612 898 -612 734.819335938 -612.13671875 c 4,13,14
 332 -612 332 -612 186.438 -440.049 c 0,15,16
 89 -325 89 -325 89.2664866841 -144.451843581 c 0,17,18
 89 29 89 29 198.287109375 167.217773438 c 0,19,20
 302 298 302 298 463.58984375 381.57421875 c 1,21,22
 329 438 329 438 228.580078125 522.211914062 c 0,23,24
 140 596 140 596 146.858398438 680.500976562 c 0,25,26
 153 769 153 769 285.858398438 829.500976562 c 0,27,28
 393 879 393 879 568.858398438 882.500976562 c 0,29,30
 656 884 656 884 734.58984375 876.26953125 c 0,31,32
 913 858 913 858 965.169921875 758.2109375 c 0,33,34
 993 704 993 704 978.169921875 642.2109375 c 0,35,36
 948 518 948 518 696.169921875 379.2109375 c 1,37,38
 923.588276748 169.379882812 923.588276748 169.379882812 1150.5 169.379882812 c 2,39,-1
 1211.70019531 169.379882812 l 1,40,-1
 1211.70019531 0.5 l 1,41,-1
 1178.62011719 0.5 l 2,42,43
 852 0 852 0 573 295 c 1,0,1
583.662109375 742.999023438 m 0,44,45
 511 743 511 743 453.469726562 733.215820312 c 0,46,47
 277 704 277 704 300.169921875 648.368164062 c 0,48,49
 315 614 315 614 391.478515625 564.668945312 c 0,50,51
 488 503 488 503 583.662109375 458.521484375 c 1,52,53
 694 508 694 508 781 575.469726562 c 0,54,55
 839 621 839 621 838.8671875 649.0390625 c 0,56,57
 839 716 839 716 713.477539062 733.275390625 c 0,58,59
 644 743 644 743 583.662109375 742.999023438 c 0,44,45
EndSplineSet
EndChar

StartChar: uniFECB
Encoding: 65227 65227 223
Width: 1014
VWidth: 2181
GlyphClass: 2
Flags: W
AnchorPoint: "Anchor-10" 373.265 1216.23 basechar 0
AnchorPoint: "Anchor-7" 498.6 -245.5 basechar 0
LayerCount: 2
Fore
SplineSet
38.3301 168.98 m 6,0,1
 201.983 168.98 201.983 168.98 206.914 168.969 c 6,2,-1
 249.32 169.029 l 5,3,4
 57.7734 361.607 57.7734 361.607 159.3 598.793 c 4,5,6
 244.781 797.449 244.781 797.449 503.3 817 c 4,7,8
 707.623 832.526 707.623 832.526 854.98 693.572 c 5,9,-1
 799.854 576.417 l 5,10,11
 631.488 682.555 631.488 682.555 469.3 656.793 c 4,12,13
 300.723 629.904 300.723 629.904 275.011 469.952 c 132,-1,14
 249.3 310 249.3 310 417.3 192 c 4,15,16
 456.617 164.384 456.617 164.384 632.72 198.519 c 6,17,-1
 926 255.365 l 5,18,-1
 926 103.302 l 5,19,20
 524.676 -0.0247038 524.676 -0.0247038 324.357 -0.015625 c 6,21,-1
 -20.4004 0 l 5,22,-1
 -20.4004 168.98 l 5,23,-1
 38.3301 168.98 l 6,0,1
EndSplineSet
EndChar

StartChar: uniFECC
Encoding: 65228 65228 224
Width: 1012
VWidth: 2181
GlyphClass: 2
Flags: W
AnchorPoint: "Anchor-10" 457.58 1068.5 basechar 0
AnchorPoint: "Anchor-7" 493.58 -200.5 basechar 0
LayerCount: 2
Fore
SplineSet
518.072 623.729 m 0,0,1
 445.899 623.729 445.899 623.729 387.88 613.946 c 0,2,3
 211.627 584.619 211.627 584.619 234.58 529.099 c 0,4,5
 249.544 494.29 249.544 494.29 325.89 445.399 c 0,6,7
 421.99 383.857 421.99 383.857 518.072 339.251 c 1,8,9
 600.236 374.441 600.236 374.441 704.58 447.764 c 0,10,11
 773.277 496.74 773.277 496.74 773.277 529.77 c 0,12,13
 773.277 596.434 773.277 596.434 647.888 614.006 c 0,14,15
 578.498 623.729 578.498 623.729 518.072 623.729 c 0,0,1
630.58 259.941 m 1,16,17
 777.267 167.987 777.267 167.987 960.862 168.98 c 2,18,-1
 1030.56 169.357 l 1,19,-1
 1030.56 0.5 l 1,20,-1
 937.3 0.5 l 2,21,22
 686.808 0.500021 686.808 0.500021 518.53 161.022 c 2,23,-1
 515.08 164.313 l 1,24,-1
 511.629 161.022 l 2,25,26
 342.778 0 342.778 0 89.8604 0 c 2,27,-1
 -20.4004 0 l 5,28,-1
 -20.4004 168.98 l 5,29,-1
 66.3203 168.98 l 2,30,31
 290.579 168.979 290.579 168.979 400 262.305 c 1,32,33
 263.897 321.144 263.897 321.144 162.99 402.942 c 0,34,35
 74.6211 474.577 74.6211 474.577 81.2686 561.231 c 0,36,37
 87.8193 649.411 87.8193 649.411 220.269 710.231 c 0,38,39
 327.271 759.754 327.271 759.754 503.269 763.231 c 0,40,41
 590.571 764.915 590.571 764.915 669 757 c 0,42,43
 847.767 738.494 847.767 738.494 899.58 638.941 c 0,44,45
 927.777 584.311 927.777 584.311 912.58 522.941 c 0,46,47
 881.283 397.234 881.283 397.234 630.58 259.941 c 1,16,17
EndSplineSet
EndChar

StartChar: uniFEDA
Encoding: 65242 65242 238
Width: 1840
VWidth: 2181
GlyphClass: 2
Flags: W
AnchorPoint: "Anchor-10" 539 1367.5 basechar 0
AnchorPoint: "Anchor-7" 570 -228.5 basechar 0
LayerCount: 2
Fore
SplineSet
751.279 0 m 0,0,1
 521.411 0.441527 521.411 0.441527 425.779 31.3779 c 0,2,3
 125.526 128.509 125.526 128.509 96.376 450.233 c 0,4,5
 86.2451 558.573 86.2451 558.573 127.76 702.758 c 1,6,-1
 256.475 668.796 l 1,7,8
 230.52 526.926 230.52 526.926 233.538 475.238 c 0,9,10
 243.504 230.165 243.504 230.165 561.779 183.378 c 0,11,12
 658.67 169.135 658.67 169.135 812 167.48 c 0,13,14
 1014.98 165.392 1014.98 165.392 1131.14 176.459 c 0,15,16
 1498.38 209.988 1498.38 209.988 1513.52 391.131 c 0,17,-1
 1517.43 436.814 l 2,18,-1
 1477.43 1393.96 l 5,19,-1
 1634.3 1470.96 l 5,20,-1
 1634.3 406.814 l 2,21,22
 1634.3 388.169 1634.3 388.169 1631.66 352.496 c 0,23,24
 1628.02 303.31 1628.02 303.31 1609.88 251.267 c 2,25,-1
 1609.01 248.771 l 1,26,-1
 1610.58 246.649 l 2,27,28
 1667.75 169.38 1667.75 169.38 1795.97 169.38 c 2,29,-1
 1860.22 169.38 l 1,30,-1
 1860.22 0.5 l 1,31,-1
 1737.12 0.5 l 2,32,33
 1634.54 0.500048 1634.54 0.500048 1503.77 107.786 c 2,34,-1
 1501.03 110.034 l 1,35,-1
 1498 108.188 l 2,36,37
 1407.87 53.2802 1407.87 53.2802 1262.3 28.4834 c 0,38,39
 1081.43 -1.44922 1081.43 -1.44922 751.279 0 c 0,0,1
1045.77 1181.06 m 1,40,-1
 1045.77 1129.12 l 1,41,42
 976.084 1123.99 976.084 1123.99 937.614 1109.81 c 0,43,44
 840.33 1073.34 840.33 1073.34 840.33 1025.55 c 0,45,46
 840.33 989.411 840.33 989.411 859.004 965.402 c 0,47,48
 876.196 942.479 876.196 942.479 956.292 930.699 c 0,49,50
 1005.69 923.436 1005.69 923.436 1030.62 900.664 c 0,51,52
 1055.05 878.351 1055.05 878.351 1055.05 838.298 c 0,53,54
 1055.05 742.199 1055.05 742.199 965.839 691.751 c 0,55,56
 896.97 652.804 896.97 652.804 802.689 651.929 c 0,57,58
 742.751 651.929 742.751 651.929 690.148 660.715 c 1,59,-1
 690.148 719.167 l 1,60,61
 750.907 711.158 750.907 711.158 793.059 711.158 c 0,62,63
 867.867 711.158 867.867 711.158 916.098 730.146 c 0,64,65
 1000.45 762.542 1000.45 762.542 1000.45 816.898 c 0,66,67
 1000.45 877.435 1000.45 877.435 902.515 893.393 c 0,68,69
 845.717 902.048 845.717 902.048 814.966 933.498 c 128,-1,70
 784.138 965.029 784.138 965.029 785.373 1021.9 c 0,71,72
 787.251 1097.81 787.251 1097.81 857.895 1133.61 c 0,73,74
 938.2 1174.24 938.2 1174.24 1045.77 1181.06 c 1,40,-1
EndSplineSet
EndChar

StartChar: uniFEDB
Encoding: 65243 65243 239
Width: 896
VWidth: 2181
GlyphClass: 2
Flags: W
AnchorPoint: "Anchor-10" 206.5 1380 basechar 0
AnchorPoint: "Anchor-7" 305 -230 basechar 0
LayerCount: 2
Fore
SplineSet
616 268 m 0,0,1
 551 0 551 0 157.875 0 c 2,2,-1
 -20.400390625 0 l 1,3,-1
 -20.400390625 168.98046875 l 1,4,-1
 237.875 169.129882812 l 2,5,6
 454 169 454 169 481.875 306.973632812 c 0,7,8
 498.084746427 385.410074782 498.084746427 385.410074782 420.875 471.129882812 c 2,9,-1
 159.91796875 760.849609375 l 2,10,11
 70 861 70 861 67.375 929 c 0,12,13
 62.9972613156 1042.07073631 62.9972613156 1042.07073631 181.375 1105.96972656 c 2,14,-1
 856.25 1470.25976562 l 1,15,-1
 856.25 1303.44042969 l 1,16,-1
 196.908203125 946.02734375 l 1,17,-1
 528 580 l 2,18,19
 629.010127278 468.331668352 629.010127278 468.331668352 625 337 c 0,20,21
 624 300 624 300 616 268 c 0,0,1
EndSplineSet
EndChar

StartChar: uniFEDC
Encoding: 65244 65244 240
Width: 1023
VWidth: 2181
GlyphClass: 2
Flags: W
AnchorPoint: "Anchor-10" 206.5 1380 basechar 0
AnchorPoint: "Anchor-7" 317 -220 basechar 0
LayerCount: 2
Fore
SplineSet
610.875 261.974 m 1,0,1
 586.814 0 586.814 0 157.875 0 c 2,2,-1
 -20.4004 0 l 1,3,-1
 -20.4004 168.98 l 1,4,-1
 237.875 169.13 l 2,5,6
 453.551 169.255 453.551 169.255 481.875 306.974 c 0,7,8
 498.021 385.481 498.021 385.481 420.875 471.13 c 2,9,-1
 159.918 760.85 l 2,10,11
 70.1635 860.497 70.1635 860.497 67.375 929 c 0,12,13
 62.7923 1041.96 62.7923 1041.96 181.375 1105.97 c 2,14,-1
 856.25 1470.26 l 1,15,-1
 856.25 1303.44 l 1,16,-1
 196.908 946.027 l 1,17,-1
 812.541 262.641 l 2,18,19
 896.906 168.991 896.906 168.991 1009.72 169.291 c 2,20,-1
 1043.15 169.38 l 1,21,-1
 1043.15 0.5 l 1,22,-1
 979.41 0.5 l 2,23,24
 808 0.5 808 0.5 610.875 261.974 c 1,0,1
EndSplineSet
EndChar

StartChar: uniFEDE
Encoding: 65246 65246 242
Width: 1422
VWidth: 2181
GlyphClass: 2
Flags: W
AnchorPoint: "Anchor-10" 426.5 880.5 basechar 0
AnchorPoint: "Anchor-7" 376.974 -774.619 basechar 0
LayerCount: 2
Fore
SplineSet
1164.46 76.3203 m 1,0,1
 1143.99 -128.075 1143.99 -128.075 1099.62 -225.075 c 0,2,3
 981.628 -485.28 981.628 -485.28 621 -500 c 0,4,5
 337.164 -511.681 337.164 -511.681 199.631 -366 c 0,6,7
 73.755 -234.405 73.755 -234.405 77.3721 -8.94531 c 0,8,9
 80.668 212.371 80.668 212.371 164.749 379.371 c 1,10,-1
 318.749 341.371 l 1,11,12
 224.413 151.849 224.413 151.849 229.053 -5.81641 c 0,13,14
 233.656 -179.05 233.656 -179.05 328.631 -262 c 0,15,16
 441.235 -359.892 441.235 -359.892 641.419 -348.949 c 0,17,18
 799.376 -341.006 799.376 -341.006 908 -262 c 0,19,20
 1039.92 -165.704 1039.92 -165.704 1042.54 106.819 c 2,21,-1
 1044.13 272.14 l 1,22,-1
 1009.4 1399.83 l 5,23,-1
 1167.28 1470.83 l 5,24,-1
 1167.28 400.31 l 2,25,26
 1167.28 279.43 1167.28 279.43 1224.98 221.732 c 0,27,28
 1277.34 169.38 1277.34 169.38 1380.72 169.38 c 2,29,-1
 1441.97 169.38 l 1,30,-1
 1441.97 0.5 l 1,31,-1
 1394.87 0.5 l 2,32,33
 1272.65 0.5 1272.65 0.5 1164.46 76.3203 c 1,0,1
EndSplineSet
EndChar

StartChar: uniFEDF
Encoding: 65247 65247 243
Width: 532
VWidth: 2181
GlyphClass: 2
Flags: W
AnchorPoint: "Anchor-10" 297.73 1587 basechar 0
AnchorPoint: "Anchor-7" 230.73 -194.5 basechar 0
LayerCount: 2
Fore
SplineSet
393.17 436.69 m 6,0,1
 393.17 204.907 393.17 204.907 295.885 97.8965 c 4,2,3
 206.885 0 206.885 0 61.7002 0 c 6,4,-1
 -20.4004 0 l 5,5,-1
 -20.4004 168.98 l 5,6,-1
 12.8496 168.98 l 6,7,8
 152 168.98 152 168.98 215.957 248.894 c 4,9,10
 278.192 326.666 278.192 326.666 273.29 449.53 c 6,11,-1
 235.29 1402.03 l 5,12,-1
 393.17 1471.03 l 5,13,-1
 393.17 436.69 l 6,0,1
EndSplineSet
EndChar

StartChar: uniFEE0
Encoding: 65248 65248 244
Width: 615
VWidth: 2181
GlyphClass: 2
Flags: W
AnchorPoint: "Anchor-10" 277.73 1583 basechar 0
AnchorPoint: "Anchor-7" 243.73 -244.5 basechar 0
LayerCount: 2
Fore
SplineSet
273.32 94.5264 m 2,0,1
 188.675 -4.05053e-07 188.675 -4.05053e-07 80.7002 0 c 2,2,-1
 -20.4004 0 l 1,3,-1
 -20.4004 168.98 l 1,4,-1
 21.8496 168.98 l 2,5,6
 127.746 168.98 127.746 168.98 186.495 221.642 c 0,7,8
 251.954 280.402 251.954 280.402 247.29 400.31 c 2,9,-1
 208.29 1402.96 l 1,10,-1
 365.17 1469.96 l 1,11,-1
 365.17 400.31 l 2,12,13
 365.17 281.417 365.17 281.417 424.871 221.732 c 0,14,15
 477.625 168.98 477.625 168.98 594.61 168.98 c 2,16,-1
 635.86 168.98 l 1,17,-1
 635.86 0 l 1,18,-1
 535.76 0 l 2,19,20
 386.989 -1.40678e-05 386.989 -1.40678e-05 299.987 94.6973 c 2,21,-1
 286.56 109.312 l 1,22,-1
 273.32 94.5264 l 2,0,1
EndSplineSet
EndChar

StartChar: uniFEE2
Encoding: 65250 65250 246
Width: 1114
VWidth: 2181
GlyphClass: 2
Flags: W
AnchorPoint: "Anchor-10" 551.5 991 basechar 0
AnchorPoint: "Anchor-7" 189.188 -758.422 basechar 0
LayerCount: 2
Fore
SplineSet
460.696 385.557 m 1,0,1
 467.831 185.716 467.831 185.716 581.936 103.5 c 0,2,3
 653.199 53.0382 653.199 53.0382 736.818 78.832 c 0,4,5
 837.416 109.863 837.416 109.863 799.78 345.552 c 0,6,7
 781.811 458.34 781.811 458.34 676.227 460.49 c 0,8,9
 539.359 463.225 539.359 463.225 460.696 385.557 c 1,0,1
950.226 242.499 m 1,10,11
 998.888595022 169.167879494 998.888595022 169.167879494 1108.54 168.713 c 2,12,-1
 1133.99023438 168.607421875 l 1,13,-1
 1133.99023438 0.7099609375 l 1,14,-1
 1094.5 0.709961 l 2,15,16
 954 1 954 1 902.283 79.2559 c 1,17,18
 879 -51 879 -51 759.452 -69.9502 c 0,19,20
 648 -87 648 -87 558.5 -51.5 c 0,21,22
 346 34 346 34 334.035 340.126 c 1,23,24
 273 320 273 320 235.452 229.095 c 0,25,26
 208.156214285 164.370419966 208.156214285 164.370419966 217.452 19.0947 c 2,27,-1
 254.452 -559.146 l 1,28,-1
 98.9141 -637 l 1,29,-1
 98.9141 78.5107 l 2,30,31
 99 343 99 343 273.936 469 c 0,32,33
 419 574 419 574 596.452 596.05 c 0,34,35
 732 613 732 613 810.297 568.451 c 0,36,37
 896 520 896 520 924.689 406.351 c 0,38,39
 939 348 939 348 950.226 242.499 c 1,10,11
EndSplineSet
EndChar

StartChar: uniFEE3
Encoding: 65251 65251 247
Width: 921
VWidth: 2181
GlyphClass: 2
Flags: W
AnchorPoint: "Anchor-10" 380.69 970.5 basechar 0
AnchorPoint: "Anchor-7" 344.69 -209.5 basechar 0
LayerCount: 2
Fore
SplineSet
812 123 m 0,0,1
 769 -43 769 -43 548.196 -24.0283 c 0,2,3
 372 -9 372 -9 250 90 c 1,4,5
 196 0 196 0 35.9805 0 c 2,6,-1
 -20.4004 0 l 1,7,-1
 -20.4004 168.979 l 1,8,-1
 50.96 168.979 l 2,9,10
 145 169 145 169 160.698 230.839 c 0,11,12
 189 343 189 343 211.046 410.668 c 0,13,14
 284 632 284 632 456.177 668.07 c 0,15,16
 674 713 674 713 775.402 453.522 c 0,17,18
 848 266 848 266 812 123 c 0,0,1
452.918 145.632 m 0,19,20
 679 75 679 75 674.809 271.558 c 0,21,22
 673.814641433 318.095384949 673.814641433 318.095384949 632.885 404.218 c 0,23,24
 587.121 500.515 587.121 500.515 517.081 508.902 c 0,25,26
 445.044 517.524 445.044 517.524 380.685 429.336 c 0,27,28
 344.18 379.812 344.18 379.812 305.84 227.321 c 1,29,30
 384.225273564 167.092817994 384.225273564 167.092817994 452.918 145.632 c 0,19,20
EndSplineSet
EndChar

StartChar: uniFEE4
Encoding: 65252 65252 248
Width: 1015
VWidth: 2181
GlyphClass: 2
Flags: W
AnchorPoint: "Anchor-10" 432.79 936.5 basechar 0
AnchorPoint: "Anchor-7" 396.79 -218.5 basechar 0
LayerCount: 2
Fore
SplineSet
478.014 120.972 m 0,0,1
 579.947 89.7012 579.947 89.7012 631.876 120.972 c 0,2,3
 735.771 184.698 735.771 184.698 631.876 383.938 c 0,4,5
 570.525 500.383 570.525 500.383 483.608 493.039 c 0,6,7
 346.109 481.424 346.109 481.424 314.868 217.805 c 2,8,-1
 314.568 215.271 l 1,9,-1
 316.546 213.659 l 2,10,11
 399.638 145.924 399.638 145.924 478.014 120.972 c 0,0,1
584.122 -49.7617 m 0,12,13
 374 -50 374 -50 251.879 86.2373 c 1,14,15
 157 0 157 0 17.5996 0 c 2,16,-1
 -20.4004 0 l 1,17,-1
 -20.4004 168.979 l 1,18,-1
 24.0195 168.979 l 2,19,20
 168 169 168 169 178.897 225.958 c 1,21,22
 178 226 178 226 195.145 324.79 c 0,23,24
 222 474 222 474 280.79 543.781 c 0,25,26
 375 655 375 655 505.988 643.307 c 0,27,28
 698 626 698 626 803.996 349.975 c 0,29,30
 873.965247013 169.08984375 873.965247013 169.08984375 995.280273438 169.08984375 c 2,31,-1
 1035.1796875 169.08984375 l 1,32,-1
 1035.1796875 0.2099609375 l 1,33,-1
 992.4296875 0.2099609375 l 2,34,35
 851 0 851 0 777.347 118.175 c 1,36,37
 752 -50 752 -50 584.122 -49.7617 c 0,12,13
EndSplineSet
EndChar

StartChar: uniFEEA
Encoding: 65258 65258 254
Width: 1101
VWidth: 2181
GlyphClass: 2
Flags: W
AnchorPoint: "Anchor-10" 633.95 1185.81 basechar 0
AnchorPoint: "Anchor-7" 432.88 -186 basechar 0
LayerCount: 2
Fore
SplineSet
724.225 382.9 m 1,0,1
 709.277 543.87 709.277 543.87 691.057 657.895 c 1,2,3
 234.96 620.738 234.96 620.738 245.56 457.439 c 0,4,5
 250.405 385.651 250.405 385.651 323.239 369.366 c 0,6,7
 471.737 337.775 471.737 337.775 724.225 382.9 c 1,0,1
741.024 241.225 m 1,8,9
 215 161 215 161 109.717 360.518 c 0,10,11
 94 390 94 390 91.6035 434.102 c 0,12,13
 75 743 75 743 671.697 791.211 c 1,14,15
 672 817 672 817 658.096 916.032 c 1,16,-1
 801.058 951.035 l 17,17,18
 814 828 814 828 860.285 426.781 c 0,19,20
 884 221 884 221 958.819 189 c 0,21,22
 1004.86646139 169.057832706 1004.86646139 169.057832706 1095.29980469 169 c 2,23,-1
 1121.25976562 168.983398438 l 1,24,-1
 1121.25976562 0 l 1,25,-1
 1074.33984375 0 l 2,26,27
 779 0 779 0 741.024 241.225 c 1,8,9
EndSplineSet
EndChar

StartChar: uniFEEB
Encoding: 65259 65259 255
Width: 1145
VWidth: 2181
GlyphClass: 2
Flags: W
AnchorPoint: "Anchor-10" 555.801 1213.23 basechar 0
AnchorPoint: "Anchor-7" 379.542 -230.946 basechar 0
LayerCount: 2
Fore
SplineSet
710.526 505.521 m 1,0,1
 740.388 403.42 740.388 403.42 702.367 326.248 c 0,2,3
 663.794 246.834 663.794 246.834 547.173 175.79 c 2,4,-1
 537.562 169.936 l 1,5,6
 884.309 25.9004 884.309 25.9004 921.961 221.185 c 0,7,8
 942.999 330.52 942.999 330.52 710.526 505.521 c 1,0,1
433.115 711.312 m 1,9,10
 381.627 739.918 381.627 739.918 356.18 753.769 c 1,11,-1
 406.477 869.591 l 1,12,13
 738.287 658.871 l 0,14,15
 1034.14 463.424 1034.14 463.424 1053.07 293.688 c 0,16,17
 1085.81 4.9248 1085.81 4.9248 806.588 -24.4316 c 0,18,19
 631.982 -42.9864 631.982 -42.9864 383.185 70.5605 c 2,20,-1
 381.203 71.4648 l 1,21,-1
 379.223 70.5605 l 2,22,23
 224.69 0 224.69 0 5.62988 0 c 2,24,-1
 -20.4004 0 l 1,25,-1
 -20.4004 168.98 l 1,26,-1
 47.0898 168.98 l 2,27,28
 105.14 169.438 105.14 169.438 163.189 169.896 c 1,29,30
 97.8838 250.687 97.8838 250.687 103.21 367.105 c 0,31,32
 107.108 464.503 107.108 464.503 162.308 551.846 c 0,33,34
 237.215 668.229 237.215 668.229 358.743 705.592 c 0,35,36
 406.436 719.948 406.436 719.948 433.115 711.312 c 1,9,10
588.993 379.845 m 0,37,38
 647.703 511.226 647.703 511.226 567.546 564.479 c 0,39,40
 427.145 658.598 427.145 658.598 315.771 524.382 c 0,41,42
 258.344 455.178 258.344 455.178 249.562 399.427 c 0,43,44
 224.061 242.767 224.061 242.767 372.653 195.21 c 1,45,46
 542.332 278.028 542.332 278.028 588.993 379.845 c 0,37,38
EndSplineSet
EndChar

StartChar: uniFEEC
Encoding: 65260 65260 256
Width: 951
VWidth: 2181
GlyphClass: 2
Flags: W
AnchorPoint: "Anchor-7" 273.88 -693.244 basechar 0
AnchorPoint: "Anchor-10" 413.76 1082.74 basechar 0
LayerCount: 2
Fore
SplineSet
306.334 168.9 m 1,0,-1
 346.352 171 l 2,1,2
 423.275 175.037 423.275 175.037 463.441 233.983 c 0,3,4
 531.688 337.077 531.688 337.077 531.688 480.296 c 0,5,6
 531.688 559.219 531.688 559.219 515.352 586 c 0,7,8
 488.885 626 488.885 626 445.352 626 c 0,9,10
 357.021 626 357.021 626 320.652 464.883 c 0,11,12
 284.365 302.876 284.365 302.876 306.334 168.9 c 1,0,-1
216.939 596.344 m 0,13,14
 288.514 761.573 288.514 761.573 446.353 760.505 c 0,15,16
 557.07 759.703 557.07 759.703 611.354 697.505 c 0,17,18
 678.082 621.047 678.082 621.047 678.082 506.893 c 0,19,20
 678.082 228.464 678.082 228.464 505.686 71.377 c 0,21,22
 427.352 0 427.352 0 320.352 0 c 1,23,24
 310.993 -203.244 310.993 -203.244 416.353 -351.244 c 1,25,26
 456.99 -62.1719 456.99 -62.1719 660.352 89 c 0,27,28
 764.352 167.08 764.352 167.08 899.353 170.08 c 1,29,-1
 975.64 169.414 l 1,30,-1
 975.64 0.463867 l 1,31,-1
 857.352 0 l 2,32,33
 605.5 -0.987638 605.5 -0.987638 482.353 -556.244 c 1,34,35
 201.37 -458.511 201.37 -458.511 173.825 0 c 1,36,-1
 -20.9355 0 l 5,37,-1
 -20.9355 168.98 l 5,38,-1
 171.988 169.038 l 1,39,40
 162.138 471.695 162.138 471.695 216.939 596.344 c 0,13,14
EndSplineSet
EndChar

StartChar: uniFEEE
Encoding: 65262 65262 258
Width: 902
VWidth: 2181
GlyphClass: 2
Flags: W
AnchorPoint: "Anchor-10" 376 1059 basechar 0
AnchorPoint: "Anchor-7" 553.515 -614.238 basechar 0
LayerCount: 2
Fore
SplineSet
485.845 514.636 m 0,0,1
 355.952 511.718 355.952 511.718 309.978 361.104 c 0,2,3
 251.527 173.248 251.527 173.248 458.777 157.264 c 0,4,5
 509.948 153.107 509.948 153.107 649.293 160.203 c 1,6,7
 650.301 272.516 650.301 272.516 633.56 354.008 c 0,8,9
 600.652 518.223 600.652 518.223 485.845 514.636 c 0,0,1
780.693 0.5 m 1,10,11
 754 -181 754 -181 633 -322 c 0,12,13
 475 -506 475 -506 145.27 -506.139 c 1,14,-1
 80.2695 -380.139 l 1,15,16
 575 -350 575 -350 641.073 1.44336 c 1,17,18
 617 1 617 1 471.828 1.23926 c 0,19,20
 294 1 294 1 219.993 86.7031 c 0,21,22
 143 175 143 175 157.613 301.323 c 0,23,24
 177 472 177 472 288.265 578.436 c 0,25,26
 387 674 387 674 501.138 666.823 c 0,27,28
 653 657 653 657 720.98 515.567 c 0,29,30
 775 405 775 405 787.014 256.368 c 0,31,32
 794 176 794 176 794.506 168.473 c 1,33,-1
 922.66015625 169.353515625 l 1,34,-1
 922.66015625 0.5 l 1,35,-1
 780.693 0.5 l 1,10,11
EndSplineSet
EndChar

StartChar: uniFEF0
Encoding: 65264 65264 260
Width: 1433
VWidth: 2181
GlyphClass: 2
Flags: W
AnchorPoint: "Anchor-10" 610.857 463.69 basechar 0
AnchorPoint: "Anchor-7" 383.067 -735.505 basechar 0
LayerCount: 2
Fore
SplineSet
1428.81 169.534 m 2,0,1
 1441.35000313 169.45599998 1441.35000313 169.45599998 1453.89 169.377 c 1,2,-1
 1453.89 0.500977 l 1,3,-1
 1346.78 0.544922 l 1,4,-1
 1184.5 0 l 2,5,6
 1130.27320082 -0.182088833252 1130.27320082 -0.182088833252 1115.49500998 -30.146952034 c 128,-1,7
 1100.71681914 -60.1118152347 1100.71681914 -60.1118152347 1129.23886902 -76.874999559 c 128,-1,8
 1157.76091889 -93.6381838833 1157.76091889 -93.6381838833 1219.07493442 -100.485851174 c 128,-1,9
 1280.38894994 -107.333518464 1280.38894994 -107.333518464 1305.07390028 -116.88215567 c 0,10,11
 1375.61907956 -144.170455393 1375.61907956 -144.170455393 1375.61907956 -237.029124662 c 0,12,13
 1375.61907956 -388.146588805 1375.61907956 -388.146588805 1271 -479 c 4,14,15
 1078 -644 1078 -644 721.324134954 -644.46972686 c 4,16,17
 149.133825812 -644.46972686 149.133825812 -644.46972686 149.133825812 -165.976913146 c 4,18,19
 149.133825812 74.9633577186 149.133825812 74.9633577186 298.31775 290.922075 c 5,20,-1
 423 235 l 5,21,22
 333.705140162 100.510226843 333.705140162 100.510226843 307 -62 c 4,23,24
 299.405832259 -108.213197713 299.405832259 -108.213197713 299.405832259 -141.171133712 c 132,-1,25
 299.405832259 -174.129069712 299.405832259 -174.129069712 305.751037211 -221.360826133 c 132,-1,26
 312.096242163 -268.592582554 312.096242163 -268.592582554 354.548121082 -333.296291277 c 4,27,28
 452 -482 452 -482 758.969009328 -482.064758427 c 4,29,30
 878.954539676 -482.064758427 878.954539676 -482.064758427 989.477269838 -458.032379214 c 4,31,32
 1174.61761547 -417.774931832 1174.61761547 -417.774931832 1237 -329 c 0,33,34
 1256.13437634 -301.692313549 1256.13437634 -301.692313549 1256.13437634 -278.496194559 c 0,35,36
 1256.13437634 -226.974268569 1256.13437634 -226.974268569 1178.82840078 -225.193730034 c 128,-1,37
 1101.52242522 -223.413191498 1101.52242522 -223.413191498 1053.59132164 -197.873341205 c 0,38,39
 953.891541748 -144.748809063 953.891541748 -144.748809063 953.891541748 -35.239106783 c 0,40,41
 953.891541748 18.4153442314 953.891541748 18.4153442314 981.995473511 70.3348429151 c 0,42,43
 1035.6962885 169.542292489 1035.6962885 169.542292489 1191.78 169.539 c 2,44,-1
 1428.81 169.534 l 2,0,1
  Spiro
    1065.5 148.039 o
    1116.67 164.164 o
    1191.78 169.539 [
    1428.81 169.534 v
    1441.35 169.456 o
    1453.89 169.377 v
    1453.89 0.500977 v
    1346.78 0.544922 v
    1184.5 0 ]
    1130.14 -12.1428 o
    1113.02 -48.0811 o
    1137.21 -81.5599 o
    1256 -105 o
    1346 -144 o
    1375.28 -223.426 o
    1358 -341 o
    1271 -479 o
    1049 -601 o
    873 -636 o
    685 -644 o
    459 -613 o
    288 -522 o
    174.548 -339.625 o
    151 -215 o
    157 -62 o
    207 121 o
    298.318 290.922 v
    423 235 v
    342.817 75.0727 o
    307 -62 o
    302.649 -198.272 o
    349 -325 o
    481 -436 o
    664 -478 o
    863 -477 o
    1007 -454 o
    1157 -399 o
    1237 -329 o
    1231 -238 o
    1175 -225 o
    1099 -216 o
    968 -107 o
    954.02 -28.0811 o
    979.782 66.2447 o
    0 0 z
  EndSpiro
EndSplineSet
EndChar

StartChar: uniFEFB
Encoding: 65275 65275 271
Width: 1078
VWidth: 2181
GlyphClass: 3
Flags: W
AnchorPoint: "Anchor-9" 823.69 1585 baselig 0
AnchorPoint: "Anchor-6" 845.69 -219.5 baselig 0
AnchorPoint: "Anchor-6" 281.5 -264.908 baselig 1
AnchorPoint: "Anchor-9" 124.565 1486.84 baselig 1
LayerCount: 2
Fore
SplineSet
568 150 m 1,0,1
 705 171 705 171 763 237 c 0,2,3
 828.241208979 311.274607146 828.241208979 311.274607146 822.290039062 449.530273438 c 2,4,-1
 781.29 1402.03 l 1,5,-1
 939.17 1471.03 l 1,6,-1
 939.17 436.69 l 2,7,8
 939 218 939 218 838 129 c 0,9,10
 676 -12 676 -12 305.69 3.46875 c 0,11,12
 199 8 199 8 170.69 31.4688 c 1,13,-1
 170.69 170.449 l 1,14,15
 310 128 310 128 440 139.000976562 c 1,16,17
 338 924 338 924 94 1236 c 5,18,-1
 228.95703125 1341.22070312 l 5,19,20
 466 949 466 949 568 150 c 1,0,1
EndSplineSet
LCarets2: 1 0
Ligature2: "'rlig' Required Ligatures in Arabic lookup 16 subtable" uniFEDF uniFE8E
EndChar

StartChar: uniFEFC
Encoding: 65276 65276 272
Width: 1206
VWidth: 2181
GlyphClass: 3
Flags: W
AnchorPoint: "Anchor-9" 882.69 1569 baselig 0
AnchorPoint: "Anchor-6" 883.69 -212.5 baselig 0
AnchorPoint: "Anchor-6" 248 -266 baselig 1
AnchorPoint: "Anchor-9" 112.5 1469.5 baselig 1
LayerCount: 2
Fore
SplineSet
755.397 158.989 m 0,0,1
 613 2 613 2 333.99 0.5 c 0,2,3
 209 0 209 0 124.08 16.1084 c 1,4,-1
 124.08 177.976 l 1,5,6
 350 135 350 135 416.17578125 162.750976562 c 1,7,8
 297 993 297 993 100.397 1260 c 1,9,-1
 235.354 1365.22 l 1,10,11
 431 1042 431 1042 538.9453125 199.926757812 c 1,12,13
 737 321 737 321 795 528 c 24,14,15
 835.900442787 672.647907418 835.900442787 672.647907418 823.396 907.989 c 2,16,-1
 797.248 1400.11 l 1,17,-1
 954.13 1470.11 l 1,18,-1
 954.13 632.5 l 2,19,20
 954 460 954 460 991.728 349.948 c 0,21,22
 1052.87136537 169.379882812 1052.87136537 169.379882812 1180.58984375 169.379882812 c 2,23,-1
 1226.94042969 169.379882812 l 1,24,-1
 1226.94042969 0.5 l 1,25,-1
 1181.91015625 0.5 l 2,26,27
 926 0 926 0 857.397 347.989 c 1,28,29
 815 226 815 226 755.397 158.989 c 0,0,1
EndSplineSet
LCarets2: 1 0
Ligature2: "'rlig' Required Ligatures in Arabic lookup 16 subtable" uniFEE0 uniFE8E
EndChar

StartChar: arabic_dot
Encoding: 65536 -1 273
Width: 150
GlyphClass: 2
Flags: W
LayerCount: 2
Fore
SplineSet
101.75 183.59 m 2,0,-1
 180.25 105.09 l 2,1,2
 202.84 82.5 202.84 82.5 180.75 60.41 c 2,3,-1
 98.75 -21.59 l 2,4,5
 74.5 -45.84 74.5 -45.84 50.75 -22.09 c 2,6,-1
 -31.25 59.91 l 2,7,8
 -53.84 82.5 -53.84 82.5 -28.25 108.09 c 2,9,-1
 48.25 184.59 l 2,10,11
 74.5 210.84 74.5 210.84 101.75 183.59 c 2,0,-1
EndSplineSet
EndChar

StartChar: arabic_2dots
Encoding: 65537 -1 274
Width: 452
GlyphClass: 2
Flags: W
LayerCount: 2
Fore
SplineSet
394.75 183.59 m 2,0,-1
 473.25 105.09 l 2,1,2
 495.84 82.5 495.84 82.5 473.75 60.4102 c 2,3,-1
 391.75 -21.5898 l 2,4,5
 367.5 -45.8398 367.5 -45.8398 343.75 -22.0898 c 2,6,-1
 261.75 59.9102 l 2,7,8
 239.16 82.5 239.16 82.5 264.75 108.09 c 2,9,-1
 341.25 184.59 l 2,10,11
 367.5 210.84 367.5 210.84 394.75 183.59 c 2,0,-1
111.75 183.59 m 2,12,-1
 190.25 105.09 l 2,13,14
 212.84 82.5 212.84 82.5 190.75 60.4102 c 2,15,-1
 108.75 -21.5898 l 2,16,17
 84.5 -45.8398 84.5 -45.8398 60.75 -22.0898 c 2,18,-1
 -21.25 59.9102 l 2,19,20
 -43.8398 82.5 -43.8398 82.5 -18.25 108.09 c 2,21,-1
 58.25 184.59 l 2,22,23
 84.5 210.84 84.5 210.84 111.75 183.59 c 2,12,-1
EndSplineSet
EndChar

StartChar: arabic_3dots
Encoding: 65538 -1 275
Width: 455
GlyphClass: 2
Flags: W
LayerCount: 2
Fore
SplineSet
253.666 396 m 2,0,-1
 332.166 317.5 l 2,1,2
 354.756 294.91 354.756 294.91 332.666 272.82 c 2,3,-1
 250.666 190.82 l 2,4,5
 226.416 166.57 226.416 166.57 202.666 190.32 c 2,6,-1
 120.666 272.32 l 2,7,8
 98.0762 294.91 98.0762 294.91 123.666 320.5 c 2,9,-1
 200.166 397 l 2,10,11
 226.416 423.25 226.416 423.25 253.666 396 c 2,0,-1
395.75 171.59 m 2,12,-1
 474.25 93.09 l 2,13,14
 496.84 70.5002 496.84 70.5002 474.75 48.4103 c 2,15,-1
 392.75 -33.5897 l 2,16,17
 368.5 -57.8397 368.5 -57.8397 344.75 -34.0897 c 2,18,-1
 262.75 47.9103 l 2,19,20
 240.16 70.5001 240.16 70.5001 265.75 96.09 c 2,21,-1
 342.25 172.59 l 2,22,23
 368.5 198.84 368.5 198.84 395.75 171.59 c 2,12,-1
112.75 171.59 m 2,24,-1
 191.25 93.09 l 2,25,26
 213.84 70.5002 213.84 70.5002 191.75 48.4103 c 2,27,-1
 109.75 -33.5897 l 2,28,29
 85.5 -57.8397 85.5 -57.8397 61.75 -34.0897 c 2,30,-1
 -20.25 47.9103 l 2,31,32
 -42.8398 70.5001 -42.8398 70.5001 -17.25 96.09 c 2,33,-1
 59.25 172.59 l 2,34,35
 85.5 198.84 85.5 198.84 112.75 171.59 c 2,24,-1
EndSplineSet
EndChar

StartChar: arabic_3dots_a
Encoding: 65539 -1 276
Width: 454
GlyphClass: 2
Flags: W
LayerCount: 2
Fore
SplineSet
248 -16.5479 m 2,0,-1
 326.5 -95.0479 l 2,1,2
 349.09 -117.638 349.09 -117.638 327 -139.728 c 2,3,-1
 245 -221.728 l 2,4,5
 220.75 -245.978 220.75 -245.978 197 -222.228 c 2,6,-1
 115 -140.228 l 2,7,8
 92.4102 -117.638 92.4102 -117.638 118 -92.0479 c 2,9,-1
 194.5 -15.5479 l 2,10,11
 220.75 10.7021 220.75 10.7021 248 -16.5479 c 2,0,-1
395.75 191.59 m 2,12,-1
 474.25 113.09 l 2,13,14
 496.84 90.5002 496.84 90.5002 474.75 68.4103 c 2,15,-1
 392.75 -13.5897 l 2,16,17
 368.5 -37.8397 368.5 -37.8397 344.75 -14.0897 c 2,18,-1
 262.75 67.9103 l 2,19,20
 240.16 90.5001 240.16 90.5001 265.75 116.09 c 2,21,-1
 342.25 192.59 l 2,22,23
 368.5 218.84 368.5 218.84 395.75 191.59 c 2,12,-1
112.75 191.59 m 2,24,-1
 191.25 113.09 l 2,25,26
 213.84 90.5002 213.84 90.5002 191.75 68.4103 c 2,27,-1
 109.75 -13.5897 l 2,28,29
 85.5 -37.8397 85.5 -37.8397 61.75 -14.0897 c 2,30,-1
 -20.25 67.9103 l 2,31,32
 -42.8398 90.5001 -42.8398 90.5001 -17.25 116.09 c 2,33,-1
 59.25 192.59 l 2,34,35
 85.5 218.84 85.5 218.84 112.75 191.59 c 2,24,-1
EndSplineSet
EndChar

StartChar: uni066E.fina
Encoding: 65540 -1 277
Width: 2006
VWidth: 2181
GlyphClass: 2
Flags: W
AnchorPoint: "Anchor-10" 698 1060.5 basechar 0
AnchorPoint: "Anchor-7" 698 -179 basechar 0
LayerCount: 2
Fore
SplineSet
852.779296875 0 m 4,0,1
 533 0 533 0 374 66.3779296875 c 4,2,3
 117 173 117 173 91.3759765625 450.233398438 c 4,4,5
 81 559 81 559 122.759765625 702.7578125 c 5,6,-1
 251.474609375 668.795898438 l 5,7,8
 232 538 232 538 234.538085938 475.23828125 c 4,9,10
 244 230 244 230 556.779296875 183.377929688 c 4,11,12
 633 172 633 172 800.096679688 171.016601562 c 28,13,14
 1257 170 1257 170 1416 245.37890625 c 4,15,16
 1605 335 1605 335 1630.30957031 537.794921875 c 5,17,-1
 1739.20996094 537.794921875 l 5,18,19
 1745 467 1745 467 1755.33984375 406.745117188 c 4,20,21
 1779 270 1779 270 1833.48046875 216.897460938 c 4,22,23
 1881.61523438 169.379882812 1881.61523438 169.379882812 1976.96972656 169.379882812 c 6,24,-1
 2016.16992188 169.379882812 l 5,25,-1
 2016.16992188 0.5 l 5,26,-1
 1955.03027344 0.5 l 6,27,28
 1734 0 1734 0 1647 209.87890625 c 5,29,30
 1600 152 1600 152 1466 88.87890625 c 4,31,32
 1277 0 1277 0 852.779296875 0 c 4,0,1
EndSplineSet
EndChar

StartChar: uni06A1.fina
Encoding: 65543 -1 280
Width: 1884
VWidth: 2181
GlyphClass: 2
Flags: W
AnchorPoint: "Anchor-10" 537 1167.5 basechar 0
AnchorPoint: "Anchor-7" 644 -223.5 basechar 0
LayerCount: 2
Fore
SplineSet
855.279 0 m 16,0,1
 538.802 -0 538.802 -0 380 66.3779 c 0,2,3
 122.263 174.11 122.263 174.11 97.376 450.233 c 0,4,5
 87.2451 558.573 87.2451 558.573 128.76 702.758 c 1,6,-1
 257.475 668.796 l 1,7,8
 235.607 532.234 235.607 532.234 238.538 475.238 c 0,9,10
 248.524 230.235 248.524 230.235 562.779 183.378 c 0,11,12
 610.3 176.292 610.3 176.292 806.097 171.017 c 16,13,14
 922.69 167.875 922.69 167.875 1037.47 177.424 c 0,15,16
 1216.97 193.284 1216.97 193.284 1265.8 220.342 c 1,17,-1
 1258.03 225.844 l 2,18,19
 1201.97 265.543 1201.97 265.543 1168.21 309.081 c 0,20,21
 1045.65 467.182 1045.65 467.182 1114.72 638.05 c 1,22,23
 1172.38 765.991 1172.38 765.991 1304.44 810.349 c 0,24,25
 1461.57 863.128 1461.57 863.128 1592.33 790.052 c 4,26,27
 1721.06 716.37 1721.06 716.37 1748.86 570.086 c 0,28,29
 1784.27 379.967 1784.27 379.967 1614.31 253.417 c 2,30,-1
 1609.87 250.111 l 1,31,32
 1693 169.38 1693 169.38 1832.89 169.38 c 2,33,-1
 1904.6 169.38 l 1,34,-1
 1904.6 0.5 l 1,35,-1
 1825.22 0.5 l 2,36,37
 1622.24 0.5 1622.24 0.5 1449 149.542 c 1,38,39
 1325.46 66.0321 1325.46 66.0321 1227 37.7207 c 0,40,41
 1095.82 7.50064e-06 1095.82 7.50064e-06 855.279 0 c 16,0,1
1240.06 504.84 m 128,-1,43
 1240.06 427.809 1240.06 427.809 1294.57 373.295 c 128,-1,44
 1349.09 318.782 1349.09 318.782 1426.12 318.782 c 128,-1,45
 1503.15 318.782 1503.15 318.782 1557.67 373.295 c 128,-1,46
 1612.18 427.805 1612.18 427.805 1612.18 504.84 c 128,-1,47
 1612.18 581.874 1612.18 581.874 1557.67 636.385 c 128,-1,48
 1503.15 690.896 1503.15 690.896 1426.12 690.896 c 128,-1,49
 1349.09 690.896 1349.09 690.896 1294.57 636.383 c 128,-1,42
 1240.06 581.868 1240.06 581.868 1240.06 504.84 c 128,-1,43
EndSplineSet
EndChar

StartChar: uni06A1.init
Encoding: 65544 -1 281
Width: 815
VWidth: 2181
GlyphClass: 2
Flags: W
AnchorPoint: "Anchor-10" 405.53 1224.5 basechar 0
AnchorPoint: "Anchor-7" 380.53 -170 basechar 0
LayerCount: 2
Fore
SplineSet
408.104 848.134 m 4,0,1
 288.973 844.726 288.973 844.726 248.527 683.604 c 4,2,3
 208.612 522.73 208.612 522.73 348.161 499.149 c 4,4,5
 489.314 474.681 489.314 474.681 584.419 548.192 c 5,6,7
 591.688 572.468 591.688 572.468 574.348 666.313 c 4,8,9
 539.564 851.95 539.564 851.95 408.104 848.134 c 4,0,1
723.285 608.521 m 28,10,11
 736.415 491.721 736.415 491.721 715.26 326 c 4,12,13
 693.227 145.243 693.227 145.243 559.26 60 c 4,14,15
 464.964 0 464.964 0 196.23 0 c 6,16,-1
 -20.4004 0 l 5,17,-1
 -20.4004 168.98 l 5,18,-1
 82 168.98 l 6,19,20
 403.14 168.98 403.14 168.98 444.915 184 c 4,21,22
 574.914 231.427 574.914 231.427 577.88 403.428 c 5,23,24
 524.25 352.99 524.25 352.99 381.082 350.37 c 4,25,26
 222.625 347.564 222.625 347.564 152.599 440.88 c 4,27,28
 90.1719 524.068 90.1719 524.068 104.957 650.971 c 4,29,30
 123.417 814.374 123.417 814.374 214.762 910.265 c 4,31,32
 327.192 1028.29 327.192 1028.29 473.026 997.613 c 4,33,34
 575.812 975.992 575.812 975.992 640.307 868.321 c 4,35,36
 705.519 759.206 705.519 759.206 723.285 608.521 c 28,10,11
EndSplineSet
EndChar

StartChar: uni06A1.medi
Encoding: 65545 -1 282
Width: 1004
VWidth: 2181
GlyphClass: 2
Flags: W
AnchorPoint: "Anchor-10" 510.26 1007 basechar 0
AnchorPoint: "Anchor-7" 510.26 -170 basechar 0
LayerCount: 2
Fore
SplineSet
321.427 488.602 m 128,-1,1
 321.427 412.165 321.427 412.165 376.822 358.013 c 128,-1,2
 432.395 303.689 432.395 303.689 511.033 303.689 c 128,-1,3
 589.669 303.689 589.669 303.689 645.241 358.013 c 128,-1,4
 700.636 412.163 700.636 412.163 700.636 488.602 c 128,-1,5
 700.636 565.032 700.636 565.032 645.241 619.185 c 128,-1,6
 589.668 673.509 589.668 673.509 511.033 673.509 c 128,-1,7
 432.397 673.509 432.397 673.509 376.822 619.185 c 128,-1,0
 321.427 565.038 321.427 565.038 321.427 488.602 c 128,-1,1
682.467 783.729 m 0,8,9
 813 723 813 723 848.132 581.492 c 0,10,11
 871 489 871 489 835.273 372.179 c 0,12,13
 804 271 804 271 672.043 195.906 c 1,14,15
 742.2103653 167.916084823 742.2103653 167.916084823 950.046 168.98 c 2,16,-1
 1024.91992188 169.36328125 l 5,17,-1
 1024.91992188 0.490234375 l 5,18,-1
 813.721 0 l 2,19,20
 665.317893396 1.42108547152e-14 665.317893396 1.42108547152e-14 513.111 105.742 c 2,21,-1
 510.343 107.665 l 1,22,-1
 507.521 105.818 l 2,23,24
 346 0 346 0 207.79 0 c 2,25,-1
 -20.4004 0 l 1,26,-1
 -20.4004 168.98 l 1,27,-1
 70.4902 168.98 l 2,28,29
 259 169 259 169 335.784 198.648 c 1,30,31
 237 263 237 263 190.285 367.918 c 0,32,33
 146 465 146 465 177.74 583.014 c 0,34,35
 219 732 219 732 365.881 791.366 c 0,36,37
 431 818 431 818 515.542 818.513 c 0,38,39
 607 819 607 819 682.467 783.729 c 0,8,9
EndSplineSet
EndChar

StartChar: uni066F.fina
Encoding: 65546 -1 283
Width: 1528
VWidth: 2181
GlyphClass: 2
Flags: W
AnchorPoint: "Anchor-10" 387 900 basechar 0
AnchorPoint: "Anchor-7" 470.645 -718.82 basechar 0
LayerCount: 2
Fore
SplineSet
1260.98 2.64648 m 5,0,1
 1248.3 1.41602 1248.3 1.41602 1084.83 1.23926 c 4,2,3
 907.276 1.01367 907.276 1.01367 832.993 86.7031 c 4,4,5
 755.484 177.125 755.484 177.125 770.613 301.323 c 4,6,7
 791.65 479.226 791.65 479.226 901.265 585.436 c 4,8,9
 999.725 680.838 999.725 680.838 1114.14 673.823 c 4,10,11
 1273.27 664.354 1273.27 664.354 1340.98 522.567 c 4,12,13
 1394.04 411.605 1394.04 411.605 1407.01 256.368 c 4,14,15
 1413.23 176.43 1413.23 176.43 1414.51 169.473 c 5,16,17
 1453.03 169.427 1453.03 169.427 1491.55 169.38 c 5,18,-1
 1547.96 169.38 l 5,19,-1
 1547.96 0.5 l 5,20,-1
 1410.99 1.70312 l 5,21,-1
 1410.7 -2.99023 l 6,22,23
 1394.57 -264.01 1394.57 -264.01 1212.37 -425.856 c 4,24,25
 1022.13 -594.903 1022.13 -594.903 709.368 -588 c 4,26,27
 393.2 -581.155 393.2 -581.155 245.308 -429.771 c 4,28,29
 91.4092 -274.034 91.4092 -274.034 94.8516 -7.42969 c 4,30,31
 97.6578 198.512 97.6578 198.512 187.879 385.197 c 5,32,-1
 337.438 347.18 l 5,33,34
 251.89 122.965 251.89 122.965 252.783 -13.918 c 4,35,36
 255.665 -434.766 255.665 -434.766 732.479 -429.855 c 4,37,38
 1028.25 -427.242 1028.25 -427.242 1164.98 -266.353 c 4,39,40
 1258.96 -155.766 1258.96 -155.766 1260.98 2.64648 c 5,0,1
1098.84 521.636 m 4,41,42
 971.104 518.718 971.104 518.718 922.978 361.104 c 4,43,44
 864.527 173.248 864.527 173.248 1071.78 157.264 c 4,45,46
 1125.67 153.107 1125.67 153.107 1269.29 160.203 c 5,47,48
 1270.3 272.516 1270.3 272.516 1253.56 354.008 c 4,49,50
 1218.49 524.711 1218.49 524.711 1098.84 521.636 c 4,41,42
92.9443 -9.63281 m 1028,51,52
EndSplineSet
EndChar

StartChar: arabic_ring
Encoding: 65549 -1 286
Width: 438
GlyphClass: 2
Flags: W
LayerCount: 2
Fore
SplineSet
316 220 m 4,0,1
 316 260 316 260 288 288 c 4,2,3
 260 317 260 317 219 317 c 132,-1,4
 178 317 178 317 150 289 c 132,-1,5
 122 261 122 261 122 220 c 4,6,7
 122 178 122 178 150 150 c 4,8,9
 178 123 178 123 219 123 c 132,-1,10
 260 123 260 123 288 151 c 132,-1,11
 316 179 316 179 316 220 c 4,0,1
438 220 m 132,-1,13
 438 128 438 128 375 64 c 4,14,15
 311 0 311 0 219 0 c 132,-1,16
 127 0 127 0 64 64 c 4,17,18
 0 128 0 128 0 220 c 132,-1,19
 0 312 0 312 64 376 c 4,20,21
 127 439 127 439 219 439 c 132,-1,22
 311 439 311 439 375 376 c 5,23,12
 438 312 438 312 438 220 c 132,-1,13
EndSplineSet
EndChar

StartChar: arabic_gaf_bar
Encoding: 65550 -1 287
Width: 674
GlyphClass: 2
Flags: W
LayerCount: 2
Fore
SplineSet
666 1673 m 5,0,-1
 0 1321 l 5,1,-1
 0 1430 l 5,2,-1
 666 1782 l 5,3,-1
 666 1673 l 5,0,-1
EndSplineSet
EndChar

StartChar: uni066E.init.math
Encoding: 65560 -1 297
Width: 877
VWidth: 2181
GlyphClass: 2
Flags: W
LayerCount: 2
Fore
SplineSet
573.584 94.0195 m 0,0,1
 501.396 8.5 501.396 8.5 342.4 8.5 c 2,2,-1
 -3.40039 8.5 l 1,3,-1
 -3.40039 169.38 l 1,4,-1
 283.55 169.38 l 2,5,6
 396.937 169.38 396.937 169.38 449.287 221.732 c 0,7,8
 506.99 279.434 506.99 279.434 506.99 400.31 c 2,9,-1
 506.99 614.5 l 1,10,-1
 667.87 614.5 l 1,11,-1
 667.87 400.31 l 2,12,13
 667.87 207.324 667.87 207.324 573.584 94.0195 c 0,0,1
EndSplineSet
EndChar

StartChar: guillemotleft
Encoding: 171 171 298
Width: 995
Flags: W
LayerCount: 2
Fore
SplineSet
436.859 931.098 m 1,0,-1
 302.889 931.098 l 1,1,-1
 294.057 917.129 l 2,2,3
 221.416 802.234 221.416 802.234 185.08 692.026 c 0,4,5
 148.055 579.72 148.055 579.72 148.055 468.617 c 0,6,7
 148.055 357.089 148.055 357.089 185.07 244.278 c 0,8,9
 221.422 133.541 221.422 133.541 294.08 19.0996 c 2,10,-1
 302.918 5.17773 l 1,11,-1
 436.945 5.17773 l 1,12,-1
 411.322 50.0527 l 2,13,14
 352.045 153.868 352.045 153.868 322.502 256.018 c 0,15,16
 292.055 361.295 292.055 361.295 292.055 468.617 c 128,-1,17
 292.055 575.917 292.055 575.917 322.49 680.456 c 0,18,19
 352.045 781.967 352.045 781.967 411.365 886.268 c 2,20,-1
 436.859 931.098 l 1,0,-1
812.859 931.098 m 1,21,-1
 678.889 931.098 l 1,22,-1
 670.057 917.129 l 2,23,24
 597.416 802.234 597.416 802.234 561.08 692.026 c 0,25,26
 524.055 579.72 524.055 579.72 524.055 468.617 c 0,27,28
 524.055 357.089 524.055 357.089 561.07 244.278 c 0,29,30
 597.422 133.541 597.422 133.541 670.08 19.0996 c 2,31,-1
 678.918 5.17773 l 1,32,-1
 812.945 5.17773 l 1,33,-1
 787.322 50.0527 l 2,34,35
 728.045 153.868 728.045 153.868 698.502 256.018 c 0,36,37
 668.055 361.295 668.055 361.295 668.055 468.617 c 128,-1,38
 668.055 575.917 668.055 575.917 698.49 680.456 c 0,39,40
 728.045 781.967 728.045 781.967 787.365 886.268 c 2,41,-1
 812.859 931.098 l 1,21,-1
EndSplineSet
EndChar

StartChar: guillemotright
Encoding: 187 187 299
Width: 992
Flags: W
LayerCount: 2
Fore
SplineSet
558.141 931.098 m 5,0,-1
 692.111 931.098 l 5,1,-1
 700.943 917.129 l 6,2,3
 773.584 802.234 773.584 802.234 809.92 692.026 c 4,4,5
 846.945 579.72 846.945 579.72 846.945 468.617 c 4,6,7
 846.945 357.089 846.945 357.089 809.93 244.278 c 4,8,9
 773.578 133.541 773.578 133.541 700.92 19.0996 c 6,10,-1
 692.082 5.17773 l 5,11,-1
 558.055 5.17773 l 5,12,-1
 583.678 50.0527 l 6,13,14
 642.955 153.868 642.955 153.868 672.498 256.018 c 4,15,16
 702.945 361.295 702.945 361.295 702.945 468.617 c 132,-1,17
 702.945 575.917 702.945 575.917 672.51 680.456 c 4,18,19
 642.955 781.967 642.955 781.967 583.635 886.268 c 6,20,-1
 558.141 931.098 l 5,0,-1
182.141 931.098 m 5,21,-1
 316.111 931.098 l 5,22,-1
 324.943 917.129 l 6,23,24
 397.584 802.234 397.584 802.234 433.92 692.026 c 4,25,26
 470.945 579.72 470.945 579.72 470.945 468.617 c 4,27,28
 470.945 357.089 470.945 357.089 433.93 244.278 c 4,29,30
 397.578 133.541 397.578 133.541 324.92 19.0996 c 6,31,-1
 316.082 5.17773 l 5,32,-1
 182.055 5.17773 l 5,33,-1
 207.678 50.0527 l 6,34,35
 266.955 153.868 266.955 153.868 296.498 256.018 c 4,36,37
 326.945 361.295 326.945 361.295 326.945 468.617 c 132,-1,38
 326.945 575.917 326.945 575.917 296.51 680.456 c 4,39,40
 266.955 781.967 266.955 781.967 207.635 886.268 c 6,41,-1
 182.141 931.098 l 5,21,-1
EndSplineSet
EndChar

StartChar: NameMe.337
Encoding: 65562 -1 306
Width: 615
VWidth: 2181
Flags: W
LayerCount: 2
Fore
SplineSet
273.32 94.5264 m 6,0,1
 188.675 -4.05053e-07 188.675 -4.05053e-07 80.7002 0 c 6,2,-1
 -20.4004 0 l 5,3,-1
 -20.4004 168.98 l 5,4,-1
 21.8496 168.98 l 6,5,6
 127.746 168.98 127.746 168.98 186.495 221.642 c 4,7,8
 253.047 281.38 253.047 281.38 247.29 400.31 c 6,9,-1
 208.29 1205.96 l 5,10,-1
 365.17 1275.96 l 5,11,-1
 365.17 400.31 l 6,12,13
 365.17 280.933 365.17 280.933 395.729 237.004 c 4,14,15
 443.051 168.98 443.051 168.98 594.61 168.98 c 6,16,-1
 635.86 168.98 l 5,17,-1
 635.86 0 l 5,18,-1
 535.76 0 l 6,19,20
 386.989 -1.40678e-05 386.989 -1.40678e-05 299.987 94.6973 c 6,21,-1
 286.56 109.312 l 5,22,-1
 273.32 94.5264 l 6,0,1
EndSplineSet
EndChar

StartChar: NameMe.338
Encoding: 65563 -1 307
Width: 532
VWidth: 2181
Flags: W
LayerCount: 2
Fore
SplineSet
393.17 436.69 m 2,0,1
 393.17 192.801 393.17 192.801 289.385 90.0967 c 4,2,3
 195.617 0 195.617 0 54.7002 0 c 2,4,-1
 -20.4004 0 l 1,5,-1
 -20.4004 168.98 l 1,6,-1
 12.8496 168.98 l 2,7,8
 152 168.98 152 168.98 215.957 248.894 c 0,9,10
 278.635 327.221 278.635 327.221 273.29 449.53 c 2,11,-1
 235.29 1319.03 l 1,12,-1
 393.17 1389.03 l 1,13,-1
 393.17 436.69 l 2,0,1
EndSplineSet
EndChar

